<?xml version="1.0" encoding="utf-8" standalone="no"?>
<!-- Creator: Esri ArcMap 10.5.0.6491 -->
<!DOCTYPE svg PUBLIC "-//W3C//DTD SVG 1.1//EN"  "http://www.w3.org/Graphics/SVG/1.1/DTD/svg11.dtd">
<svg width="79.51181pt" height="114.74646pt" viewBox="0 0 79.51181 114.74646" enable-background="new 0 0 79.51181 114.74646"
	version="1.1" xmlns="http://www.w3.org/2000/svg" xmlns:xlink="http://www.w3.org/1999/xlink" >
	<g id="Other">
		<clipPath id="SVG_CP_1">
			<path d="M0,114.74646L0,0L79.51181,0L79.51181,114.74646L0,114.74646z"/>
		</clipPath>
		<g font-family="'Arial'" font-size="1" kerning="0" font-weight="700" fill="#FFFFFF" clip-path="url(#SVG_CP_1)" >
			<text text-anchor="start" transform="matrix(10.5358 0 0 10.56238 2.3945 11.68482)" >
				<tspan direction="ltr" unicode-bidi="embed" x="0 ">L</tspan>
				<tspan direction="ltr" unicode-bidi="embed" x="0.63797 ">e</tspan>
				<tspan direction="ltr" unicode-bidi="embed" x="1.1848 ">g</tspan>
				<tspan direction="ltr" unicode-bidi="embed" x="1.86834 ">e</tspan>
				<tspan direction="ltr" unicode-bidi="embed" x="2.41517 ">n</tspan>
				<tspan direction="ltr" unicode-bidi="embed" x="3.05314 ">d</tspan>
			</text>
		</g>
		<path clip-path="url(#SVG_CP_1)" fill="#E6E6E6" fill-rule="evenodd" stroke="#000000" stroke-width="0.11494" stroke-miterlimit="10" stroke-linecap="square" d="
			M2.3945,36.00811L2.3945,22.08498L30.64959,22.08498L30.64959,36.00811L2.3945,36.00811z"/>
		<path clip-path="url(#SVG_CP_1)" fill="none" stroke="#6E6E6E" stroke-width="0.9578" stroke-miterlimit="10" stroke-linecap="round" stroke-linejoin="round" d="
			M2.3945,36.00811L2.3945,22.08498L30.64959,22.08498L30.64959,36.00811L2.3945,36.00811"/>
		<g font-family="'Arial'" font-size="1" kerning="0" font-weight="400" fill="#FFFFFF" clip-path="url(#SVG_CP_1)" >
			<text text-anchor="start" transform="matrix(9.578 0 0 9.60216 35.43859 33.12746)" >
				<tspan direction="ltr" unicode-bidi="embed" x="0 ">N</tspan>
				<tspan direction="ltr" unicode-bidi="embed" x="0.75189 ">o</tspan>
				<tspan direction="ltr" unicode-bidi="embed" x="1.60404 ">s</tspan>
				<tspan direction="ltr" unicode-bidi="embed" x="2.15543 ">n</tspan>
				<tspan direction="ltr" unicode-bidi="embed" x="2.70681 ">o</tspan>
				<tspan direction="ltr" unicode-bidi="embed" x="3.30833 ">w</tspan>
			</text>
		</g>
		<path clip-path="url(#SVG_CP_1)" fill="#0070FF" fill-rule="evenodd" stroke="#000000" stroke-width="0.11494" stroke-miterlimit="10" stroke-linecap="square" d="
			M2.3945,55.21244L2.3945,41.2893L30.64959,41.2893L30.64959,55.21244L2.3945,55.21244z"/>
		<path clip-path="url(#SVG_CP_1)" fill="none" stroke="#6E6E6E" stroke-width="0.9578" stroke-miterlimit="10" stroke-linecap="round" stroke-linejoin="round" d="
			M2.3945,55.21244L2.3945,41.2893L30.64959,41.2893L30.64959,55.21244L2.3945,55.21244"/>
		<g font-family="'Arial'" font-size="1" kerning="0" font-weight="400" fill="#FFFFFF" clip-path="url(#SVG_CP_1)" >
			<text text-anchor="start" transform="matrix(9.578 0 0 9.60216 35.43859 51.85168)" >
				<tspan direction="ltr" unicode-bidi="embed" x="0 ">L</tspan>
				<tspan direction="ltr" unicode-bidi="embed" x="0.55139 ">a</tspan>
				<tspan direction="ltr" unicode-bidi="embed" x="1.1529 ">k</tspan>
				<tspan direction="ltr" unicode-bidi="embed" x="1.65416 ">e</tspan>
			</text>
		</g>
		<path clip-path="url(#SVG_CP_1)" fill="#DD6CDA" fill-rule="evenodd" stroke="#000000" stroke-width="0.11494" stroke-miterlimit="10" stroke-linecap="square" d="
			M2.3945,74.41677L2.3945,60.01352L30.64959,60.01352L30.64959,74.41677L2.3945,74.41677z"/>
		<path clip-path="url(#SVG_CP_1)" fill="none" stroke="#6E6E6E" stroke-width="0.9578" stroke-miterlimit="10" stroke-linecap="round" stroke-linejoin="round" d="
			M2.3945,74.41677L2.3945,60.01352L30.64959,60.01352L30.64959,74.41677L2.3945,74.41677"/>
		<g font-family="'Arial'" font-size="1" kerning="0" font-weight="400" fill="#FFFFFF" clip-path="url(#SVG_CP_1)" >
			<text text-anchor="start" transform="matrix(9.578 0 0 9.60216 35.43859 71.05601)" >
				<tspan direction="ltr" unicode-bidi="embed" x="0 ">C</tspan>
				<tspan direction="ltr" unicode-bidi="embed" x="0.75189 ">l</tspan>
				<tspan direction="ltr" unicode-bidi="embed" x="0.9524 ">o</tspan>
				<tspan direction="ltr" unicode-bidi="embed" x="1.55391 ">u</tspan>
				<tspan direction="ltr" unicode-bidi="embed" x="2.15543 ">d</tspan>
			</text>
		</g>
		<path clip-path="url(#SVG_CP_1)" fill="#00C5FF" fill-rule="evenodd" stroke="#000000" stroke-width="0.11494" stroke-miterlimit="10" stroke-linecap="square" d="
			M2.3945,93.14099L2.3945,79.21785L30.64959,79.21785L30.64959,93.14099L2.3945,93.14099z"/>
		<path clip-path="url(#SVG_CP_1)" fill="none" stroke="#6E6E6E" stroke-width="0.9578" stroke-miterlimit="10" stroke-linecap="round" stroke-linejoin="round" d="
			M2.3945,93.14099L2.3945,79.21785L30.64959,79.21785L30.64959,93.14099L2.3945,93.14099"/>
		<g font-family="'Arial'" font-size="1" kerning="0" font-weight="400" fill="#FFFFFF" clip-path="url(#SVG_CP_1)" >
			<text text-anchor="start" transform="matrix(9.578 0 0 9.60216 35.43859 90.26034)" >
				<tspan direction="ltr" unicode-bidi="embed" x="0 ">L</tspan>
				<tspan direction="ltr" unicode-bidi="embed" x="0.55139 ">a</tspan>
				<tspan direction="ltr" unicode-bidi="embed" x="1.1529 ">k</tspan>
				<tspan direction="ltr" unicode-bidi="embed" x="1.65416 ">e</tspan>
				<tspan direction="ltr" unicode-bidi="embed" x="2.55643 ">i</tspan>
				<tspan direction="ltr" unicode-bidi="embed" x="2.75694 ">c</tspan>
				<tspan direction="ltr" unicode-bidi="embed" x="3.30833 ">e</tspan>
			</text>
		</g>
		<path clip-path="url(#SVG_CP_1)" fill="#00FEFC" fill-rule="evenodd" stroke="#000000" stroke-width="0.11494" stroke-miterlimit="10" stroke-linecap="square" d="
			M2.3945,112.34531L2.3945,98.42218L30.64959,98.42218L30.64959,112.34531L2.3945,112.34531z"/>
		<path clip-path="url(#SVG_CP_1)" fill="none" stroke="#6E6E6E" stroke-width="0.9578" stroke-miterlimit="10" stroke-linecap="round" stroke-linejoin="round" d="
			M2.3945,112.34531L2.3945,98.42218L30.64959,98.42218L30.64959,112.34531L2.3945,112.34531"/>
		<g font-family="'Arial'" font-size="1" kerning="0" font-weight="400" fill="#FFFFFF" clip-path="url(#SVG_CP_1)" >
			<text text-anchor="start" transform="matrix(9.578 0 0 9.60216 35.43859 109.46467)" >
				<tspan direction="ltr" unicode-bidi="embed" x="0 ">S</tspan>
				<tspan direction="ltr" unicode-bidi="embed" x="0.65164 ">n</tspan>
				<tspan direction="ltr" unicode-bidi="embed" x="1.25315 ">o</tspan>
				<tspan direction="ltr" unicode-bidi="embed" x="1.85467 ">w</tspan>
			</text>
		</g>
	</g>
</svg>
