<?xml version="1.0" encoding="utf-8" standalone="no"?>
<!-- Creator: Esri ArcMap 10.5.0.6491 -->
<!DOCTYPE svg PUBLIC "-//W3C//DTD SVG 1.1//EN"  "http://www.w3.org/Graphics/SVG/1.1/DTD/svg11.dtd">
<svg width="410.99528pt" height="57.00472pt" viewBox="0 0 410.99528 57.00472" enable-background="new 0 0 410.99528 57.00472"
	version="1.1" xmlns="http://www.w3.org/2000/svg" xmlns:xlink="http://www.w3.org/1999/xlink" >
	<g id="Other">
		<clipPath id="SVG_CP_1">
			<path d="M0,57.00472L0,0L410.99528,0L410.99528,57.00472L0,57.00472z"/>
		</clipPath>
		<g font-family="'Arial'" font-size="1" kerning="0" font-weight="400" fill="#FFFFFF" clip-path="url(#SVG_CP_1)" >
			<text text-anchor="start" transform="matrix(12.00285 0 0 11.96278 16.56393 51.91848)" >
				<tspan direction="ltr" unicode-bidi="embed" x="0 ">-</tspan>
				<tspan direction="ltr" unicode-bidi="embed" x="0.31893 ">7</tspan>
				<tspan direction="ltr" unicode-bidi="embed" x="0.87706 ">0</tspan>
			</text>
		</g>
		<g font-family="'Arial'" font-size="1" kerning="0" font-weight="400" fill="#FFFFFF" clip-path="url(#SVG_CP_1)" >
			<text text-anchor="start" transform="matrix(12.00285 0 0 11.96278 48.0114 51.91848)" >
				<tspan direction="ltr" unicode-bidi="embed" x="0 ">-</tspan>
				<tspan direction="ltr" unicode-bidi="embed" x="0.31893 ">5</tspan>
				<tspan direction="ltr" unicode-bidi="embed" x="0.87706 ">0</tspan>
			</text>
		</g>
		<g font-family="'Arial'" font-size="1" kerning="0" font-weight="400" fill="#FFFFFF" clip-path="url(#SVG_CP_1)" >
			<text text-anchor="start" transform="matrix(12.00285 0 0 11.96278 79.69893 51.91848)" >
				<tspan direction="ltr" unicode-bidi="embed" x="0 ">-</tspan>
				<tspan direction="ltr" unicode-bidi="embed" x="0.31893 ">3</tspan>
				<tspan direction="ltr" unicode-bidi="embed" x="0.87706 ">0</tspan>
			</text>
		</g>
		<g font-family="'Arial'" font-size="1" kerning="0" font-weight="400" fill="#FFFFFF" clip-path="url(#SVG_CP_1)" >
			<text text-anchor="start" transform="matrix(12.00285 0 0 11.96278 111.38645 51.91848)" >
				<tspan direction="ltr" unicode-bidi="embed" x="0 ">-</tspan>
				<tspan direction="ltr" unicode-bidi="embed" x="0.31893 ">1</tspan>
				<tspan direction="ltr" unicode-bidi="embed" x="0.87706 ">0</tspan>
			</text>
		</g>
		<g font-family="'Arial'" font-size="1" kerning="0" font-weight="400" fill="#FFFFFF" clip-path="url(#SVG_CP_1)" >
			<text text-anchor="start" transform="matrix(12.00285 0 0 11.96278 141.39358 52.15773)" >
				<tspan direction="ltr" unicode-bidi="embed" x="0 ">0</tspan>
			</text>
		</g>
		<g font-family="'Arial'" font-size="1" kerning="0" font-weight="400" fill="#FFFFFF" clip-path="url(#SVG_CP_1)" >
			<text text-anchor="start" transform="matrix(12.00285 0 0 11.96278 162.75865 51.91848)" >
				<tspan direction="ltr" unicode-bidi="embed" x="0 ">1</tspan>
				<tspan direction="ltr" unicode-bidi="embed" x="0.5382 ">0</tspan>
			</text>
		</g>
		<g font-family="'Arial'" font-size="1" kerning="0" font-weight="400" fill="#FFFFFF" clip-path="url(#SVG_CP_1)" >
			<text text-anchor="start" transform="matrix(12.00285 0 0 11.96278 194.44618 51.91848)" >
				<tspan direction="ltr" unicode-bidi="embed" x="0 ">3</tspan>
				<tspan direction="ltr" unicode-bidi="embed" x="0.5382 ">0</tspan>
			</text>
		</g>
		<g font-family="'Arial'" font-size="1" kerning="0" font-weight="400" fill="#FFFFFF" clip-path="url(#SVG_CP_1)" >
			<text text-anchor="start" transform="matrix(12.00285 0 0 11.96278 225.89365 51.91848)" >
				<tspan direction="ltr" unicode-bidi="embed" x="0 ">5</tspan>
				<tspan direction="ltr" unicode-bidi="embed" x="0.5382 ">0</tspan>
			</text>
		</g>
		<g font-family="'Arial'" font-size="1" kerning="0" font-weight="400" fill="#FFFFFF" clip-path="url(#SVG_CP_1)" >
			<text text-anchor="start" transform="matrix(12.00285 0 0 11.96278 257.58117 51.91848)" >
				<tspan direction="ltr" unicode-bidi="embed" x="0 ">7</tspan>
				<tspan direction="ltr" unicode-bidi="embed" x="0.5382 ">0</tspan>
			</text>
		</g>
		<g font-family="'Arial'" font-size="1" kerning="0" font-weight="400" fill="#FFFFFF" clip-path="url(#SVG_CP_1)" >
			<text text-anchor="start" transform="matrix(12.00285 0 0 11.96278 289.2687 51.91848)" >
				<tspan direction="ltr" unicode-bidi="embed" x="0 ">9</tspan>
				<tspan direction="ltr" unicode-bidi="embed" x="0.5382 ">0</tspan>
			</text>
		</g>
		<g font-family="'Arial'" font-size="1" kerning="0" font-weight="400" fill="#FFFFFF" clip-path="url(#SVG_CP_1)" >
			<text text-anchor="start" transform="matrix(12.00285 0 0 11.96278 314.9548 51.91848)" >
				<tspan direction="ltr" unicode-bidi="embed" x="0 ">1</tspan>
				<tspan direction="ltr" unicode-bidi="embed" x="0.4784 ">1</tspan>
				<tspan direction="ltr" unicode-bidi="embed" x="1.03653 ">0</tspan>
			</text>
		</g>
		<g font-family="'Arial'" font-size="1" kerning="0" font-weight="400" fill="#FFFFFF" clip-path="url(#SVG_CP_1)" >
			<text text-anchor="start" transform="matrix(12.00285 0 0 11.96278 345.6821 51.91848)" >
				<tspan direction="ltr" unicode-bidi="embed" x="0 ">1</tspan>
				<tspan direction="ltr" unicode-bidi="embed" x="0.5382 ">3</tspan>
				<tspan direction="ltr" unicode-bidi="embed" x="1.09633 ">0</tspan>
			</text>
		</g>
		<g font-family="'Arial'" font-size="1" kerning="0" font-weight="400" fill="#FFFFFF" clip-path="url(#SVG_CP_1)" >
			<text text-anchor="start" transform="matrix(12.00285 0 0 11.96278 377.36962 51.91848)" >
				<tspan direction="ltr" unicode-bidi="embed" x="0 ">1</tspan>
				<tspan direction="ltr" unicode-bidi="embed" x="0.5382 ">5</tspan>
				<tspan direction="ltr" unicode-bidi="embed" x="1.09633 ">0</tspan>
			</text>
		</g>
		<path clip-path="url(#SVG_CP_1)" fill="#E31F1B" fill-rule="evenodd" stroke="#CCCCCC" stroke-width="0.48011" stroke-miterlimit="10" stroke-linecap="round" stroke-linejoin="round" d="
			M10.0824,37.56314L10.0824,5.26363L25.92616,5.26363L25.92616,37.56314L10.0824,37.56314z"/>
		<path clip-path="url(#SVG_CP_1)" fill="#ED462F" fill-rule="evenodd" stroke="#CCCCCC" stroke-width="0.48011" stroke-miterlimit="10" stroke-linecap="round" stroke-linejoin="round" d="
			M25.92616,37.56314L25.92616,5.26363L41.76992,5.26363L41.76992,37.56314L25.92616,37.56314z"/>
		<path clip-path="url(#SVG_CP_1)" fill="#F56245" fill-rule="evenodd" stroke="#CCCCCC" stroke-width="0.48011" stroke-miterlimit="10" stroke-linecap="round" stroke-linejoin="round" d="
			M41.76992,37.56314L41.76992,5.26363L57.61368,5.26363L57.61368,37.56314L41.76992,37.56314z"/>
		<path clip-path="url(#SVG_CP_1)" fill="#FC835D" fill-rule="evenodd" stroke="#CCCCCC" stroke-width="0.48011" stroke-miterlimit="10" stroke-linecap="round" stroke-linejoin="round" d="
			M57.61368,37.56314L57.61368,5.26363L73.45745,5.26363L73.45745,37.56314L57.61368,37.56314z"/>
		<path clip-path="url(#SVG_CP_1)" fill="#FFA078" fill-rule="evenodd" stroke="#CCCCCC" stroke-width="0.48011" stroke-miterlimit="10" stroke-linecap="round" stroke-linejoin="round" d="
			M73.45745,37.56314L73.45745,5.26363L89.30121,5.26363L89.30121,37.56314L73.45745,37.56314z"/>
		<path clip-path="url(#SVG_CP_1)" fill="#FFBF96" fill-rule="evenodd" stroke="#CCCCCC" stroke-width="0.48011" stroke-miterlimit="10" stroke-linecap="round" stroke-linejoin="round" d="
			M89.30121,37.56314L89.30121,5.26363L105.14497,5.26363L105.14497,37.56314L89.30121,37.56314z"/>
		<path clip-path="url(#SVG_CP_1)" fill="#FFDFB8" fill-rule="evenodd" stroke="#CCCCCC" stroke-width="0.48011" stroke-miterlimit="10" stroke-linecap="round" stroke-linejoin="round" d="
			M105.14497,37.56314L105.14497,5.26363L120.74868,5.26363L120.74868,37.56314L105.14497,37.56314z"/>
		<path clip-path="url(#SVG_CP_1)" fill="#FFFFD9" fill-rule="evenodd" stroke="#CCCCCC" stroke-width="0.48011" stroke-miterlimit="10" stroke-linecap="round" stroke-linejoin="round" d="
			M120.74868,37.56314L120.74868,5.26363L136.59244,5.26363L136.59244,37.56314L120.74868,37.56314z"/>
		<path clip-path="url(#SVG_CP_1)" fill="#FFFFFF" fill-rule="evenodd" stroke="#CCCCCC" stroke-width="0.48011" stroke-miterlimit="10" stroke-linecap="round" stroke-linejoin="round" d="
			M136.59244,37.56314L136.59244,5.26363L152.4362,5.26363L152.4362,37.56314L136.59244,37.56314z"/>
		<path clip-path="url(#SVG_CP_1)" fill="#D5FFD6" fill-rule="evenodd" stroke="#CCCCCC" stroke-width="0.48011" stroke-miterlimit="10" stroke-linecap="round" stroke-linejoin="round" d="
			M152.4362,37.56314L152.4362,5.26363L168.27997,5.26363L168.27997,37.56314L152.4362,37.56314z"/>
		<path clip-path="url(#SVG_CP_1)" fill="#B0EBBB" fill-rule="evenodd" stroke="#CCCCCC" stroke-width="0.48011" stroke-miterlimit="10" stroke-linecap="round" stroke-linejoin="round" d="
			M168.27997,37.56314L168.27997,5.26363L184.12373,5.26363L184.12373,37.56314L168.27997,37.56314z"/>
		<path clip-path="url(#SVG_CP_1)" fill="#8DD9A9" fill-rule="evenodd" stroke="#CCCCCC" stroke-width="0.48011" stroke-miterlimit="10" stroke-linecap="round" stroke-linejoin="round" d="
			M184.12373,37.56314L184.12373,5.26363L199.96749,5.26363L199.96749,37.56314L184.12373,37.56314z"/>
		<path clip-path="url(#SVG_CP_1)" fill="#6FC7A0" fill-rule="evenodd" stroke="#CCCCCC" stroke-width="0.48011" stroke-miterlimit="10" stroke-linecap="round" stroke-linejoin="round" d="
			M199.96749,37.56314L199.96749,5.26363L215.81125,5.26363L215.81125,37.56314L199.96749,37.56314z"/>
		<path clip-path="url(#SVG_CP_1)" fill="#52B399" fill-rule="evenodd" stroke="#CCCCCC" stroke-width="0.48011" stroke-miterlimit="10" stroke-linecap="round" stroke-linejoin="round" d="
			M215.81125,37.56314L215.81125,5.26363L231.41496,5.26363L231.41496,37.56314L215.81125,37.56314z"/>
		<path clip-path="url(#SVG_CP_1)" fill="#3AA198" fill-rule="evenodd" stroke="#CCCCCC" stroke-width="0.48011" stroke-miterlimit="10" stroke-linecap="round" stroke-linejoin="round" d="
			M231.41496,37.56314L231.41496,5.26363L247.25872,5.26363L247.25872,37.56314L231.41496,37.56314z"/>
		<path clip-path="url(#SVG_CP_1)" fill="#25848E" fill-rule="evenodd" stroke="#CCCCCC" stroke-width="0.48011" stroke-miterlimit="10" stroke-linecap="round" stroke-linejoin="round" d="
			M247.25872,37.56314L247.25872,5.26363L263.10249,5.26363L263.10249,37.56314L247.25872,37.56314z"/>
		<path clip-path="url(#SVG_CP_1)" fill="#29788E" fill-rule="evenodd" stroke="#CCCCCC" stroke-width="0.48011" stroke-miterlimit="10" stroke-linecap="round" stroke-linejoin="round" d="
			M263.10249,37.56314L263.10249,5.26363L278.94625,5.26363L278.94625,37.56314L263.10249,37.56314z"/>
		<path clip-path="url(#SVG_CP_1)" fill="#2E6C8E" fill-rule="evenodd" stroke="#CCCCCC" stroke-width="0.48011" stroke-miterlimit="10" stroke-linecap="round" stroke-linejoin="round" d="
			M278.94625,37.56314L278.94625,5.26363L294.79001,5.26363L294.79001,37.56314L278.94625,37.56314z"/>
		<path clip-path="url(#SVG_CP_1)" fill="#345F8D" fill-rule="evenodd" stroke="#CCCCCC" stroke-width="0.48011" stroke-miterlimit="10" stroke-linecap="round" stroke-linejoin="round" d="
			M294.79001,37.56314L294.79001,5.26363L310.63377,5.26363L310.63377,37.56314L294.79001,37.56314z"/>
		<path clip-path="url(#SVG_CP_1)" fill="#3A528B" fill-rule="evenodd" stroke="#CCCCCC" stroke-width="0.48011" stroke-miterlimit="10" stroke-linecap="round" stroke-linejoin="round" d="
			M310.63377,37.56314L310.63377,5.26363L326.23748,5.26363L326.23748,37.56314L310.63377,37.56314z"/>
		<path clip-path="url(#SVG_CP_1)" fill="#404387" fill-rule="evenodd" stroke="#CCCCCC" stroke-width="0.48011" stroke-miterlimit="10" stroke-linecap="round" stroke-linejoin="round" d="
			M326.23748,37.56314L326.23748,5.26363L342.08124,5.26363L342.08124,37.56314L326.23748,37.56314z"/>
		<path clip-path="url(#SVG_CP_1)" fill="#453480" fill-rule="evenodd" stroke="#CCCCCC" stroke-width="0.48011" stroke-miterlimit="10" stroke-linecap="round" stroke-linejoin="round" d="
			M342.08124,37.56314L342.08124,5.26363L357.92501,5.26363L357.92501,37.56314L342.08124,37.56314z"/>
		<path clip-path="url(#SVG_CP_1)" fill="#482475" fill-rule="evenodd" stroke="#CCCCCC" stroke-width="0.48011" stroke-miterlimit="10" stroke-linecap="round" stroke-linejoin="round" d="
			M357.92501,37.56314L357.92501,5.26363L373.76877,5.26363L373.76877,37.56314L357.92501,37.56314z"/>
		<path clip-path="url(#SVG_CP_1)" fill="#471366" fill-rule="evenodd" stroke="#CCCCCC" stroke-width="0.48011" stroke-miterlimit="10" stroke-linecap="round" stroke-linejoin="round" d="
			M373.76877,37.56314L373.76877,5.26363L389.61253,5.26363L389.61253,37.56314L373.76877,37.56314z"/>
		<path clip-path="url(#SVG_CP_1)" fill="#440154" fill-rule="evenodd" stroke="#CCCCCC" stroke-width="0.48011" stroke-miterlimit="10" stroke-linecap="round" stroke-linejoin="round" d="
			M389.61253,37.56314L389.61253,5.26363L405.45629,5.26363L405.45629,37.56314L389.61253,37.56314z"/>
	</g>
</svg>
