<?xml version="1.0" encoding="utf-8" standalone="no"?>
<!-- Creator: Esri ArcMap 10.5.0.6491 -->
<!DOCTYPE svg PUBLIC "-//W3C//DTD SVG 1.1//EN"  "http://www.w3.org/Graphics/SVG/1.1/DTD/svg11.dtd">
<svg width="410.99528pt" height="57.00472pt" viewBox="0 0 410.99528 57.00472" enable-background="new 0 0 410.99528 57.00472"
	version="1.1" xmlns="http://www.w3.org/2000/svg" xmlns:xlink="http://www.w3.org/1999/xlink" >
	<g id="Other">
		<clipPath id="SVG_CP_1">
			<path d="M0,57.00472L0,0L410.99528,0L410.99528,57.00472L0,57.00472z"/>
		</clipPath>
		<path clip-path="url(#SVG_CP_1)" fill="#005CE6" fill-rule="evenodd" stroke="#CCCCCC" stroke-width="0.48011" stroke-miterlimit="10" stroke-linecap="round" stroke-linejoin="round" d="
			M7.68182,31.821L7.68182,11.96278L22.56536,11.96278L22.56536,31.821L7.68182,31.821z"/>
		<g font-family="'Arial'" font-size="1" kerning="0" font-weight="400" fill="#000000" clip-path="url(#SVG_CP_1)" >
			<text text-anchor="start" transform="matrix(12.00285 0 0 11.96278 1.92046 45.93709)" >
				<tspan direction="ltr" unicode-bidi="embed" x="0 ">-</tspan>
				<tspan direction="ltr" unicode-bidi="embed" x="0.31893 ">2</tspan>
			</text>
		</g>
		<path clip-path="url(#SVG_CP_1)" fill="#5986F0" fill-rule="evenodd" stroke="#CCCCCC" stroke-width="0.48011" stroke-miterlimit="10" stroke-linecap="round" stroke-linejoin="round" d="
			M22.56536,31.821L22.56536,11.96278L37.20884,11.96278L37.20884,31.821L22.56536,31.821z"/>
		<path clip-path="url(#SVG_CP_1)" fill="#8DB4F7" fill-rule="evenodd" stroke="#CCCCCC" stroke-width="0.48011" stroke-miterlimit="10" stroke-linecap="round" stroke-linejoin="round" d="
			M37.20884,31.821L37.20884,11.96278L51.85232,11.96278L51.85232,31.821L37.20884,31.821z"/>
		<clipPath id="SVG_CP_2">
			<path d="M0,57.00472L0,0L410.99528,0L410.99528,57.00472L0,57.00472z"/>
		</clipPath>
		<g font-family="'Arial'" font-size="1" kerning="0" font-weight="400" fill="#000000" clip-path="url(#SVG_CP_2)" >
			<text text-anchor="start" transform="matrix(12.00285 0 0 11.96278 31.20741 45.93709)" >
				<tspan direction="ltr" unicode-bidi="embed" x="0 ">-</tspan>
				<tspan direction="ltr" unicode-bidi="embed" x="0.31893 ">1</tspan>
			</text>
		</g>
		<path clip-path="url(#SVG_CP_2)" fill="#BFE9FF" fill-rule="evenodd" stroke="#CCCCCC" stroke-width="0.48011" stroke-miterlimit="10" stroke-linecap="round" stroke-linejoin="round" d="
			M51.85232,31.821L51.85232,11.96278L66.49579,11.96278L66.49579,31.821L51.85232,31.821z"/>
		<path clip-path="url(#SVG_CP_2)" fill="#FFFFFF" fill-rule="evenodd" stroke="#CCCCCC" stroke-width="0.48011" stroke-miterlimit="10" stroke-linecap="round" stroke-linejoin="round" d="
			M66.49579,31.821L66.49579,11.96278L81.37933,11.96278L81.37933,31.821L66.49579,31.821z"/>
		<g font-family="'Arial'" font-size="1" kerning="0" font-weight="400" fill="#000000" clip-path="url(#SVG_CP_2)" >
			<text text-anchor="start" transform="matrix(12.00285 0 0 11.96278 69.37648 45.93709)" >
				<tspan direction="ltr" unicode-bidi="embed" x="0 ">0</tspan>
			</text>
		</g>
		<path clip-path="url(#SVG_CP_2)" fill="#FFFFBA" fill-rule="evenodd" stroke="#CCCCCC" stroke-width="0.48011" stroke-miterlimit="10" stroke-linecap="round" stroke-linejoin="round" d="
			M81.37933,31.821L81.37933,11.96278L96.02281,11.96278L96.02281,31.821L81.37933,31.821z"/>
		<path clip-path="url(#SVG_CP_2)" fill="#FFFF80" fill-rule="evenodd" stroke="#CCCCCC" stroke-width="0.48011" stroke-miterlimit="10" stroke-linecap="round" stroke-linejoin="round" d="
			M96.02281,31.821L96.02281,11.96278L110.66628,11.96278L110.66628,31.821L96.02281,31.821z"/>
		<g font-family="'Arial'" font-size="1" kerning="0" font-weight="400" fill="#000000" clip-path="url(#SVG_CP_2)" >
			<text text-anchor="start" transform="matrix(12.00285 0 0 11.96278 106.58531 45.93709)" >
				<tspan direction="ltr" unicode-bidi="embed" x="0 ">1</tspan>
			</text>
		</g>
		<path clip-path="url(#SVG_CP_2)" fill="#FFE800" fill-rule="evenodd" stroke="#CCCCCC" stroke-width="0.48011" stroke-miterlimit="10" stroke-linecap="round" stroke-linejoin="round" d="
			M110.66628,31.821L110.66628,11.96278L125.30976,11.96278L125.30976,31.821L110.66628,31.821z"/>
		<path clip-path="url(#SVG_CP_2)" fill="#FFCEA3" fill-rule="evenodd" stroke="#CCCCCC" stroke-width="0.48011" stroke-miterlimit="10" stroke-linecap="round" stroke-linejoin="round" d="
			M125.30976,31.821L125.30976,11.96278L140.1933,11.96278L140.1933,31.821L125.30976,31.821z"/>
		<g font-family="'Arial'" font-size="1" kerning="0" font-weight="400" fill="#000000" clip-path="url(#SVG_CP_2)" >
			<text text-anchor="start" transform="matrix(12.00285 0 0 11.96278 136.11233 45.93709)" >
				<tspan direction="ltr" unicode-bidi="embed" x="0 ">2</tspan>
			</text>
		</g>
		<path clip-path="url(#SVG_CP_2)" fill="#F2A96D" fill-rule="evenodd" stroke="#CCCCCC" stroke-width="0.48011" stroke-miterlimit="10" stroke-linecap="round" stroke-linejoin="round" d="
			M140.1933,31.821L140.1933,11.96278L154.83677,11.96278L154.83677,31.821L140.1933,31.821z"/>
		<path clip-path="url(#SVG_CP_2)" fill="#E0853A" fill-rule="evenodd" stroke="#CCCCCC" stroke-width="0.48011" stroke-miterlimit="10" stroke-linecap="round" stroke-linejoin="round" d="
			M154.83677,31.821L154.83677,11.96278L169.48025,11.96278L169.48025,31.821L154.83677,31.821z"/>
		<g font-family="'Arial'" font-size="1" kerning="0" font-weight="400" fill="#000000" clip-path="url(#SVG_CP_2)" >
			<text text-anchor="start" transform="matrix(12.00285 0 0 11.96278 165.39928 45.93709)" >
				<tspan direction="ltr" unicode-bidi="embed" x="0 ">3</tspan>
			</text>
		</g>
		<path clip-path="url(#SVG_CP_2)" fill="#CC6600" fill-rule="evenodd" stroke="#CCCCCC" stroke-width="0.48011" stroke-miterlimit="10" stroke-linecap="round" stroke-linejoin="round" d="
			M169.48025,31.821L169.48025,11.96278L184.12373,11.96278L184.12373,31.821L169.48025,31.821z"/>
		<path clip-path="url(#SVG_CP_2)" fill="#FFB6B6" fill-rule="evenodd" stroke="#CCCCCC" stroke-width="0.48011" stroke-miterlimit="10" stroke-linecap="round" stroke-linejoin="round" d="
			M184.12373,31.821L184.12373,11.96278L199.00726,11.96278L199.00726,31.821L184.12373,31.821z"/>
		<g font-family="'Arial'" font-size="1" kerning="0" font-weight="400" fill="#000000" clip-path="url(#SVG_CP_2)" >
			<text text-anchor="start" transform="matrix(12.00285 0 0 11.96278 194.92629 45.93709)" >
				<tspan direction="ltr" unicode-bidi="embed" x="0 ">4</tspan>
			</text>
		</g>
		<path clip-path="url(#SVG_CP_2)" fill="#FF8282" fill-rule="evenodd" stroke="#CCCCCC" stroke-width="0.48011" stroke-miterlimit="10" stroke-linecap="round" stroke-linejoin="round" d="
			M199.00726,31.821L199.00726,11.96278L213.65074,11.96278L213.65074,31.821L199.00726,31.821z"/>
		<path clip-path="url(#SVG_CP_2)" fill="#FF5A5A" fill-rule="evenodd" stroke="#CCCCCC" stroke-width="0.48011" stroke-miterlimit="10" stroke-linecap="round" stroke-linejoin="round" d="
			M213.65074,31.821L213.65074,11.96278L228.29422,11.96278L228.29422,31.821L213.65074,31.821z"/>
		<g font-family="'Arial'" font-size="1" kerning="0" font-weight="400" fill="#000000" clip-path="url(#SVG_CP_2)" >
			<text text-anchor="start" transform="matrix(12.00285 0 0 11.96278 224.21325 45.93709)" >
				<tspan direction="ltr" unicode-bidi="embed" x="0 ">5</tspan>
			</text>
		</g>
		<path clip-path="url(#SVG_CP_2)" fill="#FF1414" fill-rule="evenodd" stroke="#CCCCCC" stroke-width="0.48011" stroke-miterlimit="10" stroke-linecap="round" stroke-linejoin="round" d="
			M228.29422,31.821L228.29422,11.96278L242.9377,11.96278L242.9377,31.821L228.29422,31.821z"/>
		<path clip-path="url(#SVG_CP_2)" fill="#FAA5D2" fill-rule="evenodd" stroke="#CCCCCC" stroke-width="0.48011" stroke-miterlimit="10" stroke-linecap="round" stroke-linejoin="round" d="
			M242.9377,31.821L242.9377,11.96278L257.82123,11.96278L257.82123,31.821L242.9377,31.821z"/>
		<g font-family="'Arial'" font-size="1" kerning="0" font-weight="400" fill="#000000" clip-path="url(#SVG_CP_2)" >
			<text text-anchor="start" transform="matrix(12.00285 0 0 11.96278 253.74026 45.93709)" >
				<tspan direction="ltr" unicode-bidi="embed" x="0 ">6</tspan>
			</text>
		</g>
		<path clip-path="url(#SVG_CP_2)" fill="#CF7CAE" fill-rule="evenodd" stroke="#CCCCCC" stroke-width="0.48011" stroke-miterlimit="10" stroke-linecap="round" stroke-linejoin="round" d="
			M257.82123,31.821L257.82123,11.96278L272.46471,11.96278L272.46471,31.821L257.82123,31.821z"/>
		<path clip-path="url(#SVG_CP_2)" fill="#9E4179" fill-rule="evenodd" stroke="#CCCCCC" stroke-width="0.48011" stroke-miterlimit="10" stroke-linecap="round" stroke-linejoin="round" d="
			M272.46471,31.821L272.46471,11.96278L287.10819,11.96278L287.10819,31.821L272.46471,31.821z"/>
		<g font-family="'Arial'" font-size="1" kerning="0" font-weight="400" fill="#000000" clip-path="url(#SVG_CP_2)" >
			<text text-anchor="start" transform="matrix(12.00285 0 0 11.96278 283.26728 45.93709)" >
				<tspan direction="ltr" unicode-bidi="embed" x="0 ">7</tspan>
			</text>
		</g>
		<path clip-path="url(#SVG_CP_2)" fill="#73004D" fill-rule="evenodd" stroke="#CCCCCC" stroke-width="0.48011" stroke-miterlimit="10" stroke-linecap="round" stroke-linejoin="round" d="
			M287.10819,31.821L287.10819,11.96278L301.99172,11.96278L301.99172,31.821L287.10819,31.821z"/>
		<path clip-path="url(#SVG_CP_2)" fill="#E9C8FF" fill-rule="evenodd" stroke="#CCCCCC" stroke-width="0.48011" stroke-miterlimit="10" stroke-linecap="round" stroke-linejoin="round" d="
			M301.99172,31.821L301.99172,11.96278L316.6352,11.96278L316.6352,31.821L301.99172,31.821z"/>
		<g font-family="'Arial'" font-size="1" kerning="0" font-weight="400" fill="#000000" clip-path="url(#SVG_CP_2)" >
			<text text-anchor="start" transform="matrix(12.00285 0 0 11.96278 312.55423 45.93709)" >
				<tspan direction="ltr" unicode-bidi="embed" x="0 ">8</tspan>
			</text>
		</g>
		<path clip-path="url(#SVG_CP_2)" fill="#B07ECC" fill-rule="evenodd" stroke="#CCCCCC" stroke-width="0.48011" stroke-miterlimit="10" stroke-linecap="round" stroke-linejoin="round" d="
			M316.6352,31.821L316.6352,11.96278L331.27868,11.96278L331.27868,31.821L316.6352,31.821z"/>
		<path clip-path="url(#SVG_CP_2)" fill="#7C419E" fill-rule="evenodd" stroke="#CCCCCC" stroke-width="0.48011" stroke-miterlimit="10" stroke-linecap="round" stroke-linejoin="round" d="
			M331.27868,31.821L331.27868,11.96278L345.92216,11.96278L345.92216,31.821L331.27868,31.821z"/>
		<g font-family="'Arial'" font-size="1" kerning="0" font-weight="400" fill="#000000" clip-path="url(#SVG_CP_2)" >
			<text text-anchor="start" transform="matrix(12.00285 0 0 11.96278 342.08124 45.93709)" >
				<tspan direction="ltr" unicode-bidi="embed" x="0 ">9</tspan>
			</text>
		</g>
		<path clip-path="url(#SVG_CP_2)" fill="#4D0073" fill-rule="evenodd" stroke="#CCCCCC" stroke-width="0.48011" stroke-miterlimit="10" stroke-linecap="round" stroke-linejoin="round" d="
			M345.92216,31.821L345.92216,11.96278L360.80569,11.96278L360.80569,31.821L345.92216,31.821z"/>
		<path clip-path="url(#SVG_CP_2)" fill="#DED9DB" fill-rule="evenodd" stroke="#CCCCCC" stroke-width="0.48011" stroke-miterlimit="10" stroke-linecap="round" stroke-linejoin="round" d="
			M360.80569,31.821L360.80569,11.96278L375.44917,11.96278L375.44917,31.821L360.80569,31.821z"/>
		<g font-family="'Arial'" font-size="1" kerning="0" font-weight="400" fill="#000000" clip-path="url(#SVG_CP_2)" >
			<text text-anchor="start" transform="matrix(12.00285 0 0 11.96278 364.6466 45.93709)" >
				<tspan direction="ltr" unicode-bidi="embed" x="0 ">1</tspan>
				<tspan direction="ltr" unicode-bidi="embed" x="0.5382 ">0</tspan>
			</text>
		</g>
		<path clip-path="url(#SVG_CP_2)" fill="#B4B3B7" fill-rule="evenodd" stroke="#CCCCCC" stroke-width="0.48011" stroke-miterlimit="10" stroke-linecap="round" stroke-linejoin="round" d="
			M375.44917,31.821L375.44917,11.96278L390.09265,11.96278L390.09265,31.821L375.44917,31.821z"/>
		<path clip-path="url(#SVG_CP_2)" fill="#858686" fill-rule="evenodd" stroke="#CCCCCC" stroke-width="0.48011" stroke-miterlimit="10" stroke-linecap="round" stroke-linejoin="round" d="
			M390.09265,31.821L390.09265,11.96278L404.73612,11.96278L404.73612,31.821L390.09265,31.821z"/>
		<g font-family="'Arial'" font-size="1" kerning="0" font-weight="400" fill="#000000" clip-path="url(#SVG_CP_2)" >
			<text text-anchor="start" transform="matrix(12.00285 0 0 11.96278 394.89379 45.93709)" >
				<tspan direction="ltr" unicode-bidi="embed" x="0 ">1</tspan>
				<tspan direction="ltr" unicode-bidi="embed" x="0.4784 ">1</tspan>
			</text>
		</g>
	</g>
</svg>
