<?xml version="1.0" encoding="utf-8" standalone="no"?>
<!-- Creator: Esri ArcMap 10.5.0.6491 -->
<!DOCTYPE svg PUBLIC "-//W3C//DTD SVG 1.1//EN"  "http://www.w3.org/Graphics/SVG/1.1/DTD/svg11.dtd">
<svg width="410.99528pt" height="57.00472pt" viewBox="0 0 410.99528 57.00472" enable-background="new 0 0 410.99528 57.00472"
	version="1.1" xmlns="http://www.w3.org/2000/svg" xmlns:xlink="http://www.w3.org/1999/xlink" >
	<g id="Other">
		<clipPath id="SVG_CP_1">
			<path d="M0,57.00472L0,0L410.99528,0L410.99528,57.00472L0,57.00472z"/>
		</clipPath>
		<path clip-path="url(#SVG_CP_1)" fill="#E31F1B" fill-rule="evenodd" stroke="#CCCCCC" stroke-width="0.48011" stroke-miterlimit="10" stroke-linecap="round" stroke-linejoin="round" d="
			M8.88211,33.25654L8.88211,13.15906L24.72587,13.15906L24.72587,33.25654L8.88211,33.25654z"/>
		<path clip-path="url(#SVG_CP_1)" fill="#ED462F" fill-rule="evenodd" stroke="#CCCCCC" stroke-width="0.48011" stroke-miterlimit="10" stroke-linecap="round" stroke-linejoin="round" d="
			M24.72587,33.25654L24.72587,13.15906L40.56964,13.15906L40.56964,33.25654L24.72587,33.25654z"/>
		<g font-family="'Arial'" font-size="1" kerning="0" font-weight="400" fill="#000000" clip-path="url(#SVG_CP_1)" >
			<text text-anchor="start" transform="matrix(12.00285 0 0 11.96278 15.12359 47.37262)" >
				<tspan direction="ltr" unicode-bidi="embed" x="0 ">-</tspan>
				<tspan direction="ltr" unicode-bidi="embed" x="0.31893 ">7</tspan>
				<tspan direction="ltr" unicode-bidi="embed" x="0.87706 ">0</tspan>
			</text>
		</g>
		<path clip-path="url(#SVG_CP_1)" fill="#F56245" fill-rule="evenodd" stroke="#CCCCCC" stroke-width="0.48011" stroke-miterlimit="10" stroke-linecap="round" stroke-linejoin="round" d="
			M40.56964,33.25654L40.56964,13.15906L56.4134,13.15906L56.4134,33.25654L40.56964,33.25654z"/>
		<path clip-path="url(#SVG_CP_1)" fill="#FC835D" fill-rule="evenodd" stroke="#CCCCCC" stroke-width="0.48011" stroke-miterlimit="10" stroke-linecap="round" stroke-linejoin="round" d="
			M56.4134,33.25654L56.4134,13.15906L72.25716,13.15906L72.25716,33.25654L56.4134,33.25654z"/>
		<clipPath id="SVG_CP_2">
			<path d="M0,57.00472L0,0L410.99528,0L410.99528,57.00472L0,57.00472z"/>
		</clipPath>
		<g font-family="'Arial'" font-size="1" kerning="0" font-weight="400" fill="#000000" clip-path="url(#SVG_CP_2)" >
			<text text-anchor="start" transform="matrix(12.00285 0 0 11.96278 46.81112 47.37262)" >
				<tspan direction="ltr" unicode-bidi="embed" x="0 ">-</tspan>
				<tspan direction="ltr" unicode-bidi="embed" x="0.31893 ">5</tspan>
				<tspan direction="ltr" unicode-bidi="embed" x="0.87706 ">0</tspan>
			</text>
		</g>
		<path clip-path="url(#SVG_CP_2)" fill="#FFA078" fill-rule="evenodd" stroke="#CCCCCC" stroke-width="0.48011" stroke-miterlimit="10" stroke-linecap="round" stroke-linejoin="round" d="
			M72.25716,33.25654L72.25716,13.15906L88.10092,13.15906L88.10092,33.25654L72.25716,33.25654z"/>
		<path clip-path="url(#SVG_CP_2)" fill="#FFBF96" fill-rule="evenodd" stroke="#CCCCCC" stroke-width="0.48011" stroke-miterlimit="10" stroke-linecap="round" stroke-linejoin="round" d="
			M88.10092,33.25654L88.10092,13.15906L103.70463,13.15906L103.70463,33.25654L88.10092,33.25654z"/>
		<g font-family="'Arial'" font-size="1" kerning="0" font-weight="400" fill="#000000" clip-path="url(#SVG_CP_2)" >
			<text text-anchor="start" transform="matrix(12.00285 0 0 11.96278 78.49864 47.37262)" >
				<tspan direction="ltr" unicode-bidi="embed" x="0 ">-</tspan>
				<tspan direction="ltr" unicode-bidi="embed" x="0.31893 ">3</tspan>
				<tspan direction="ltr" unicode-bidi="embed" x="0.87706 ">0</tspan>
			</text>
		</g>
		<path clip-path="url(#SVG_CP_2)" fill="#FFDFB8" fill-rule="evenodd" stroke="#CCCCCC" stroke-width="0.48011" stroke-miterlimit="10" stroke-linecap="round" stroke-linejoin="round" d="
			M103.70463,33.25654L103.70463,13.15906L119.54839,13.15906L119.54839,33.25654L103.70463,33.25654z"/>
		<path clip-path="url(#SVG_CP_2)" fill="#FFFFD9" fill-rule="evenodd" stroke="#CCCCCC" stroke-width="0.48011" stroke-miterlimit="10" stroke-linecap="round" stroke-linejoin="round" d="
			M119.54839,33.25654L119.54839,13.15906L135.39216,13.15906L135.39216,33.25654L119.54839,33.25654z"/>
		<g font-family="'Arial'" font-size="1" kerning="0" font-weight="400" fill="#000000" clip-path="url(#SVG_CP_2)" >
			<text text-anchor="start" transform="matrix(12.00285 0 0 11.96278 109.94611 47.37262)" >
				<tspan direction="ltr" unicode-bidi="embed" x="0 ">-</tspan>
				<tspan direction="ltr" unicode-bidi="embed" x="0.31893 ">1</tspan>
				<tspan direction="ltr" unicode-bidi="embed" x="0.87706 ">0</tspan>
			</text>
		</g>
		<path clip-path="url(#SVG_CP_2)" fill="#FFFFFF" fill-rule="evenodd" stroke="#CCCCCC" stroke-width="0.48011" stroke-miterlimit="10" stroke-linecap="round" stroke-linejoin="round" d="
			M135.39216,33.25654L135.39216,13.15906L151.23592,13.15906L151.23592,33.25654L135.39216,33.25654z"/>
		<path clip-path="url(#SVG_CP_2)" fill="#D5FFD6" fill-rule="evenodd" stroke="#CCCCCC" stroke-width="0.48011" stroke-miterlimit="10" stroke-linecap="round" stroke-linejoin="round" d="
			M151.23592,33.25654L151.23592,13.15906L167.07968,13.15906L167.07968,33.25654L151.23592,33.25654z"/>
		<g font-family="'Arial'" font-size="1" kerning="0" font-weight="400" fill="#000000" clip-path="url(#SVG_CP_2)" >
			<text text-anchor="start" transform="matrix(12.00285 0 0 11.96278 139.95324 47.85113)" >
				<tspan direction="ltr" unicode-bidi="embed" x="0 ">0</tspan>
			</text>
		</g>
		<path clip-path="url(#SVG_CP_2)" fill="#B0EBBB" fill-rule="evenodd" stroke="#CCCCCC" stroke-width="0.48011" stroke-miterlimit="10" stroke-linecap="round" stroke-linejoin="round" d="
			M167.07968,33.25654L167.07968,13.15906L182.92344,13.15906L182.92344,33.25654L167.07968,33.25654z"/>
		<g font-family="'Arial'" font-size="1" kerning="0" font-weight="400" fill="#000000" clip-path="url(#SVG_CP_2)" >
			<text text-anchor="start" transform="matrix(12.00285 0 0 11.96278 161.55837 47.37262)" >
				<tspan direction="ltr" unicode-bidi="embed" x="0 ">1</tspan>
				<tspan direction="ltr" unicode-bidi="embed" x="0.5382 ">0</tspan>
			</text>
		</g>
		<path clip-path="url(#SVG_CP_2)" fill="#8DD9A9" fill-rule="evenodd" stroke="#CCCCCC" stroke-width="0.48011" stroke-miterlimit="10" stroke-linecap="round" stroke-linejoin="round" d="
			M182.92344,33.25654L182.92344,13.15906L198.52715,13.15906L198.52715,33.25654L182.92344,33.25654z"/>
		<path clip-path="url(#SVG_CP_2)" fill="#6FC7A0" fill-rule="evenodd" stroke="#CCCCCC" stroke-width="0.48011" stroke-miterlimit="10" stroke-linecap="round" stroke-linejoin="round" d="
			M198.52715,33.25654L198.52715,13.15906L214.37091,13.15906L214.37091,33.25654L198.52715,33.25654z"/>
		<g font-family="'Arial'" font-size="1" kerning="0" font-weight="400" fill="#000000" clip-path="url(#SVG_CP_2)" >
			<text text-anchor="start" transform="matrix(12.00285 0 0 11.96278 193.2459 47.37262)" >
				<tspan direction="ltr" unicode-bidi="embed" x="0 ">3</tspan>
				<tspan direction="ltr" unicode-bidi="embed" x="0.5382 ">0</tspan>
			</text>
		</g>
		<path clip-path="url(#SVG_CP_2)" fill="#52B399" fill-rule="evenodd" stroke="#CCCCCC" stroke-width="0.48011" stroke-miterlimit="10" stroke-linecap="round" stroke-linejoin="round" d="
			M214.37091,33.25654L214.37091,13.15906L230.21468,13.15906L230.21468,33.25654L214.37091,33.25654z"/>
		<path clip-path="url(#SVG_CP_2)" fill="#3AA198" fill-rule="evenodd" stroke="#CCCCCC" stroke-width="0.48011" stroke-miterlimit="10" stroke-linecap="round" stroke-linejoin="round" d="
			M230.21468,33.25654L230.21468,13.15906L246.05844,13.15906L246.05844,33.25654L230.21468,33.25654z"/>
		<g font-family="'Arial'" font-size="1" kerning="0" font-weight="400" fill="#000000" clip-path="url(#SVG_CP_2)" >
			<text text-anchor="start" transform="matrix(12.00285 0 0 11.96278 224.69336 47.37262)" >
				<tspan direction="ltr" unicode-bidi="embed" x="0 ">5</tspan>
				<tspan direction="ltr" unicode-bidi="embed" x="0.5382 ">0</tspan>
			</text>
		</g>
		<path clip-path="url(#SVG_CP_2)" fill="#25848E" fill-rule="evenodd" stroke="#CCCCCC" stroke-width="0.48011" stroke-miterlimit="10" stroke-linecap="round" stroke-linejoin="round" d="
			M246.05844,33.25654L246.05844,13.15906L261.9022,13.15906L261.9022,33.25654L246.05844,33.25654z"/>
		<path clip-path="url(#SVG_CP_2)" fill="#29788E" fill-rule="evenodd" stroke="#CCCCCC" stroke-width="0.48011" stroke-miterlimit="10" stroke-linecap="round" stroke-linejoin="round" d="
			M261.9022,33.25654L261.9022,13.15906L277.74596,13.15906L277.74596,33.25654L261.9022,33.25654z"/>
		<g font-family="'Arial'" font-size="1" kerning="0" font-weight="400" fill="#000000" clip-path="url(#SVG_CP_2)" >
			<text text-anchor="start" transform="matrix(12.00285 0 0 11.96278 256.38089 47.37262)" >
				<tspan direction="ltr" unicode-bidi="embed" x="0 ">7</tspan>
				<tspan direction="ltr" unicode-bidi="embed" x="0.5382 ">0</tspan>
			</text>
		</g>
		<path clip-path="url(#SVG_CP_2)" fill="#2E6C8E" fill-rule="evenodd" stroke="#CCCCCC" stroke-width="0.48011" stroke-miterlimit="10" stroke-linecap="round" stroke-linejoin="round" d="
			M277.74596,33.25654L277.74596,13.15906L293.58973,13.15906L293.58973,33.25654L277.74596,33.25654z"/>
		<path clip-path="url(#SVG_CP_2)" fill="#345F8D" fill-rule="evenodd" stroke="#CCCCCC" stroke-width="0.48011" stroke-miterlimit="10" stroke-linecap="round" stroke-linejoin="round" d="
			M293.58973,33.25654L293.58973,13.15906L309.19343,13.15906L309.19343,33.25654L293.58973,33.25654z"/>
		<g font-family="'Arial'" font-size="1" kerning="0" font-weight="400" fill="#000000" clip-path="url(#SVG_CP_2)" >
			<text text-anchor="start" transform="matrix(12.00285 0 0 11.96278 288.06842 47.37262)" >
				<tspan direction="ltr" unicode-bidi="embed" x="0 ">9</tspan>
				<tspan direction="ltr" unicode-bidi="embed" x="0.5382 ">0</tspan>
			</text>
		</g>
		<path clip-path="url(#SVG_CP_2)" fill="#3A528B" fill-rule="evenodd" stroke="#CCCCCC" stroke-width="0.48011" stroke-miterlimit="10" stroke-linecap="round" stroke-linejoin="round" d="
			M309.19343,33.25654L309.19343,13.15906L325.0372,13.15906L325.0372,33.25654L309.19343,33.25654z"/>
		<path clip-path="url(#SVG_CP_2)" fill="#404387" fill-rule="evenodd" stroke="#CCCCCC" stroke-width="0.48011" stroke-miterlimit="10" stroke-linecap="round" stroke-linejoin="round" d="
			M325.0372,33.25654L325.0372,13.15906L340.88096,13.15906L340.88096,33.25654L325.0372,33.25654z"/>
		<g font-family="'Arial'" font-size="1" kerning="0" font-weight="400" fill="#000000" clip-path="url(#SVG_CP_2)" >
			<text text-anchor="start" transform="matrix(12.00285 0 0 11.96278 313.75452 47.37262)" >
				<tspan direction="ltr" unicode-bidi="embed" x="0 ">1</tspan>
				<tspan direction="ltr" unicode-bidi="embed" x="0.4784 ">1</tspan>
				<tspan direction="ltr" unicode-bidi="embed" x="1.03653 ">0</tspan>
			</text>
		</g>
		<path clip-path="url(#SVG_CP_2)" fill="#453480" fill-rule="evenodd" stroke="#CCCCCC" stroke-width="0.48011" stroke-miterlimit="10" stroke-linecap="round" stroke-linejoin="round" d="
			M340.88096,33.25654L340.88096,13.15906L356.72472,13.15906L356.72472,33.25654L340.88096,33.25654z"/>
		<path clip-path="url(#SVG_CP_2)" fill="#482475" fill-rule="evenodd" stroke="#CCCCCC" stroke-width="0.48011" stroke-miterlimit="10" stroke-linecap="round" stroke-linejoin="round" d="
			M356.72472,33.25654L356.72472,13.15906L372.56848,13.15906L372.56848,33.25654L356.72472,33.25654z"/>
		<g font-family="'Arial'" font-size="1" kerning="0" font-weight="400" fill="#000000" clip-path="url(#SVG_CP_2)" >
			<text text-anchor="start" transform="matrix(12.00285 0 0 11.96278 344.48181 47.37262)" >
				<tspan direction="ltr" unicode-bidi="embed" x="0 ">1</tspan>
				<tspan direction="ltr" unicode-bidi="embed" x="0.5382 ">3</tspan>
				<tspan direction="ltr" unicode-bidi="embed" x="1.09633 ">0</tspan>
			</text>
		</g>
		<path clip-path="url(#SVG_CP_2)" fill="#471366" fill-rule="evenodd" stroke="#CCCCCC" stroke-width="0.48011" stroke-miterlimit="10" stroke-linecap="round" stroke-linejoin="round" d="
			M372.56848,33.25654L372.56848,13.15906L388.41225,13.15906L388.41225,33.25654L372.56848,33.25654z"/>
		<path clip-path="url(#SVG_CP_2)" fill="#440154" fill-rule="evenodd" stroke="#CCCCCC" stroke-width="0.48011" stroke-miterlimit="10" stroke-linecap="round" stroke-linejoin="round" d="
			M388.41225,33.25654L388.41225,13.15906L404.01595,13.15906L404.01595,33.25654L388.41225,33.25654z"/>
		<g font-family="'Arial'" font-size="1" kerning="0" font-weight="400" fill="#000000" clip-path="url(#SVG_CP_2)" >
			<text text-anchor="start" transform="matrix(12.00285 0 0 11.96278 376.16934 47.37262)" >
				<tspan direction="ltr" unicode-bidi="embed" x="0 ">1</tspan>
				<tspan direction="ltr" unicode-bidi="embed" x="0.5382 ">5</tspan>
				<tspan direction="ltr" unicode-bidi="embed" x="1.09633 ">0</tspan>
			</text>
		</g>
	</g>
</svg>
