<?xml version="1.0" encoding="utf-8" standalone="no"?>
<!-- Creator: Esri ArcMap 10.5.0.6491 -->
<!DOCTYPE svg PUBLIC "-//W3C//DTD SVG 1.1//EN"  "http://www.w3.org/Graphics/SVG/1.1/DTD/svg11.dtd">
<svg width="410.99528pt" height="57.00472pt" viewBox="0 0 410.99528 57.00472" enable-background="new 0 0 410.99528 57.00472"
	version="1.1" xmlns="http://www.w3.org/2000/svg" xmlns:xlink="http://www.w3.org/1999/xlink" >
	<g id="Other">
		<clipPath id="SVG_CP_1">
			<path d="M0,57.00472L0,0L410.99528,0L410.99528,57.00472L0,57.00472z"/>
		</clipPath>
		<path clip-path="url(#SVG_CP_1)" fill="#E31F1B" fill-rule="evenodd" stroke="none" d="M16.32388,29.90696L16.32388,7.41693
			L32.4077,7.41693L32.4077,29.90696L16.32388,29.90696z"/>
		<g font-family="'Arial'" font-size="1" kerning="0" font-weight="400" fill="#FFFFFF" clip-path="url(#SVG_CP_1)" >
			<text text-anchor="start" transform="matrix(12.00285 0 0 11.96278 6.96165 44.2623)" >
				<tspan direction="ltr" unicode-bidi="embed" x="0 ">-</tspan>
				<tspan direction="ltr" unicode-bidi="embed" x="0.31893 ">8</tspan>
				<tspan direction="ltr" unicode-bidi="embed" x="0.87706 ">0</tspan>
			</text>
		</g>
		<path clip-path="url(#SVG_CP_1)" fill="#ED462F" fill-rule="evenodd" stroke="none" d="M32.4077,29.90696L32.4077,7.41693L48.25146,7.41693
			L48.25146,29.90696L32.4077,29.90696z"/>
		<path clip-path="url(#SVG_CP_1)" fill="#F56245" fill-rule="evenodd" stroke="none" d="M48.25146,29.90696L48.25146,7.41693
			L64.09522,7.41693L64.09522,29.90696L48.25146,29.90696z"/>
		<clipPath id="SVG_CP_2">
			<path d="M0,57.00472L0,0L410.99528,0L410.99528,57.00472L0,57.00472z"/>
		</clipPath>
		<g font-family="'Arial'" font-size="1" kerning="0" font-weight="400" fill="#FFFFFF" clip-path="url(#SVG_CP_2)" >
			<text text-anchor="start" transform="matrix(12.00285 0 0 11.96278 38.64918 44.2623)" >
				<tspan direction="ltr" unicode-bidi="embed" x="0 ">-</tspan>
				<tspan direction="ltr" unicode-bidi="embed" x="0.31893 ">6</tspan>
				<tspan direction="ltr" unicode-bidi="embed" x="0.87706 ">0</tspan>
			</text>
		</g>
		<path clip-path="url(#SVG_CP_2)" fill="#FC835D" fill-rule="evenodd" stroke="none" d="M64.09522,29.90696L64.09522,7.41693
			L80.17904,7.41693L80.17904,29.90696L64.09522,29.90696z"/>
		<path clip-path="url(#SVG_CP_2)" fill="#FFA078" fill-rule="evenodd" stroke="none" d="M80.17904,29.90696L80.17904,7.41693
			L96.02281,7.41693L96.02281,29.90696L80.17904,29.90696z"/>
		<g font-family="'Arial'" font-size="1" kerning="0" font-weight="400" fill="#FFFFFF" clip-path="url(#SVG_CP_2)" >
			<text text-anchor="start" transform="matrix(12.00285 0 0 11.96278 70.57676 44.2623)" >
				<tspan direction="ltr" unicode-bidi="embed" x="0 ">-</tspan>
				<tspan direction="ltr" unicode-bidi="embed" x="0.31893 ">4</tspan>
				<tspan direction="ltr" unicode-bidi="embed" x="0.87706 ">0</tspan>
			</text>
		</g>
		<path clip-path="url(#SVG_CP_2)" fill="#FFBF96" fill-rule="evenodd" stroke="none" d="M96.02281,29.90696L96.02281,7.41693
			L112.10663,7.41693L112.10663,29.90696L96.02281,29.90696z"/>
		<path clip-path="url(#SVG_CP_2)" fill="#FFDFB8" fill-rule="evenodd" stroke="none" d="M112.10663,29.90696L112.10663,7.41693
			L127.95039,7.41693L127.95039,29.90696L112.10663,29.90696z"/>
		<g font-family="'Arial'" font-size="1" kerning="0" font-weight="400" fill="#FFFFFF" clip-path="url(#SVG_CP_2)" >
			<text text-anchor="start" transform="matrix(12.00285 0 0 11.96278 102.50434 44.2623)" >
				<tspan direction="ltr" unicode-bidi="embed" x="0 ">-</tspan>
				<tspan direction="ltr" unicode-bidi="embed" x="0.31893 ">2</tspan>
				<tspan direction="ltr" unicode-bidi="embed" x="0.87706 ">0</tspan>
			</text>
		</g>
		<path clip-path="url(#SVG_CP_2)" fill="#FFFFD9" fill-rule="evenodd" stroke="none" d="M127.95039,29.90696L127.95039,7.41693
			L143.79415,7.41693L143.79415,29.90696L127.95039,29.90696z"/>
		<path clip-path="url(#SVG_CP_2)" fill="#D5FFD6" fill-rule="evenodd" stroke="none" d="M143.79415,29.90696L143.79415,7.41693
			L159.87797,7.41693L159.87797,29.90696L143.79415,29.90696z"/>
		<g font-family="'Arial'" font-size="1" kerning="0" font-weight="400" fill="#FFFFFF" clip-path="url(#SVG_CP_2)" >
			<text text-anchor="start" transform="matrix(12.00285 0 0 11.96278 145.23449 44.2623)" >
				<tspan direction="ltr" unicode-bidi="embed" x="0 ">0</tspan>
			</text>
		</g>
		<path clip-path="url(#SVG_CP_2)" fill="#B0EBBB" fill-rule="evenodd" stroke="none" d="M159.87797,29.90696L159.87797,7.41693
			L175.72173,7.41693L175.72173,29.90696L159.87797,29.90696z"/>
		<path clip-path="url(#SVG_CP_2)" fill="#8DD9A9" fill-rule="evenodd" stroke="none" d="M175.72173,29.90696L175.72173,7.41693
			L191.5655,7.41693L191.5655,29.90696L175.72173,29.90696z"/>
		<g font-family="'Arial'" font-size="1" kerning="0" font-weight="400" fill="#FFFFFF" clip-path="url(#SVG_CP_2)" >
			<text text-anchor="start" transform="matrix(12.00285 0 0 11.96278 170.20042 44.2623)" >
				<tspan direction="ltr" unicode-bidi="embed" x="0 ">2</tspan>
				<tspan direction="ltr" unicode-bidi="embed" x="0.5382 ">0</tspan>
			</text>
		</g>
		<path clip-path="url(#SVG_CP_2)" fill="#6FC7A0" fill-rule="evenodd" stroke="none" d="M191.5655,29.90696L191.5655,7.41693
			L207.64932,7.41693L207.64932,29.90696L191.5655,29.90696z"/>
		<path clip-path="url(#SVG_CP_2)" fill="#52B399" fill-rule="evenodd" stroke="none" d="M207.64932,29.90696L207.64932,7.41693
			L223.49308,7.41693L223.49308,29.90696L207.64932,29.90696z"/>
		<g font-family="'Arial'" font-size="1" kerning="0" font-weight="400" fill="#FFFFFF" clip-path="url(#SVG_CP_2)" >
			<text text-anchor="start" transform="matrix(12.00285 0 0 11.96278 202.128 44.2623)" >
				<tspan direction="ltr" unicode-bidi="embed" x="0 ">4</tspan>
				<tspan direction="ltr" unicode-bidi="embed" x="0.5382 ">0</tspan>
			</text>
		</g>
		<path clip-path="url(#SVG_CP_2)" fill="#3AA198" fill-rule="evenodd" stroke="none" d="M223.49308,29.90696L223.49308,7.41693
			L239.5769,7.41693L239.5769,29.90696L223.49308,29.90696z"/>
		<path clip-path="url(#SVG_CP_2)" fill="#25848E" fill-rule="evenodd" stroke="none" d="M239.5769,29.90696L239.5769,7.41693
			L255.42066,7.41693L255.42066,29.90696L239.5769,29.90696z"/>
		<g font-family="'Arial'" font-size="1" kerning="0" font-weight="400" fill="#FFFFFF" clip-path="url(#SVG_CP_2)" >
			<text text-anchor="start" transform="matrix(12.00285 0 0 11.96278 234.05559 44.2623)" >
				<tspan direction="ltr" unicode-bidi="embed" x="0 ">6</tspan>
				<tspan direction="ltr" unicode-bidi="embed" x="0.5382 ">0</tspan>
			</text>
		</g>
		<path clip-path="url(#SVG_CP_2)" fill="#29788E" fill-rule="evenodd" stroke="none" d="M255.42066,29.90696L255.42066,7.41693
			L271.26442,7.41693L271.26442,29.90696L255.42066,29.90696z"/>
		<path clip-path="url(#SVG_CP_2)" fill="#2E6C8E" fill-rule="evenodd" stroke="none" d="M271.26442,29.90696L271.26442,7.41693
			L287.34824,7.41693L287.34824,29.90696L271.26442,29.90696z"/>
		<g font-family="'Arial'" font-size="1" kerning="0" font-weight="400" fill="#FFFFFF" clip-path="url(#SVG_CP_2)" >
			<text text-anchor="start" transform="matrix(12.00285 0 0 11.96278 265.98317 44.2623)" >
				<tspan direction="ltr" unicode-bidi="embed" x="0 ">8</tspan>
				<tspan direction="ltr" unicode-bidi="embed" x="0.5382 ">0</tspan>
			</text>
		</g>
		<path clip-path="url(#SVG_CP_2)" fill="#345F8D" fill-rule="evenodd" stroke="none" d="M287.34824,29.90696L287.34824,7.41693
			L303.19201,7.41693L303.19201,29.90696L287.34824,29.90696z"/>
		<path clip-path="url(#SVG_CP_2)" fill="#3A528B" fill-rule="evenodd" stroke="none" d="M303.19201,29.90696L303.19201,7.41693
			L319.27583,7.41693L319.27583,29.90696L303.19201,29.90696z"/>
		<g font-family="'Arial'" font-size="1" kerning="0" font-weight="400" fill="#FFFFFF" clip-path="url(#SVG_CP_2)" >
			<text text-anchor="start" transform="matrix(12.00285 0 0 11.96278 290.9491 44.2623)" >
				<tspan direction="ltr" unicode-bidi="embed" x="0 ">1</tspan>
				<tspan direction="ltr" unicode-bidi="embed" x="0.5382 ">0</tspan>
				<tspan direction="ltr" unicode-bidi="embed" x="1.09633 ">0</tspan>
			</text>
		</g>
		<path clip-path="url(#SVG_CP_2)" fill="#404387" fill-rule="evenodd" stroke="none" d="M319.27583,29.90696L319.27583,7.41693
			L335.11959,7.41693L335.11959,29.90696L319.27583,29.90696z"/>
		<path clip-path="url(#SVG_CP_2)" fill="#453480" fill-rule="evenodd" stroke="none" d="M335.11959,29.90696L335.11959,7.41693
			L350.96335,7.41693L350.96335,29.90696L335.11959,29.90696z"/>
		<g font-family="'Arial'" font-size="1" kerning="0" font-weight="400" fill="#FFFFFF" clip-path="url(#SVG_CP_2)" >
			<text text-anchor="start" transform="matrix(12.00285 0 0 11.96278 322.87668 44.2623)" >
				<tspan direction="ltr" unicode-bidi="embed" x="0 ">1</tspan>
				<tspan direction="ltr" unicode-bidi="embed" x="0.5382 ">2</tspan>
				<tspan direction="ltr" unicode-bidi="embed" x="1.09633 ">0</tspan>
			</text>
		</g>
		<path clip-path="url(#SVG_CP_2)" fill="#482475" fill-rule="evenodd" stroke="none" d="M350.96335,29.90696L350.96335,7.41693
			L367.04717,7.41693L367.04717,29.90696L350.96335,29.90696z"/>
		<path clip-path="url(#SVG_CP_2)" fill="#471366" fill-rule="evenodd" stroke="none" d="M367.04717,29.90696L367.04717,7.41693
			L382.89094,7.41693L382.89094,29.90696L367.04717,29.90696z"/>
		<g font-family="'Arial'" font-size="1" kerning="0" font-weight="400" fill="#FFFFFF" clip-path="url(#SVG_CP_2)" >
			<text text-anchor="start" transform="matrix(12.00285 0 0 11.96278 354.80426 44.2623)" >
				<tspan direction="ltr" unicode-bidi="embed" x="0 ">1</tspan>
				<tspan direction="ltr" unicode-bidi="embed" x="0.5382 ">4</tspan>
				<tspan direction="ltr" unicode-bidi="embed" x="1.09633 ">0</tspan>
			</text>
		</g>
		<path clip-path="url(#SVG_CP_2)" fill="#440154" fill-rule="evenodd" stroke="none" d="M382.89094,29.90696L382.89094,7.41693
			L398.7347,7.41693L398.7347,29.90696L382.89094,29.90696z"/>
	</g>
</svg>
