<?xml version="1.0" encoding="utf-8" standalone="no"?>
<!-- Creator: Esri ArcMap 10.5.0.6491 -->
<!DOCTYPE svg PUBLIC "-//W3C//DTD SVG 1.1//EN"  "http://www.w3.org/Graphics/SVG/1.1/DTD/svg11.dtd">
<svg width="405.01417pt" height="42.74646pt" viewBox="0 0 405.01417 42.74646" enable-background="new 0 0 405.01417 42.74646"
	version="1.1" xmlns="http://www.w3.org/2000/svg" xmlns:xlink="http://www.w3.org/1999/xlink" >
	<g id="Other">
		<clipPath id="SVG_CP_1">
			<path d="M0,42.74646L0,0L405.01417,0L405.01417,42.74646L0,42.74646z"/>
		</clipPath>
		<g font-family="'Arial'" font-size="1" kerning="0" font-weight="400" fill="#FFFFFF" clip-path="url(#SVG_CP_1)" >
			<text text-anchor="start" transform="matrix(11.998 0 0 12.0027 25.43575 36.00811)" >
				<tspan direction="ltr" unicode-bidi="embed" x="0 ">-</tspan>
				<tspan direction="ltr" unicode-bidi="embed" x="0.32013 ">0</tspan>
				<tspan direction="ltr" unicode-bidi="embed" x="0.88035 ">,</tspan>
				<tspan direction="ltr" unicode-bidi="embed" x="1.16046 ">2</tspan>
			</text>
		</g>
		<g font-family="'Arial'" font-size="1" kerning="0" font-weight="400" fill="#FFFFFF" clip-path="url(#SVG_CP_1)" >
			<text text-anchor="start" transform="matrix(11.998 0 0 12.0027 87.3454 36.48822)" >
				<tspan direction="ltr" unicode-bidi="embed" x="0 ">0</tspan>
			</text>
		</g>
		<g font-family="'Arial'" font-size="1" kerning="0" font-weight="400" fill="#FFFFFF" clip-path="url(#SVG_CP_1)" >
			<text text-anchor="start" transform="matrix(11.998 0 0 12.0027 142.53618 37.44844)" >
				<tspan direction="ltr" unicode-bidi="embed" x="0 ">0</tspan>
				<tspan direction="ltr" unicode-bidi="embed" x="0.56022 ">,</tspan>
				<tspan direction="ltr" unicode-bidi="embed" x="0.84033 ">2</tspan>
			</text>
		</g>
		<g font-family="'Arial'" font-size="1" kerning="0" font-weight="400" fill="#FFFFFF" clip-path="url(#SVG_CP_1)" >
			<text text-anchor="start" transform="matrix(11.998 0 0 12.0027 214.52415 35.0479)" >
				<tspan direction="ltr" unicode-bidi="embed" x="0 ">0</tspan>
				<tspan direction="ltr" unicode-bidi="embed" x="0.56022 ">,</tspan>
				<tspan direction="ltr" unicode-bidi="embed" x="0.84033 ">6</tspan>
			</text>
		</g>
		<g font-family="'Arial'" font-size="1" kerning="0" font-weight="400" fill="#FFFFFF" clip-path="url(#SVG_CP_1)" >
			<text text-anchor="start" transform="matrix(11.998 0 0 12.0027 290.8314 36.48822)" >
				<tspan direction="ltr" unicode-bidi="embed" x="0 ">1</tspan>
			</text>
		</g>
		<g font-family="'Arial'" font-size="1" kerning="0" font-weight="400" fill="#FFFFFF" clip-path="url(#SVG_CP_1)" >
			<text text-anchor="start" transform="matrix(11.998 0 0 12.0027 356.58041 36.48822)" >
				<tspan direction="ltr" unicode-bidi="embed" x="0 ">1</tspan>
				<tspan direction="ltr" unicode-bidi="embed" x="0.56022 ">,</tspan>
				<tspan direction="ltr" unicode-bidi="embed" x="0.84033 ">4</tspan>
			</text>
		</g>
		<path clip-path="url(#SVG_CP_1)" fill="#94DCD1" fill-rule="evenodd" stroke="#CCCCCC" stroke-width="0.47992" stroke-miterlimit="10" stroke-linecap="round" stroke-linejoin="round" d="
			M4.31928,23.5253L4.31928,3.36076L40.31326,3.36076L40.31326,23.5253L4.31928,23.5253z"/>
		<path clip-path="url(#SVG_CP_1)" fill="#CCF9E7" fill-rule="evenodd" stroke="#CCCCCC" stroke-width="0.47992" stroke-miterlimit="10" stroke-linecap="round" stroke-linejoin="round" d="
			M40.31326,23.5253L40.31326,3.36076L76.30725,3.36076L76.30725,23.5253L40.31326,23.5253z"/>
		<path clip-path="url(#SVG_CP_1)" fill="#FEFFFF" fill-rule="evenodd" stroke="#CCCCCC" stroke-width="0.47992" stroke-miterlimit="10" stroke-linecap="round" stroke-linejoin="round" d="
			M76.30725,23.5253L76.30725,3.36076L112.30123,3.36076L112.30123,23.5253L76.30725,23.5253z"/>
		<path clip-path="url(#SVG_CP_1)" fill="#FCD1D8" fill-rule="evenodd" stroke="#CCCCCC" stroke-width="0.47992" stroke-miterlimit="10" stroke-linecap="round" stroke-linejoin="round" d="
			M112.30123,23.5253L112.30123,3.36076L148.29522,3.36076L148.29522,23.5253L112.30123,23.5253z"/>
		<path clip-path="url(#SVG_CP_1)" fill="#FAADD3" fill-rule="evenodd" stroke="#CCCCCC" stroke-width="0.47992" stroke-miterlimit="10" stroke-linecap="round" stroke-linejoin="round" d="
			M148.29522,23.5253L148.29522,3.36076L184.2892,3.36076L184.2892,23.5253L148.29522,23.5253z"/>
		<path clip-path="url(#SVG_CP_1)" fill="#ED80D6" fill-rule="evenodd" stroke="#CCCCCC" stroke-width="0.47992" stroke-miterlimit="10" stroke-linecap="round" stroke-linejoin="round" d="
			M184.2892,23.5253L184.2892,3.36076L220.28319,3.36076L220.28319,23.5253L184.2892,23.5253z"/>
		<path clip-path="url(#SVG_CP_1)" fill="#C874B7" fill-rule="evenodd" stroke="#CCCCCC" stroke-width="0.47992" stroke-miterlimit="10" stroke-linecap="round" stroke-linejoin="round" d="
			M220.28319,23.5253L220.28319,3.36076L256.27717,3.36076L256.27717,23.5253L220.28319,23.5253z"/>
		<path clip-path="url(#SVG_CP_1)" fill="#8A69C3" fill-rule="evenodd" stroke="#CCCCCC" stroke-width="0.47992" stroke-miterlimit="10" stroke-linecap="round" stroke-linejoin="round" d="
			M256.27717,23.5253L256.27717,3.36076L292.75108,3.36076L292.75108,23.5253L256.27717,23.5253z"/>
		<path clip-path="url(#SVG_CP_1)" fill="#6A4BA8" fill-rule="evenodd" stroke="#CCCCCC" stroke-width="0.47992" stroke-miterlimit="10" stroke-linecap="round" stroke-linejoin="round" d="
			M292.75108,23.5253L292.75108,3.36076L328.74506,3.36076L328.74506,23.5253L292.75108,23.5253z"/>
		<path clip-path="url(#SVG_CP_1)" fill="#5E3485" fill-rule="evenodd" stroke="#CCCCCC" stroke-width="0.47992" stroke-miterlimit="10" stroke-linecap="round" stroke-linejoin="round" d="
			M328.74506,23.5253L328.74506,3.36076L364.73905,3.36076L364.73905,23.5253L328.74506,23.5253z"/>
		<path clip-path="url(#SVG_CP_1)" fill="#3B2699" fill-rule="evenodd" stroke="#CCCCCC" stroke-width="0.47992" stroke-miterlimit="10" stroke-linecap="round" stroke-linejoin="round" d="
			M364.73905,23.5253L364.73905,3.36076L400.73304,3.36076L400.73304,23.5253L364.73905,23.5253z"/>
	</g>
</svg>
