<?xml version="1.0" encoding="utf-8" standalone="no"?>
<!-- Creator: Esri ArcMap 10.5.0.6491 -->
<!DOCTYPE svg PUBLIC "-//W3C//DTD SVG 1.1//EN"  "http://www.w3.org/Graphics/SVG/1.1/DTD/svg11.dtd">
<svg width="405.01417pt" height="42.74646pt" viewBox="0 0 405.01417 42.74646" enable-background="new 0 0 405.01417 42.74646"
	version="1.1" xmlns="http://www.w3.org/2000/svg" xmlns:xlink="http://www.w3.org/1999/xlink" >
	<g id="Other">
		<clipPath id="SVG_CP_1">
			<path d="M0,42.74646L0,0L405.01417,0L405.01417,42.74646L0,42.74646z"/>
		</clipPath>
		<g font-family="'Arial'" font-size="1" kerning="0" font-weight="400" fill="#FFFFFF" clip-path="url(#SVG_CP_1)" >
			<text text-anchor="start" transform="matrix(11.998 0 0 12.0027 23.51607 37.92855)" >
				<tspan direction="ltr" unicode-bidi="embed" x="0 ">-</tspan>
				<tspan direction="ltr" unicode-bidi="embed" x="0.32013 ">0</tspan>
				<tspan direction="ltr" unicode-bidi="embed" x="0.88035 ">,</tspan>
				<tspan direction="ltr" unicode-bidi="embed" x="1.16046 ">1</tspan>
			</text>
		</g>
		<g font-family="'Arial'" font-size="1" kerning="0" font-weight="400" fill="#FFFFFF" clip-path="url(#SVG_CP_1)" >
			<text text-anchor="start" transform="matrix(11.998 0 0 12.0027 95.02412 37.92855)" >
				<tspan direction="ltr" unicode-bidi="embed" x="0 ">0</tspan>
			</text>
		</g>
		<g font-family="'Arial'" font-size="1" kerning="0" font-weight="400" fill="#FFFFFF" clip-path="url(#SVG_CP_1)" >
			<text text-anchor="start" transform="matrix(11.998 0 0 12.0027 142.05626 37.92855)" >
				<tspan direction="ltr" unicode-bidi="embed" x="0 ">0</tspan>
				<tspan direction="ltr" unicode-bidi="embed" x="0.56022 ">,</tspan>
				<tspan direction="ltr" unicode-bidi="embed" x="0.84033 ">1</tspan>
			</text>
		</g>
		<g font-family="'Arial'" font-size="1" kerning="0" font-weight="400" fill="#FFFFFF" clip-path="url(#SVG_CP_1)" >
			<text text-anchor="start" transform="matrix(11.998 0 0 12.0027 199.64664 37.92855)" >
				<tspan direction="ltr" unicode-bidi="embed" x="0 ">0</tspan>
				<tspan direction="ltr" unicode-bidi="embed" x="0.56022 ">,</tspan>
				<tspan direction="ltr" unicode-bidi="embed" x="0.84033 ">3</tspan>
			</text>
		</g>
		<g font-family="'Arial'" font-size="1" kerning="0" font-weight="400" fill="#FFFFFF" clip-path="url(#SVG_CP_1)" >
			<text text-anchor="start" transform="matrix(11.998 0 0 12.0027 256.75709 37.92855)" >
				<tspan direction="ltr" unicode-bidi="embed" x="0 ">0</tspan>
				<tspan direction="ltr" unicode-bidi="embed" x="0.56022 ">,</tspan>
				<tspan direction="ltr" unicode-bidi="embed" x="0.84033 ">5</tspan>
			</text>
		</g>
		<g font-family="'Arial'" font-size="1" kerning="0" font-weight="400" fill="#FFFFFF" clip-path="url(#SVG_CP_1)" >
			<text text-anchor="start" transform="matrix(11.998 0 0 12.0027 313.86755 37.92855)" >
				<tspan direction="ltr" unicode-bidi="embed" x="0 ">0</tspan>
				<tspan direction="ltr" unicode-bidi="embed" x="0.56022 ">,</tspan>
				<tspan direction="ltr" unicode-bidi="embed" x="0.84033 ">7</tspan>
			</text>
		</g>
		<g font-family="'Arial'" font-size="1" kerning="0" font-weight="400" fill="#FFFFFF" clip-path="url(#SVG_CP_1)" >
			<text text-anchor="start" transform="matrix(11.998 0 0 12.0027 370.97801 37.92855)" >
				<tspan direction="ltr" unicode-bidi="embed" x="0 ">0</tspan>
				<tspan direction="ltr" unicode-bidi="embed" x="0.56022 ">,</tspan>
				<tspan direction="ltr" unicode-bidi="embed" x="0.84033 ">9</tspan>
			</text>
		</g>
		<path clip-path="url(#SVG_CP_1)" fill="#4EABB3" fill-rule="evenodd" stroke="#CCCCCC" stroke-width="0.47992" stroke-miterlimit="10" stroke-linecap="round" stroke-linejoin="round" d="
			M1.91968,22.08498L1.91968,1.92043L30.71487,1.92043L30.71487,22.08498L1.91968,22.08498z"/>
		<path clip-path="url(#SVG_CP_1)" fill="#95D0CE" fill-rule="evenodd" stroke="#CCCCCC" stroke-width="0.47992" stroke-miterlimit="10" stroke-linecap="round" stroke-linejoin="round" d="
			M30.71487,22.08498L30.71487,1.92043L59.03014,1.92043L59.03014,22.08498L30.71487,22.08498z"/>
		<path clip-path="url(#SVG_CP_1)" fill="#BBE4E1" fill-rule="evenodd" stroke="#CCCCCC" stroke-width="0.47992" stroke-miterlimit="10" stroke-linecap="round" stroke-linejoin="round" d="
			M59.03014,22.08498L59.03014,1.92043L87.82532,1.92043L87.82532,22.08498L59.03014,22.08498z"/>
		<path clip-path="url(#SVG_CP_1)" fill="#FFFFFF" fill-rule="evenodd" stroke="#CCCCCC" stroke-width="0.47992" stroke-miterlimit="10" stroke-linecap="round" stroke-linejoin="round" d="
			M87.82532,22.08498L87.82532,1.92043L116.14059,1.92043L116.14059,22.08498L87.82532,22.08498z"/>
		<path clip-path="url(#SVG_CP_1)" fill="#FCD1D8" fill-rule="evenodd" stroke="#CCCCCC" stroke-width="0.47992" stroke-miterlimit="10" stroke-linecap="round" stroke-linejoin="round" d="
			M116.14059,22.08498L116.14059,1.92043L144.93578,1.92043L144.93578,22.08498L116.14059,22.08498z"/>
		<path clip-path="url(#SVG_CP_1)" fill="#FAADD3" fill-rule="evenodd" stroke="#CCCCCC" stroke-width="0.47992" stroke-miterlimit="10" stroke-linecap="round" stroke-linejoin="round" d="
			M144.93578,22.08498L144.93578,1.92043L173.73097,1.92043L173.73097,22.08498L144.93578,22.08498z"/>
		<path clip-path="url(#SVG_CP_1)" fill="#ED80D6" fill-rule="evenodd" stroke="#CCCCCC" stroke-width="0.47992" stroke-miterlimit="10" stroke-linecap="round" stroke-linejoin="round" d="
			M173.73097,22.08498L173.73097,1.92043L202.04624,1.92043L202.04624,22.08498L173.73097,22.08498z"/>
		<path clip-path="url(#SVG_CP_1)" fill="#C874B7" fill-rule="evenodd" stroke="#CCCCCC" stroke-width="0.47992" stroke-miterlimit="10" stroke-linecap="round" stroke-linejoin="round" d="
			M202.04624,22.08498L202.04624,1.92043L230.84143,1.92043L230.84143,22.08498L202.04624,22.08498z"/>
		<path clip-path="url(#SVG_CP_1)" fill="#8A69C3" fill-rule="evenodd" stroke="#CCCCCC" stroke-width="0.47992" stroke-miterlimit="10" stroke-linecap="round" stroke-linejoin="round" d="
			M230.84143,22.08498L230.84143,1.92043L259.15669,1.92043L259.15669,22.08498L230.84143,22.08498z"/>
		<path clip-path="url(#SVG_CP_1)" fill="#6A4BA8" fill-rule="evenodd" stroke="#CCCCCC" stroke-width="0.47992" stroke-miterlimit="10" stroke-linecap="round" stroke-linejoin="round" d="
			M259.15669,22.08498L259.15669,1.92043L287.95188,1.92043L287.95188,22.08498L259.15669,22.08498z"/>
		<path clip-path="url(#SVG_CP_1)" fill="#5E3485" fill-rule="evenodd" stroke="#CCCCCC" stroke-width="0.47992" stroke-miterlimit="10" stroke-linecap="round" stroke-linejoin="round" d="
			M287.95188,22.08498L287.95188,1.92043L316.74707,1.92043L316.74707,22.08498L287.95188,22.08498z"/>
		<path clip-path="url(#SVG_CP_1)" fill="#3B2662" fill-rule="evenodd" stroke="#CCCCCC" stroke-width="0.47992" stroke-miterlimit="10" stroke-linecap="round" stroke-linejoin="round" d="
			M316.74707,22.08498L316.74707,1.92043L345.06234,1.92043L345.06234,22.08498L316.74707,22.08498z"/>
		<path clip-path="url(#SVG_CP_1)" fill="#B4B3B7" fill-rule="evenodd" stroke="#CCCCCC" stroke-width="0.47992" stroke-miterlimit="10" stroke-linecap="round" stroke-linejoin="round" d="
			M345.06234,22.08498L345.06234,1.92043L373.85753,1.92043L373.85753,22.08498L345.06234,22.08498z"/>
		<path clip-path="url(#SVG_CP_1)" fill="#858686" fill-rule="evenodd" stroke="#CCCCCC" stroke-width="0.47992" stroke-miterlimit="10" stroke-linecap="round" stroke-linejoin="round" d="
			M373.85753,22.08498L373.85753,1.92043L402.17279,1.92043L402.17279,22.08498L373.85753,22.08498z"/>
	</g>
</svg>
