<?xml version="1.0" encoding="utf-8" standalone="no"?>
<!-- Creator: Esri ArcMap 10.5.0.6491 -->
<!DOCTYPE svg PUBLIC "-//W3C//DTD SVG 1.1//EN"  "http://www.w3.org/Graphics/SVG/1.1/DTD/svg11.dtd">
<svg width="410.99528pt" height="57.00472pt" viewBox="0 0 410.99528 57.00472" enable-background="new 0 0 410.99528 57.00472"
	version="1.1" xmlns="http://www.w3.org/2000/svg" xmlns:xlink="http://www.w3.org/1999/xlink" >
	<g id="Other">
		<clipPath id="SVG_CP_1">
			<path d="M0,57.00472L0,0L410.99528,0L410.99528,57.00472L0,57.00472z"/>
		</clipPath>
		<g font-family="'Arial'" font-size="1" kerning="0" font-weight="400" fill="#FFFFFF" clip-path="url(#SVG_CP_1)" >
			<text text-anchor="start" transform="matrix(12.00285 0 0 11.96278 5.28125 49.76518)" >
				<tspan direction="ltr" unicode-bidi="embed" x="0 ">-</tspan>
				<tspan direction="ltr" unicode-bidi="embed" x="0.31893 ">1</tspan>
				<tspan direction="ltr" unicode-bidi="embed" x="0.87706 ">0</tspan>
				<tspan direction="ltr" unicode-bidi="embed" x="1.43519 ">0</tspan>
			</text>
		</g>
		<g font-family="'Arial'" font-size="1" kerning="0" font-weight="400" fill="#FFFFFF" clip-path="url(#SVG_CP_1)" >
			<text text-anchor="start" transform="matrix(12.00285 0 0 11.96278 47.77135 49.76518)" >
				<tspan direction="ltr" unicode-bidi="embed" x="0 ">-</tspan>
				<tspan direction="ltr" unicode-bidi="embed" x="0.31893 ">6</tspan>
				<tspan direction="ltr" unicode-bidi="embed" x="0.87706 ">0</tspan>
			</text>
		</g>
		<g font-family="'Arial'" font-size="1" kerning="0" font-weight="400" fill="#FFFFFF" clip-path="url(#SVG_CP_1)" >
			<text text-anchor="start" transform="matrix(12.00285 0 0 11.96278 83.7799 49.76518)" >
				<tspan direction="ltr" unicode-bidi="embed" x="0 ">-</tspan>
				<tspan direction="ltr" unicode-bidi="embed" x="0.31893 ">2</tspan>
				<tspan direction="ltr" unicode-bidi="embed" x="0.87706 ">0</tspan>
			</text>
		</g>
		<g font-family="'Arial'" font-size="1" kerning="0" font-weight="400" fill="#FFFFFF" clip-path="url(#SVG_CP_1)" >
			<text text-anchor="start" transform="matrix(12.00285 0 0 11.96278 116.66771 49.76518)" >
				<tspan direction="ltr" unicode-bidi="embed" x="0 ">0</tspan>
			</text>
		</g>
		<g font-family="'Arial'" font-size="1" kerning="0" font-weight="400" fill="#FFFFFF" clip-path="url(#SVG_CP_1)" >
			<text text-anchor="start" transform="matrix(12.00285 0 0 11.96278 141.63364 49.76518)" >
				<tspan direction="ltr" unicode-bidi="embed" x="0 ">2</tspan>
				<tspan direction="ltr" unicode-bidi="embed" x="0.5382 ">0</tspan>
			</text>
		</g>
		<g font-family="'Arial'" font-size="1" kerning="0" font-weight="400" fill="#FFFFFF" clip-path="url(#SVG_CP_1)" >
			<text text-anchor="start" transform="matrix(12.00285 0 0 11.96278 177.64219 49.76518)" >
				<tspan direction="ltr" unicode-bidi="embed" x="0 ">6</tspan>
				<tspan direction="ltr" unicode-bidi="embed" x="0.5382 ">0</tspan>
			</text>
		</g>
		<g font-family="'Arial'" font-size="1" kerning="0" font-weight="400" fill="#FFFFFF" clip-path="url(#SVG_CP_1)" >
			<text text-anchor="start" transform="matrix(12.00285 0 0 11.96278 206.68909 49.76518)" >
				<tspan direction="ltr" unicode-bidi="embed" x="0 ">1</tspan>
				<tspan direction="ltr" unicode-bidi="embed" x="0.5382 ">0</tspan>
				<tspan direction="ltr" unicode-bidi="embed" x="1.09633 ">0</tspan>
			</text>
		</g>
		<g font-family="'Arial'" font-size="1" kerning="0" font-weight="400" fill="#FFFFFF" clip-path="url(#SVG_CP_1)" >
			<text text-anchor="start" transform="matrix(12.00285 0 0 11.96278 242.45758 49.76518)" >
				<tspan direction="ltr" unicode-bidi="embed" x="0 ">1</tspan>
				<tspan direction="ltr" unicode-bidi="embed" x="0.5382 ">4</tspan>
				<tspan direction="ltr" unicode-bidi="embed" x="1.09633 ">0</tspan>
			</text>
		</g>
		<g font-family="'Arial'" font-size="1" kerning="0" font-weight="400" fill="#FFFFFF" clip-path="url(#SVG_CP_1)" >
			<text text-anchor="start" transform="matrix(12.00285 0 0 11.96278 278.46613 49.76518)" >
				<tspan direction="ltr" unicode-bidi="embed" x="0 ">1</tspan>
				<tspan direction="ltr" unicode-bidi="embed" x="0.5382 ">8</tspan>
				<tspan direction="ltr" unicode-bidi="embed" x="1.09633 ">0</tspan>
			</text>
		</g>
		<g font-family="'Arial'" font-size="1" kerning="0" font-weight="400" fill="#FFFFFF" clip-path="url(#SVG_CP_1)" >
			<text text-anchor="start" transform="matrix(12.00285 0 0 11.96278 314.23463 49.76518)" >
				<tspan direction="ltr" unicode-bidi="embed" x="0 ">2</tspan>
				<tspan direction="ltr" unicode-bidi="embed" x="0.5382 ">2</tspan>
				<tspan direction="ltr" unicode-bidi="embed" x="1.09633 ">0</tspan>
			</text>
		</g>
		<g font-family="'Arial'" font-size="1" kerning="0" font-weight="400" fill="#FFFFFF" clip-path="url(#SVG_CP_1)" >
			<text text-anchor="start" transform="matrix(12.00285 0 0 11.96278 350.24318 49.76518)" >
				<tspan direction="ltr" unicode-bidi="embed" x="0 ">2</tspan>
				<tspan direction="ltr" unicode-bidi="embed" x="0.5382 ">6</tspan>
				<tspan direction="ltr" unicode-bidi="embed" x="1.09633 ">0</tspan>
			</text>
		</g>
		<path clip-path="url(#SVG_CP_1)" fill="#FF8080" fill-rule="evenodd" stroke="#CCCCCC" stroke-width="0.48011" stroke-miterlimit="10" stroke-linecap="round" stroke-linejoin="round" d="
			M2.64063,35.40984L2.64063,4.54586L20.6449,4.54586L20.6449,35.40984L2.64063,35.40984z"/>
		<path clip-path="url(#SVG_CP_1)" fill="#FF988F" fill-rule="evenodd" stroke="#CCCCCC" stroke-width="0.48011" stroke-miterlimit="10" stroke-linecap="round" stroke-linejoin="round" d="
			M20.6449,35.40984L20.6449,4.54586L38.64918,4.54586L38.64918,35.40984L20.6449,35.40984z"/>
		<path clip-path="url(#SVG_CP_1)" fill="#FFB2A1" fill-rule="evenodd" stroke="#CCCCCC" stroke-width="0.48011" stroke-miterlimit="10" stroke-linecap="round" stroke-linejoin="round" d="
			M38.64918,35.40984L38.64918,4.54586L56.65346,4.54586L56.65346,35.40984L38.64918,35.40984z"/>
		<path clip-path="url(#SVG_CP_1)" fill="#FFCBB3" fill-rule="evenodd" stroke="#CCCCCC" stroke-width="0.48011" stroke-miterlimit="10" stroke-linecap="round" stroke-linejoin="round" d="
			M56.65346,35.40984L56.65346,4.54586L74.41767,4.54586L74.41767,35.40984L56.65346,35.40984z"/>
		<path clip-path="url(#SVG_CP_1)" fill="#FFE5C4" fill-rule="evenodd" stroke="#CCCCCC" stroke-width="0.48011" stroke-miterlimit="10" stroke-linecap="round" stroke-linejoin="round" d="
			M74.41767,35.40984L74.41767,4.54586L92.42195,4.54586L92.42195,35.40984L74.41767,35.40984z"/>
		<path clip-path="url(#SVG_CP_1)" fill="#FFFFD9" fill-rule="evenodd" stroke="#CCCCCC" stroke-width="0.48011" stroke-miterlimit="10" stroke-linecap="round" stroke-linejoin="round" d="
			M92.42195,35.40984L92.42195,4.54586L110.42623,4.54586L110.42623,35.40984L92.42195,35.40984z"/>
		<path clip-path="url(#SVG_CP_1)" fill="#FFFFFF" fill-rule="evenodd" stroke="#CCCCCC" stroke-width="0.48011" stroke-miterlimit="10" stroke-linecap="round" stroke-linejoin="round" d="
			M110.42623,35.40984L110.42623,4.54586L128.4305,4.54586L128.4305,35.40984L110.42623,35.40984z"/>
		<path clip-path="url(#SVG_CP_1)" fill="#D5FFD6" fill-rule="evenodd" stroke="#CCCCCC" stroke-width="0.48011" stroke-miterlimit="10" stroke-linecap="round" stroke-linejoin="round" d="
			M128.4305,35.40984L128.4305,4.54586L146.19472,4.54586L146.19472,35.40984L128.4305,35.40984z"/>
		<path clip-path="url(#SVG_CP_1)" fill="#B1E3C7" fill-rule="evenodd" stroke="none" d="M146.19472,35.40984L146.19472,4.54586
			L164.199,4.54586L164.199,35.40984L146.19472,35.40984z"/>
		<path clip-path="url(#SVG_CP_1)" fill="none" stroke="#CCCCCC" stroke-width="0.48011" stroke-miterlimit="10" stroke-linecap="round" stroke-linejoin="round" d="
			M146.19472,35.40984L146.19472,4.54586L164.199,4.54586L164.199,35.40984L146.19472,35.40984"/>
		<path clip-path="url(#SVG_CP_1)" fill="#8DC9B8" fill-rule="evenodd" stroke="#CCCCCC" stroke-width="0.48011" stroke-miterlimit="10" stroke-linecap="round" stroke-linejoin="round" d="
			M164.199,35.40984L164.199,4.54586L182.20327,4.54586L182.20327,35.40984L164.199,35.40984z"/>
		<path clip-path="url(#SVG_CP_1)" fill="#6DB3AC" fill-rule="evenodd" stroke="#CCCCCC" stroke-width="0.48011" stroke-miterlimit="10" stroke-linecap="round" stroke-linejoin="round" d="
			M182.20327,35.40984L182.20327,4.54586L199.96749,4.54586L199.96749,35.40984L182.20327,35.40984z"/>
		<path clip-path="url(#SVG_CP_1)" fill="#49999C" fill-rule="evenodd" stroke="#CCCCCC" stroke-width="0.48011" stroke-miterlimit="10" stroke-linecap="round" stroke-linejoin="round" d="
			M199.96749,35.40984L199.96749,4.54586L217.97177,4.54586L217.97177,35.40984L199.96749,35.40984z"/>
		<path clip-path="url(#SVG_CP_1)" fill="#25848E" fill-rule="evenodd" stroke="#CCCCCC" stroke-width="0.48011" stroke-miterlimit="10" stroke-linecap="round" stroke-linejoin="round" d="
			M217.97177,35.40984L217.97177,4.54586L235.97604,4.54586L235.97604,35.40984L217.97177,35.40984z"/>
		<path clip-path="url(#SVG_CP_1)" fill="#29788E" fill-rule="evenodd" stroke="#CCCCCC" stroke-width="0.48011" stroke-miterlimit="10" stroke-linecap="round" stroke-linejoin="round" d="
			M235.97604,35.40984L235.97604,4.54586L253.98032,4.54586L253.98032,35.40984L235.97604,35.40984z"/>
		<path clip-path="url(#SVG_CP_1)" fill="#2E6C8E" fill-rule="evenodd" stroke="#CCCCCC" stroke-width="0.48011" stroke-miterlimit="10" stroke-linecap="round" stroke-linejoin="round" d="
			M253.98032,35.40984L253.98032,4.54586L271.74454,4.54586L271.74454,35.40984L253.98032,35.40984z"/>
		<path clip-path="url(#SVG_CP_1)" fill="#345F8D" fill-rule="evenodd" stroke="#CCCCCC" stroke-width="0.48011" stroke-miterlimit="10" stroke-linecap="round" stroke-linejoin="round" d="
			M271.74454,35.40984L271.74454,4.54586L289.74881,4.54586L289.74881,35.40984L271.74454,35.40984z"/>
		<path clip-path="url(#SVG_CP_1)" fill="#3A528B" fill-rule="evenodd" stroke="#CCCCCC" stroke-width="0.48011" stroke-miterlimit="10" stroke-linecap="round" stroke-linejoin="round" d="
			M289.74881,35.40984L289.74881,4.54586L307.75309,4.54586L307.75309,35.40984L289.74881,35.40984z"/>
		<path clip-path="url(#SVG_CP_1)" fill="#404387" fill-rule="evenodd" stroke="#CCCCCC" stroke-width="0.48011" stroke-miterlimit="10" stroke-linecap="round" stroke-linejoin="round" d="
			M307.75309,35.40984L307.75309,4.54586L325.75737,4.54586L325.75737,35.40984L307.75309,35.40984z"/>
		<path clip-path="url(#SVG_CP_1)" fill="#453480" fill-rule="evenodd" stroke="#CCCCCC" stroke-width="0.48011" stroke-miterlimit="10" stroke-linecap="round" stroke-linejoin="round" d="
			M325.75737,35.40984L325.75737,4.54586L343.52159,4.54586L343.52159,35.40984L325.75737,35.40984z"/>
		<path clip-path="url(#SVG_CP_1)" fill="#482475" fill-rule="evenodd" stroke="#CCCCCC" stroke-width="0.48011" stroke-miterlimit="10" stroke-linecap="round" stroke-linejoin="round" d="
			M343.52159,35.40984L343.52159,4.54586L361.52586,4.54586L361.52586,35.40984L343.52159,35.40984z"/>
		<path clip-path="url(#SVG_CP_1)" fill="#471366" fill-rule="evenodd" stroke="#CCCCCC" stroke-width="0.48011" stroke-miterlimit="10" stroke-linecap="round" stroke-linejoin="round" d="
			M361.52586,35.40984L361.52586,4.54586L379.53014,4.54586L379.53014,35.40984L361.52586,35.40984z"/>
		<path clip-path="url(#SVG_CP_1)" fill="#440154" fill-rule="evenodd" stroke="#CCCCCC" stroke-width="0.48011" stroke-miterlimit="10" stroke-linecap="round" stroke-linejoin="round" d="
			M379.53014,35.40984L379.53014,4.54586L397.29436,4.54586L397.29436,35.40984L379.53014,35.40984z"/>
		<g font-family="'Arial'" font-size="1" kerning="0" font-weight="400" fill="#FFFFFF" clip-path="url(#SVG_CP_1)" >
			<text text-anchor="start" transform="matrix(12.00285 0 0 11.96278 385.77162 49.76518)" >
				<tspan direction="ltr" unicode-bidi="embed" x="0 ">3</tspan>
				<tspan direction="ltr" unicode-bidi="embed" x="0.5382 ">0</tspan>
				<tspan direction="ltr" unicode-bidi="embed" x="1.09633 ">0</tspan>
			</text>
		</g>
	</g>
</svg>
