<?xml version="1.0" encoding="utf-8" standalone="no"?>
<!-- Creator: Esri ArcMap 10.5.0.6491 -->
<!DOCTYPE svg PUBLIC "-//W3C//DTD SVG 1.1//EN"  "http://www.w3.org/Graphics/SVG/1.1/DTD/svg11.dtd">
<svg width="410.99528pt" height="57.00472pt" viewBox="0 0 410.99528 57.00472" enable-background="new 0 0 410.99528 57.00472"
	version="1.1" xmlns="http://www.w3.org/2000/svg" xmlns:xlink="http://www.w3.org/1999/xlink" >
	<g id="Other">
		<clipPath id="SVG_CP_1">
			<path d="M0,57.00472L0,0L410.99528,0L410.99528,57.00472L0,57.00472z"/>
		</clipPath>
		<g font-family="'Arial'" font-size="1" kerning="0" font-weight="400" fill="#FFFFFF" clip-path="url(#SVG_CP_1)" >
			<text text-anchor="start" transform="matrix(12.00516 0 0 11.97749 22.5697 47.90996)" >
				<tspan direction="ltr" unicode-bidi="embed" x="0 ">1</tspan>
				<tspan direction="ltr" unicode-bidi="embed" x="0.55871 ">0</tspan>
				<tspan direction="ltr" unicode-bidi="embed" x="1.11742 ">0</tspan>
			</text>
		</g>
		<g font-family="'Arial'" font-size="1" kerning="0" font-weight="400" fill="#FFFFFF" clip-path="url(#SVG_CP_1)" >
			<text text-anchor="start" transform="matrix(12.00516 0 0 11.97749 49.46126 47.90996)" >
				<tspan direction="ltr" unicode-bidi="embed" x="0 ">1</tspan>
				<tspan direction="ltr" unicode-bidi="embed" x="0.55871 ">2</tspan>
				<tspan direction="ltr" unicode-bidi="embed" x="1.11742 ">0</tspan>
			</text>
		</g>
		<g font-family="'Arial'" font-size="1" kerning="0" font-weight="400" fill="#FFFFFF" clip-path="url(#SVG_CP_1)" >
			<text text-anchor="start" transform="matrix(12.00516 0 0 11.97749 75.87261 47.90996)" >
				<tspan direction="ltr" unicode-bidi="embed" x="0 ">1</tspan>
				<tspan direction="ltr" unicode-bidi="embed" x="0.55871 ">4</tspan>
				<tspan direction="ltr" unicode-bidi="embed" x="1.11742 ">0</tspan>
			</text>
		</g>
		<g font-family="'Arial'" font-size="1" kerning="0" font-weight="400" fill="#FFFFFF" clip-path="url(#SVG_CP_1)" >
			<text text-anchor="start" transform="matrix(12.00516 0 0 11.97749 102.28396 47.90996)" >
				<tspan direction="ltr" unicode-bidi="embed" x="0 ">1</tspan>
				<tspan direction="ltr" unicode-bidi="embed" x="0.55871 ">6</tspan>
				<tspan direction="ltr" unicode-bidi="embed" x="1.11742 ">0</tspan>
			</text>
		</g>
		<g font-family="'Arial'" font-size="1" kerning="0" font-weight="400" fill="#FFFFFF" clip-path="url(#SVG_CP_1)" >
			<text text-anchor="start" transform="matrix(12.00516 0 0 11.97749 128.69531 47.90996)" >
				<tspan direction="ltr" unicode-bidi="embed" x="0 ">1</tspan>
				<tspan direction="ltr" unicode-bidi="embed" x="0.55871 ">8</tspan>
				<tspan direction="ltr" unicode-bidi="embed" x="1.11742 ">0</tspan>
			</text>
		</g>
		<g font-family="'Arial'" font-size="1" kerning="0" font-weight="400" fill="#FFFFFF" clip-path="url(#SVG_CP_1)" >
			<text text-anchor="start" transform="matrix(12.00516 0 0 11.97749 155.58686 47.90996)" >
				<tspan direction="ltr" unicode-bidi="embed" x="0 ">2</tspan>
				<tspan direction="ltr" unicode-bidi="embed" x="0.55871 ">0</tspan>
				<tspan direction="ltr" unicode-bidi="embed" x="1.11742 ">0</tspan>
			</text>
		</g>
		<g font-family="'Arial'" font-size="1" kerning="0" font-weight="400" fill="#FFFFFF" clip-path="url(#SVG_CP_1)" >
			<text text-anchor="start" transform="matrix(12.00516 0 0 11.97749 181.99821 47.90996)" >
				<tspan direction="ltr" unicode-bidi="embed" x="0 ">2</tspan>
				<tspan direction="ltr" unicode-bidi="embed" x="0.55871 ">2</tspan>
				<tspan direction="ltr" unicode-bidi="embed" x="1.11742 ">0</tspan>
			</text>
		</g>
		<g font-family="'Arial'" font-size="1" kerning="0" font-weight="400" fill="#FFFFFF" clip-path="url(#SVG_CP_1)" >
			<text text-anchor="start" transform="matrix(12.00516 0 0 11.97749 208.40956 47.90996)" >
				<tspan direction="ltr" unicode-bidi="embed" x="0 ">2</tspan>
				<tspan direction="ltr" unicode-bidi="embed" x="0.55871 ">4</tspan>
				<tspan direction="ltr" unicode-bidi="embed" x="1.11742 ">0</tspan>
			</text>
		</g>
		<g font-family="'Arial'" font-size="1" kerning="0" font-weight="400" fill="#FFFFFF" clip-path="url(#SVG_CP_1)" >
			<text text-anchor="start" transform="matrix(12.00516 0 0 11.97749 234.82091 47.90996)" >
				<tspan direction="ltr" unicode-bidi="embed" x="0 ">2</tspan>
				<tspan direction="ltr" unicode-bidi="embed" x="0.55871 ">6</tspan>
				<tspan direction="ltr" unicode-bidi="embed" x="1.11742 ">0</tspan>
			</text>
		</g>
		<g font-family="'Arial'" font-size="1" kerning="0" font-weight="400" fill="#FFFFFF" clip-path="url(#SVG_CP_1)" >
			<text text-anchor="start" transform="matrix(12.00516 0 0 11.97749 261.71247 47.90996)" >
				<tspan direction="ltr" unicode-bidi="embed" x="0 ">2</tspan>
				<tspan direction="ltr" unicode-bidi="embed" x="0.55871 ">8</tspan>
				<tspan direction="ltr" unicode-bidi="embed" x="1.11742 ">0</tspan>
			</text>
		</g>
		<g font-family="'Arial'" font-size="1" kerning="0" font-weight="400" fill="#FFFFFF" clip-path="url(#SVG_CP_1)" >
			<text text-anchor="start" transform="matrix(12.00516 0 0 11.97749 288.12382 47.90996)" >
				<tspan direction="ltr" unicode-bidi="embed" x="0 ">3</tspan>
				<tspan direction="ltr" unicode-bidi="embed" x="0.55871 ">0</tspan>
				<tspan direction="ltr" unicode-bidi="embed" x="1.11742 ">0</tspan>
			</text>
		</g>
		<g font-family="'Arial'" font-size="1" kerning="0" font-weight="400" fill="#FFFFFF" clip-path="url(#SVG_CP_1)" >
			<text text-anchor="start" transform="matrix(12.00516 0 0 11.97749 314.53517 47.90996)" >
				<tspan direction="ltr" unicode-bidi="embed" x="0 ">3</tspan>
				<tspan direction="ltr" unicode-bidi="embed" x="0.55871 ">2</tspan>
				<tspan direction="ltr" unicode-bidi="embed" x="1.11742 ">0</tspan>
			</text>
		</g>
		<g font-family="'Arial'" font-size="1" kerning="0" font-weight="400" fill="#FFFFFF" clip-path="url(#SVG_CP_1)" >
			<text text-anchor="start" transform="matrix(12.00516 0 0 11.97749 340.94652 47.90996)" >
				<tspan direction="ltr" unicode-bidi="embed" x="0 ">3</tspan>
				<tspan direction="ltr" unicode-bidi="embed" x="0.55871 ">4</tspan>
				<tspan direction="ltr" unicode-bidi="embed" x="1.11742 ">0</tspan>
			</text>
		</g>
		<g font-family="'Arial'" font-size="1" kerning="0" font-weight="400" fill="#FFFFFF" clip-path="url(#SVG_CP_1)" >
			<text text-anchor="start" transform="matrix(12.00516 0 0 11.97749 367.83807 47.90996)" >
				<tspan direction="ltr" unicode-bidi="embed" x="0 ">3</tspan>
				<tspan direction="ltr" unicode-bidi="embed" x="0.55871 ">6</tspan>
				<tspan direction="ltr" unicode-bidi="embed" x="1.11742 ">0</tspan>
			</text>
		</g>
		<path clip-path="url(#SVG_CP_1)" fill="#F7FCF5" fill-rule="evenodd" stroke="#CCCCCC" stroke-width="0.48021" stroke-miterlimit="10" stroke-linecap="round" stroke-linejoin="round" d="
			M7.6833,30.18327L7.6833,5.7492L34.57486,5.7492L34.57486,30.18327L7.6833,30.18327z"/>
		<path clip-path="url(#SVG_CP_1)" fill="#EDF8E9" fill-rule="evenodd" stroke="#CCCCCC" stroke-width="0.48021" stroke-miterlimit="10" stroke-linecap="round" stroke-linejoin="round" d="
			M34.57486,30.18327L34.57486,5.7492L60.98621,5.7492L60.98621,30.18327L34.57486,30.18327z"/>
		<path clip-path="url(#SVG_CP_1)" fill="#E1F4DB" fill-rule="evenodd" stroke="#CCCCCC" stroke-width="0.48021" stroke-miterlimit="10" stroke-linecap="round" stroke-linejoin="round" d="
			M60.98621,30.18327L60.98621,5.7492L87.39756,5.7492L87.39756,30.18327L60.98621,30.18327z"/>
		<path clip-path="url(#SVG_CP_1)" fill="#CFEDC9" fill-rule="evenodd" stroke="#CCCCCC" stroke-width="0.48021" stroke-miterlimit="10" stroke-linecap="round" stroke-linejoin="round" d="
			M87.39756,30.18327L87.39756,5.7492L113.80891,5.7492L113.80891,30.18327L87.39756,30.18327z"/>
		<path clip-path="url(#SVG_CP_1)" fill="#BBE4B5" fill-rule="evenodd" stroke="#CCCCCC" stroke-width="0.48021" stroke-miterlimit="10" stroke-linecap="round" stroke-linejoin="round" d="
			M113.80891,30.18327L113.80891,5.7492L140.70046,5.7492L140.70046,30.18327L113.80891,30.18327z"/>
		<path clip-path="url(#SVG_CP_1)" fill="#A5DB9F" fill-rule="evenodd" stroke="#CCCCCC" stroke-width="0.48021" stroke-miterlimit="10" stroke-linecap="round" stroke-linejoin="round" d="
			M140.70046,30.18327L140.70046,5.7492L167.11181,5.7492L167.11181,30.18327L140.70046,30.18327z"/>
		<path clip-path="url(#SVG_CP_1)" fill="#8CCF8A" fill-rule="evenodd" stroke="#CCCCCC" stroke-width="0.48021" stroke-miterlimit="10" stroke-linecap="round" stroke-linejoin="round" d="
			M167.11181,30.18327L167.11181,5.7492L193.52316,5.7492L193.52316,30.18327L167.11181,30.18327z"/>
		<path clip-path="url(#SVG_CP_1)" fill="#71C375" fill-rule="evenodd" stroke="#CCCCCC" stroke-width="0.48021" stroke-miterlimit="10" stroke-linecap="round" stroke-linejoin="round" d="
			M193.52316,30.18327L193.52316,5.7492L219.93451,5.7492L219.93451,30.18327L193.52316,30.18327z"/>
		<path clip-path="url(#SVG_CP_1)" fill="#54B566" fill-rule="evenodd" stroke="#CCCCCC" stroke-width="0.48021" stroke-miterlimit="10" stroke-linecap="round" stroke-linejoin="round" d="
			M219.93451,30.18327L219.93451,5.7492L246.82607,5.7492L246.82607,30.18327L219.93451,30.18327z"/>
		<path clip-path="url(#SVG_CP_1)" fill="#3BA558" fill-rule="evenodd" stroke="#CCCCCC" stroke-width="0.48021" stroke-miterlimit="10" stroke-linecap="round" stroke-linejoin="round" d="
			M246.82607,30.18327L246.82607,5.7492L273.23742,5.7492L273.23742,30.18327L246.82607,30.18327z"/>
		<path clip-path="url(#SVG_CP_1)" fill="#29924A" fill-rule="evenodd" stroke="#CCCCCC" stroke-width="0.48021" stroke-miterlimit="10" stroke-linecap="round" stroke-linejoin="round" d="
			M273.23742,30.18327L273.23742,5.7492L299.64877,5.7492L299.64877,30.18327L273.23742,30.18327z"/>
		<path clip-path="url(#SVG_CP_1)" fill="#157F3B" fill-rule="evenodd" stroke="#CCCCCC" stroke-width="0.48021" stroke-miterlimit="10" stroke-linecap="round" stroke-linejoin="round" d="
			M299.64877,30.18327L299.64877,5.7492L326.06012,5.7492L326.06012,30.18327L299.64877,30.18327z"/>
		<path clip-path="url(#SVG_CP_1)" fill="#006C2B" fill-rule="evenodd" stroke="#CCCCCC" stroke-width="0.48021" stroke-miterlimit="10" stroke-linecap="round" stroke-linejoin="round" d="
			M326.06012,30.18327L326.06012,5.7492L352.95168,5.7492L352.95168,30.18327L326.06012,30.18327z"/>
		<path clip-path="url(#SVG_CP_1)" fill="#004D1E" fill-rule="evenodd" stroke="#CCCCCC" stroke-width="0.48021" stroke-miterlimit="10" stroke-linecap="round" stroke-linejoin="round" d="
			M352.95168,30.18327L352.95168,5.7492L379.36303,5.7492L379.36303,30.18327L352.95168,30.18327z"/>
		<path clip-path="url(#SVG_CP_1)" fill="#00441B" fill-rule="evenodd" stroke="#CCCCCC" stroke-width="0.48021" stroke-miterlimit="10" stroke-linecap="round" stroke-linejoin="round" d="
			M379.36303,30.18327L379.36303,5.7492L405.77438,5.7492L405.77438,30.18327L379.36303,30.18327z"/>
	</g>
</svg>
