<?xml version="1.0" encoding="utf-8" standalone="no"?>
<!-- Creator: Esri ArcMap 10.5.0.6491 -->
<!DOCTYPE svg PUBLIC "-//W3C//DTD SVG 1.1//EN"  "http://www.w3.org/Graphics/SVG/1.1/DTD/svg11.dtd">
<svg width="410.99528pt" height="57.00472pt" viewBox="0 0 410.99528 57.00472" enable-background="new 0 0 410.99528 57.00472"
	version="1.1" xmlns="http://www.w3.org/2000/svg" xmlns:xlink="http://www.w3.org/1999/xlink" >
	<g id="Other">
		<clipPath id="SVG_CP_1">
			<path d="M0,57.00472L0,0L410.99528,0L410.99528,57.00472L0,57.00472z"/>
		</clipPath>
		<g font-family="'Arial'" font-size="1" kerning="0" font-weight="400" fill="#FFFFFF" clip-path="url(#SVG_CP_1)" >
			<text text-anchor="start" transform="matrix(10.08433 0 0 10.06109 40.33733 48.38905)" >
				<tspan direction="ltr" unicode-bidi="embed" x="0 ">-</tspan>
				<tspan direction="ltr" unicode-bidi="embed" x="0.33257 ">4</tspan>
				<tspan direction="ltr" unicode-bidi="embed" x="0.85517 ">0</tspan>
				<tspan direction="ltr" unicode-bidi="embed" x="1.42528 ">0</tspan>
			</text>
		</g>
		<g font-family="'Arial'" font-size="1" kerning="0" font-weight="400" fill="#FFFFFF" clip-path="url(#SVG_CP_1)" >
			<text text-anchor="start" transform="matrix(10.08433 0 0 10.06109 86.91735 48.38905)" >
				<tspan direction="ltr" unicode-bidi="embed" x="0 ">-</tspan>
				<tspan direction="ltr" unicode-bidi="embed" x="0.33257 ">2</tspan>
				<tspan direction="ltr" unicode-bidi="embed" x="0.85517 ">0</tspan>
				<tspan direction="ltr" unicode-bidi="embed" x="1.42528 ">0</tspan>
			</text>
		</g>
		<g font-family="'Arial'" font-size="1" kerning="0" font-weight="400" fill="#FFFFFF" clip-path="url(#SVG_CP_1)" >
			<text text-anchor="start" transform="matrix(10.08433 0 0 10.06109 144.06191 48.38905)" >
				<tspan direction="ltr" unicode-bidi="embed" x="0 ">0</tspan>
			</text>
		</g>
		<g font-family="'Arial'" font-size="1" kerning="0" font-weight="400" fill="#FFFFFF" clip-path="url(#SVG_CP_1)" >
			<text text-anchor="start" transform="matrix(10.08433 0 0 10.06109 185.83986 48.38905)" >
				<tspan direction="ltr" unicode-bidi="embed" x="0 ">2</tspan>
				<tspan direction="ltr" unicode-bidi="embed" x="0.5226 ">0</tspan>
				<tspan direction="ltr" unicode-bidi="embed" x="1.09271 ">0</tspan>
			</text>
		</g>
		<g font-family="'Arial'" font-size="1" kerning="0" font-weight="400" fill="#FFFFFF" clip-path="url(#SVG_CP_1)" >
			<text text-anchor="start" transform="matrix(10.08433 0 0 10.06109 231.93967 48.38905)" >
				<tspan direction="ltr" unicode-bidi="embed" x="0 ">4</tspan>
				<tspan direction="ltr" unicode-bidi="embed" x="0.5226 ">0</tspan>
				<tspan direction="ltr" unicode-bidi="embed" x="1.09271 ">0</tspan>
			</text>
		</g>
		<g font-family="'Arial'" font-size="1" kerning="0" font-weight="400" fill="#FFFFFF" clip-path="url(#SVG_CP_1)" >
			<text text-anchor="start" transform="matrix(10.08433 0 0 10.06109 278.03948 48.38905)" >
				<tspan direction="ltr" unicode-bidi="embed" x="0 ">1</tspan>
				<tspan direction="ltr" unicode-bidi="embed" x="0.5226 ">0</tspan>
				<tspan direction="ltr" unicode-bidi="embed" x="1.09271 ">0</tspan>
				<tspan direction="ltr" unicode-bidi="embed" x="1.66283 ">0</tspan>
			</text>
		</g>
		<g font-family="'Arial'" font-size="1" kerning="0" font-weight="400" fill="#FFFFFF" clip-path="url(#SVG_CP_1)" >
			<text text-anchor="start" transform="matrix(10.08433 0 0 10.06109 325.09971 48.38905)" >
				<tspan direction="ltr" unicode-bidi="embed" x="0 ">2</tspan>
				<tspan direction="ltr" unicode-bidi="embed" x="0.5226 ">0</tspan>
				<tspan direction="ltr" unicode-bidi="embed" x="1.09271 ">0</tspan>
				<tspan direction="ltr" unicode-bidi="embed" x="1.66283 ">0</tspan>
			</text>
		</g>
		<g font-family="'Arial'" font-size="1" kerning="0" font-weight="400" fill="#FFFFFF" clip-path="url(#SVG_CP_1)" >
			<text text-anchor="start" transform="matrix(10.08433 0 0 10.06109 372.64014 48.38905)" >
				<tspan direction="ltr" unicode-bidi="embed" x="0 ">3</tspan>
				<tspan direction="ltr" unicode-bidi="embed" x="0.5226 ">0</tspan>
				<tspan direction="ltr" unicode-bidi="embed" x="1.09271 ">0</tspan>
				<tspan direction="ltr" unicode-bidi="embed" x="1.66283 ">0</tspan>
			</text>
		</g>
		<path clip-path="url(#SVG_CP_1)" fill="#064B8E" fill-rule="evenodd" stroke="#CCCCCC" stroke-width="0.48021" stroke-miterlimit="10" stroke-linecap="round" stroke-linejoin="round" d="
			M5.76248,34.49517L5.76248,8.62379L29.29259,8.62379L29.29259,34.49517L5.76248,34.49517z"/>
		<path clip-path="url(#SVG_CP_1)" fill="#1764AB" fill-rule="evenodd" stroke="#CCCCCC" stroke-width="0.48021" stroke-miterlimit="10" stroke-linecap="round" stroke-linejoin="round" d="
			M29.29259,34.49517L29.29259,8.62379L52.8227,8.62379L52.8227,34.49517L29.29259,34.49517z"/>
		<path clip-path="url(#SVG_CP_1)" fill="#3787C1" fill-rule="evenodd" stroke="#CCCCCC" stroke-width="0.48021" stroke-miterlimit="10" stroke-linecap="round" stroke-linejoin="round" d="
			M52.8227,34.49517L52.8227,8.62379L76.35281,8.62379L76.35281,34.49517L52.8227,34.49517z"/>
		<path clip-path="url(#SVG_CP_1)" fill="#6FB1D8" fill-rule="evenodd" stroke="#CCCCCC" stroke-width="0.48021" stroke-miterlimit="10" stroke-linecap="round" stroke-linejoin="round" d="
			M76.35281,34.49517L76.35281,8.62379L99.88292,8.62379L99.88292,34.49517L76.35281,34.49517z"/>
		<path clip-path="url(#SVG_CP_1)" fill="#BAEBFF" fill-rule="evenodd" stroke="#CCCCCC" stroke-width="0.48021" stroke-miterlimit="10" stroke-linecap="round" stroke-linejoin="round" d="
			M99.88292,34.49517L99.88292,8.62379L123.41304,8.62379L123.41304,34.49517L99.88292,34.49517z"/>
		<path clip-path="url(#SVG_CP_1)" fill="#D9FFF4" fill-rule="evenodd" stroke="#CCCCCC" stroke-width="0.48021" stroke-miterlimit="10" stroke-linecap="round" stroke-linejoin="round" d="
			M123.41304,34.49517L123.41304,8.62379L146.94315,8.62379L146.94315,34.49517L123.41304,34.49517z"/>
		<path clip-path="url(#SVG_CP_1)" fill="#FFD891" fill-rule="evenodd" stroke="#CCCCCC" stroke-width="0.48021" stroke-miterlimit="10" stroke-linecap="round" stroke-linejoin="round" d="
			M146.94315,34.49517L146.94315,8.62379L170.47326,8.62379L170.47326,34.49517L146.94315,34.49517z"/>
		<path clip-path="url(#SVG_CP_1)" fill="#FEB164" fill-rule="evenodd" stroke="#CCCCCC" stroke-width="0.48021" stroke-miterlimit="10" stroke-linecap="round" stroke-linejoin="round" d="
			M170.47326,34.49517L170.47326,8.62379L194.00337,8.62379L194.00337,34.49517L170.47326,34.49517z"/>
		<path clip-path="url(#SVG_CP_1)" fill="#FBA55D" fill-rule="evenodd" stroke="#CCCCCC" stroke-width="0.48021" stroke-miterlimit="10" stroke-linecap="round" stroke-linejoin="round" d="
			M194.00337,34.49517L194.00337,8.62379L217.53348,8.62379L217.53348,34.49517L194.00337,34.49517z"/>
		<path clip-path="url(#SVG_CP_1)" fill="#FF802B" fill-rule="evenodd" stroke="#CCCCCC" stroke-width="0.48021" stroke-miterlimit="10" stroke-linecap="round" stroke-linejoin="round" d="
			M217.53348,34.49517L217.53348,8.62379L241.06359,8.62379L241.06359,34.49517L217.53348,34.49517z"/>
		<path clip-path="url(#SVG_CP_1)" fill="#FF7D7D" fill-rule="evenodd" stroke="#CCCCCC" stroke-width="0.48021" stroke-miterlimit="10" stroke-linecap="round" stroke-linejoin="round" d="
			M241.06359,34.49517L241.06359,8.62379L264.59371,8.62379L264.59371,34.49517L241.06359,34.49517z"/>
		<path clip-path="url(#SVG_CP_1)" fill="#EB7373" fill-rule="evenodd" stroke="#CCCCCC" stroke-width="0.48021" stroke-miterlimit="10" stroke-linecap="round" stroke-linejoin="round" d="
			M264.59371,34.49517L264.59371,8.62379L288.12382,8.62379L288.12382,34.49517L264.59371,34.49517z"/>
		<path clip-path="url(#SVG_CP_1)" fill="#C95F5F" fill-rule="evenodd" stroke="#CCCCCC" stroke-width="0.48021" stroke-miterlimit="10" stroke-linecap="round" stroke-linejoin="round" d="
			M288.12382,34.49517L288.12382,8.62379L311.65393,8.62379L311.65393,34.49517L288.12382,34.49517z"/>
		<path clip-path="url(#SVG_CP_1)" fill="#C95F5F" fill-rule="evenodd" stroke="#CCCCCC" stroke-width="0.48021" stroke-miterlimit="10" stroke-linecap="round" stroke-linejoin="round" d="
			M311.65393,34.49517L311.65393,8.62379L335.18404,8.62379L335.18404,34.49517L311.65393,34.49517z"/>
		<path clip-path="url(#SVG_CP_1)" fill="#B03F37" fill-rule="evenodd" stroke="#CCCCCC" stroke-width="0.48021" stroke-miterlimit="10" stroke-linecap="round" stroke-linejoin="round" d="
			M335.18404,34.49517L335.18404,8.62379L358.71415,8.62379L358.71415,34.49517L335.18404,34.49517z"/>
		<path clip-path="url(#SVG_CP_1)" fill="#9D3632" fill-rule="evenodd" stroke="#CCCCCC" stroke-width="0.48021" stroke-miterlimit="10" stroke-linecap="round" stroke-linejoin="round" d="
			M358.71415,34.49517L358.71415,8.62379L382.24426,8.62379L382.24426,34.49517L358.71415,34.49517z"/>
		<path clip-path="url(#SVG_CP_1)" fill="#8C1A28" fill-rule="evenodd" stroke="#CCCCCC" stroke-width="0.48021" stroke-miterlimit="10" stroke-linecap="round" stroke-linejoin="round" d="
			M382.24426,34.49517L382.24426,8.62379L405.77438,8.62379L405.77438,34.49517L382.24426,34.49517z"/>
		<g font-family="'Arial'" font-size="1" kerning="0" font-weight="400" fill="#FFFFFF" clip-path="url(#SVG_CP_1)" >
			<text text-anchor="start" transform="matrix(10.08433 0 0 10.06109 17.28743 48.38905)" >
				<tspan direction="ltr" unicode-bidi="embed" x="0 ">-</tspan>
				<tspan direction="ltr" unicode-bidi="embed" x="0.33257 ">5</tspan>
				<tspan direction="ltr" unicode-bidi="embed" x="0.85517 ">0</tspan>
				<tspan direction="ltr" unicode-bidi="embed" x="1.42528 ">0</tspan>
			</text>
		</g>
		<g font-family="'Arial'" font-size="1" kerning="0" font-weight="400" fill="#FFFFFF" clip-path="url(#SVG_CP_1)" >
			<text text-anchor="start" transform="matrix(10.08433 0 0 10.06109 64.34765 48.38905)" >
				<tspan direction="ltr" unicode-bidi="embed" x="0 ">-</tspan>
				<tspan direction="ltr" unicode-bidi="embed" x="0.33257 ">3</tspan>
				<tspan direction="ltr" unicode-bidi="embed" x="0.85517 ">0</tspan>
				<tspan direction="ltr" unicode-bidi="embed" x="1.42528 ">0</tspan>
			</text>
		</g>
		<g font-family="'Arial'" font-size="1" kerning="0" font-weight="400" fill="#FFFFFF" clip-path="url(#SVG_CP_1)" >
			<text text-anchor="start" transform="matrix(10.08433 0 0 10.06109 111.88808 48.38905)" >
				<tspan direction="ltr" unicode-bidi="embed" x="0 ">-</tspan>
				<tspan direction="ltr" unicode-bidi="embed" x="0.33257 ">1</tspan>
				<tspan direction="ltr" unicode-bidi="embed" x="0.85517 ">0</tspan>
				<tspan direction="ltr" unicode-bidi="embed" x="1.42528 ">0</tspan>
			</text>
		</g>
		<g font-family="'Arial'" font-size="1" kerning="0" font-weight="400" fill="#FFFFFF" clip-path="url(#SVG_CP_1)" >
			<text text-anchor="start" transform="matrix(10.08433 0 0 10.06109 162.30975 47.90996)" >
				<tspan direction="ltr" unicode-bidi="embed" x="0 ">1</tspan>
				<tspan direction="ltr" unicode-bidi="embed" x="0.5226 ">0</tspan>
				<tspan direction="ltr" unicode-bidi="embed" x="1.09271 ">0</tspan>
			</text>
		</g>
		<g font-family="'Arial'" font-size="1" kerning="0" font-weight="400" fill="#FFFFFF" clip-path="url(#SVG_CP_1)" >
			<text text-anchor="start" transform="matrix(10.08433 0 0 10.06109 209.85018 48.38905)" >
				<tspan direction="ltr" unicode-bidi="embed" x="0 ">3</tspan>
				<tspan direction="ltr" unicode-bidi="embed" x="0.5226 ">0</tspan>
				<tspan direction="ltr" unicode-bidi="embed" x="1.09271 ">0</tspan>
			</text>
		</g>
		<g font-family="'Arial'" font-size="1" kerning="0" font-weight="400" fill="#FFFFFF" clip-path="url(#SVG_CP_1)" >
			<text text-anchor="start" transform="matrix(10.08433 0 0 10.06109 256.9104 48.38905)" >
				<tspan direction="ltr" unicode-bidi="embed" x="0 ">5</tspan>
				<tspan direction="ltr" unicode-bidi="embed" x="0.5226 ">0</tspan>
				<tspan direction="ltr" unicode-bidi="embed" x="1.09271 ">0</tspan>
			</text>
		</g>
	</g>
</svg>
