<?xml version="1.0" encoding="utf-8" standalone="no"?>
<!-- Creator: Esri ArcMap 10.5.0.6491 -->
<!DOCTYPE svg PUBLIC "-//W3C//DTD SVG 1.1//EN"  "http://www.w3.org/Graphics/SVG/1.1/DTD/svg11.dtd">
<svg width="410.99528pt" height="57.00472pt" viewBox="0 0 410.99528 57.00472" enable-background="new 0 0 410.99528 57.00472"
	version="1.1" xmlns="http://www.w3.org/2000/svg" xmlns:xlink="http://www.w3.org/1999/xlink" >
	<g id="Other">
		<clipPath id="SVG_CP_1">
			<path d="M0,57.00472L0,0L410.99528,0L410.99528,57.00472L0,57.00472z"/>
		</clipPath>
		<g font-family="'Arial'" font-size="1" kerning="0" font-weight="400" fill="#FFFFFF" clip-path="url(#SVG_CP_1)" >
			<text text-anchor="start" transform="matrix(12.00516 0 0 11.97749 19.68846 47.43086)" >
				<tspan direction="ltr" unicode-bidi="embed" x="0 ">-</tspan>
				<tspan direction="ltr" unicode-bidi="embed" x="0.31926 ">5</tspan>
				<tspan direction="ltr" unicode-bidi="embed" x="0.87797 ">0</tspan>
			</text>
		</g>
		<g font-family="'Arial'" font-size="1" kerning="0" font-weight="400" fill="#FFFFFF" clip-path="url(#SVG_CP_1)" >
			<text text-anchor="start" transform="matrix(12.00516 0 0 11.97749 43.69878 47.43086)" >
				<tspan direction="ltr" unicode-bidi="embed" x="0 ">-</tspan>
				<tspan direction="ltr" unicode-bidi="embed" x="0.31926 ">4</tspan>
				<tspan direction="ltr" unicode-bidi="embed" x="0.87797 ">0</tspan>
			</text>
		</g>
		<g font-family="'Arial'" font-size="1" kerning="0" font-weight="400" fill="#FFFFFF" clip-path="url(#SVG_CP_1)" >
			<text text-anchor="start" transform="matrix(12.00516 0 0 11.97749 67.22889 47.43086)" >
				<tspan direction="ltr" unicode-bidi="embed" x="0 ">-</tspan>
				<tspan direction="ltr" unicode-bidi="embed" x="0.31926 ">3</tspan>
				<tspan direction="ltr" unicode-bidi="embed" x="0.87797 ">0</tspan>
			</text>
		</g>
		<g font-family="'Arial'" font-size="1" kerning="0" font-weight="400" fill="#FFFFFF" clip-path="url(#SVG_CP_1)" >
			<text text-anchor="start" transform="matrix(12.00516 0 0 11.97749 91.23921 47.43086)" >
				<tspan direction="ltr" unicode-bidi="embed" x="0 ">-</tspan>
				<tspan direction="ltr" unicode-bidi="embed" x="0.31926 ">2</tspan>
				<tspan direction="ltr" unicode-bidi="embed" x="0.87797 ">0</tspan>
			</text>
		</g>
		<g font-family="'Arial'" font-size="1" kerning="0" font-weight="400" fill="#FFFFFF" clip-path="url(#SVG_CP_1)" >
			<text text-anchor="start" transform="matrix(12.00516 0 0 11.97749 114.76932 47.43086)" >
				<tspan direction="ltr" unicode-bidi="embed" x="0 ">-</tspan>
				<tspan direction="ltr" unicode-bidi="embed" x="0.31926 ">1</tspan>
				<tspan direction="ltr" unicode-bidi="embed" x="0.87797 ">0</tspan>
			</text>
		</g>
		<g font-family="'Arial'" font-size="1" kerning="0" font-weight="400" fill="#FFFFFF" clip-path="url(#SVG_CP_1)" >
			<text text-anchor="start" transform="matrix(12.00516 0 0 11.97749 158.4681 47.43086)" >
				<tspan direction="ltr" unicode-bidi="embed" x="0 ">0</tspan>
			</text>
		</g>
		<g font-family="'Arial'" font-size="1" kerning="0" font-weight="400" fill="#FFFFFF" clip-path="url(#SVG_CP_1)" >
			<text text-anchor="start" transform="matrix(12.00516 0 0 11.97749 188.24089 47.43086)" >
				<tspan direction="ltr" unicode-bidi="embed" x="0 ">1</tspan>
				<tspan direction="ltr" unicode-bidi="embed" x="0.55871 ">0</tspan>
			</text>
		</g>
		<g font-family="'Arial'" font-size="1" kerning="0" font-weight="400" fill="#FFFFFF" clip-path="url(#SVG_CP_1)" >
			<text text-anchor="start" transform="matrix(12.00516 0 0 11.97749 212.73142 47.43086)" >
				<tspan direction="ltr" unicode-bidi="embed" x="0 ">2</tspan>
				<tspan direction="ltr" unicode-bidi="embed" x="0.55871 ">0</tspan>
			</text>
		</g>
		<g font-family="'Arial'" font-size="1" kerning="0" font-weight="400" fill="#FFFFFF" clip-path="url(#SVG_CP_1)" >
			<text text-anchor="start" transform="matrix(12.00516 0 0 11.97749 235.30112 47.43086)" >
				<tspan direction="ltr" unicode-bidi="embed" x="0 ">3</tspan>
				<tspan direction="ltr" unicode-bidi="embed" x="0.55871 ">0</tspan>
			</text>
		</g>
		<g font-family="'Arial'" font-size="1" kerning="0" font-weight="400" fill="#FFFFFF" clip-path="url(#SVG_CP_1)" >
			<text text-anchor="start" transform="matrix(12.00516 0 0 11.97749 258.35102 47.43086)" >
				<tspan direction="ltr" unicode-bidi="embed" x="0 ">4</tspan>
				<tspan direction="ltr" unicode-bidi="embed" x="0.55871 ">0</tspan>
			</text>
		</g>
		<g font-family="'Arial'" font-size="1" kerning="0" font-weight="400" fill="#FFFFFF" clip-path="url(#SVG_CP_1)" >
			<text text-anchor="start" transform="matrix(12.00516 0 0 11.97749 282.36134 46.95176)" >
				<tspan direction="ltr" unicode-bidi="embed" x="0 ">5</tspan>
				<tspan direction="ltr" unicode-bidi="embed" x="0.55871 ">0</tspan>
			</text>
		</g>
		<g font-family="'Arial'" font-size="1" kerning="0" font-weight="400" fill="#FFFFFF" clip-path="url(#SVG_CP_1)" >
			<text text-anchor="start" transform="matrix(12.00516 0 0 11.97749 305.89145 47.43086)" >
				<tspan direction="ltr" unicode-bidi="embed" x="0 ">6</tspan>
				<tspan direction="ltr" unicode-bidi="embed" x="0.55871 ">0</tspan>
			</text>
		</g>
		<g font-family="'Arial'" font-size="1" kerning="0" font-weight="400" fill="#FFFFFF" clip-path="url(#SVG_CP_1)" >
			<text text-anchor="start" transform="matrix(12.00516 0 0 11.97749 328.94136 47.43086)" >
				<tspan direction="ltr" unicode-bidi="embed" x="0 ">8</tspan>
				<tspan direction="ltr" unicode-bidi="embed" x="0.55871 ">0</tspan>
			</text>
		</g>
		<g font-family="'Arial'" font-size="1" kerning="0" font-weight="400" fill="#FFFFFF" clip-path="url(#SVG_CP_1)" >
			<text text-anchor="start" transform="matrix(12.00516 0 0 11.97749 349.59023 46.95176)" >
				<tspan direction="ltr" unicode-bidi="embed" x="0 ">1</tspan>
				<tspan direction="ltr" unicode-bidi="embed" x="0.55871 ">0</tspan>
				<tspan direction="ltr" unicode-bidi="embed" x="1.11742 ">0</tspan>
			</text>
		</g>
		<g font-family="'Arial'" font-size="1" kerning="0" font-weight="400" fill="#FFFFFF" clip-path="url(#SVG_CP_1)" >
			<text text-anchor="start" transform="matrix(12.00516 0 0 11.97749 374.08076 47.43086)" >
				<tspan direction="ltr" unicode-bidi="embed" x="0 ">1</tspan>
				<tspan direction="ltr" unicode-bidi="embed" x="0.55871 ">2</tspan>
				<tspan direction="ltr" unicode-bidi="embed" x="1.11742 ">0</tspan>
			</text>
		</g>
		<path clip-path="url(#SVG_CP_1)" fill="#2E6E2E" fill-rule="evenodd" stroke="#CCCCCC" stroke-width="0.48021" stroke-miterlimit="10" stroke-linecap="round" stroke-linejoin="round" d="
			M7.6833,33.53697L7.6833,5.7492L31.21341,5.7492L31.21341,33.53697L7.6833,33.53697z"/>
		<path clip-path="url(#SVG_CP_1)" fill="#468938" fill-rule="evenodd" stroke="#CCCCCC" stroke-width="0.48021" stroke-miterlimit="10" stroke-linecap="round" stroke-linejoin="round" d="
			M31.21341,33.53697L31.21341,5.7492L54.26332,5.7492L54.26332,33.53697L31.21341,33.53697z"/>
		<path clip-path="url(#SVG_CP_1)" fill="#65B156" fill-rule="evenodd" stroke="#CCCCCC" stroke-width="0.48021" stroke-miterlimit="10" stroke-linecap="round" stroke-linejoin="round" d="
			M54.26332,33.53697L54.26332,5.7492L77.79343,5.7492L77.79343,33.53697L54.26332,33.53697z"/>
		<path clip-path="url(#SVG_CP_1)" fill="#82C960" fill-rule="evenodd" stroke="#CCCCCC" stroke-width="0.48021" stroke-miterlimit="10" stroke-linecap="round" stroke-linejoin="round" d="
			M77.79343,33.53697L77.79343,5.7492L101.32354,5.7492L101.32354,33.53697L77.79343,33.53697z"/>
		<path clip-path="url(#SVG_CP_1)" fill="#A7F27E" fill-rule="evenodd" stroke="#CCCCCC" stroke-width="0.48021" stroke-miterlimit="10" stroke-linecap="round" stroke-linejoin="round" d="
			M101.32354,33.53697L101.32354,5.7492L124.85365,5.7492L124.85365,33.53697L101.32354,33.53697z"/>
		<path clip-path="url(#SVG_CP_1)" fill="#CBFEAB" fill-rule="evenodd" stroke="#CCCCCC" stroke-width="0.48021" stroke-miterlimit="10" stroke-linecap="round" stroke-linejoin="round" d="
			M124.85365,33.53697L124.85365,5.7492L147.90356,5.7492L147.90356,33.53697L124.85365,33.53697z"/>
		<path clip-path="url(#SVG_CP_1)" fill="#FFFFFF" fill-rule="evenodd" stroke="#CCCCCC" stroke-width="0.48021" stroke-miterlimit="10" stroke-linecap="round" stroke-linejoin="round" d="
			M147.90356,33.53697L147.90356,5.7492L171.43367,5.7492L171.43367,33.53697L147.90356,33.53697z"/>
		<path clip-path="url(#SVG_CP_1)" fill="#FFF9CF" fill-rule="evenodd" stroke="#CCCCCC" stroke-width="0.48021" stroke-miterlimit="10" stroke-linecap="round" stroke-linejoin="round" d="
			M171.43367,33.53697L171.43367,5.7492L194.96378,5.7492L194.96378,33.53697L171.43367,33.53697z"/>
		<path clip-path="url(#SVG_CP_1)" fill="#FFF9B4" fill-rule="evenodd" stroke="#CCCCCC" stroke-width="0.48021" stroke-miterlimit="10" stroke-linecap="round" stroke-linejoin="round" d="
			M194.96378,33.53697L194.96378,5.7492L218.4939,5.7492L218.4939,33.53697L194.96378,33.53697z"/>
		<path clip-path="url(#SVG_CP_1)" fill="#FFF29E" fill-rule="evenodd" stroke="#CCCCCC" stroke-width="0.48021" stroke-miterlimit="10" stroke-linecap="round" stroke-linejoin="round" d="
			M218.4939,33.53697L218.4939,5.7492L242.02401,5.7492L242.02401,33.53697L218.4939,33.53697z"/>
		<path clip-path="url(#SVG_CP_1)" fill="#FFDC8C" fill-rule="evenodd" stroke="#CCCCCC" stroke-width="0.48021" stroke-miterlimit="10" stroke-linecap="round" stroke-linejoin="round" d="
			M242.02401,33.53697L242.02401,5.7492L265.07391,5.7492L265.07391,33.53697L242.02401,33.53697z"/>
		<path clip-path="url(#SVG_CP_1)" fill="#FFCC86" fill-rule="evenodd" stroke="#CCCCCC" stroke-width="0.48021" stroke-miterlimit="10" stroke-linecap="round" stroke-linejoin="round" d="
			M265.07391,33.53697L265.07391,5.7492L288.60402,5.7492L288.60402,33.53697L265.07391,33.53697z"/>
		<path clip-path="url(#SVG_CP_1)" fill="#FF9A4D" fill-rule="evenodd" stroke="#CCCCCC" stroke-width="0.48021" stroke-miterlimit="10" stroke-linecap="round" stroke-linejoin="round" d="
			M288.60402,33.53697L288.60402,5.7492L312.13414,5.7492L312.13414,33.53697L288.60402,33.53697z"/>
		<path clip-path="url(#SVG_CP_1)" fill="#FF802B" fill-rule="evenodd" stroke="#CCCCCC" stroke-width="0.48021" stroke-miterlimit="10" stroke-linecap="round" stroke-linejoin="round" d="
			M312.13414,33.53697L312.13414,5.7492L335.66425,5.7492L335.66425,33.53697L312.13414,33.53697z"/>
		<path clip-path="url(#SVG_CP_1)" fill="#FF6923" fill-rule="evenodd" stroke="#CCCCCC" stroke-width="0.48021" stroke-miterlimit="10" stroke-linecap="round" stroke-linejoin="round" d="
			M335.66425,33.53697L335.66425,5.7492L359.19436,5.7492L359.19436,33.53697L335.66425,33.53697z"/>
		<path clip-path="url(#SVG_CP_1)" fill="#F75127" fill-rule="evenodd" stroke="#CCCCCC" stroke-width="0.48021" stroke-miterlimit="10" stroke-linecap="round" stroke-linejoin="round" d="
			M359.19436,33.53697L359.19436,5.7492L382.24426,5.7492L382.24426,33.53697L359.19436,33.53697z"/>
		<path clip-path="url(#SVG_CP_1)" fill="#F73019" fill-rule="evenodd" stroke="#CCCCCC" stroke-width="0.48021" stroke-miterlimit="10" stroke-linecap="round" stroke-linejoin="round" d="
			M382.24426,33.53697L382.24426,5.7492L405.77438,5.7492L405.77438,33.53697L382.24426,33.53697z"/>
	</g>
</svg>
