<?xml version="1.0" encoding="utf-8" standalone="no"?>
<!-- Creator: Esri ArcMap 10.5.0.6491 -->
<!DOCTYPE svg PUBLIC "-//W3C//DTD SVG 1.1//EN"  "http://www.w3.org/Graphics/SVG/1.1/DTD/svg11.dtd">
<svg width="410.99528pt" height="57.00472pt" viewBox="0 0 410.99528 57.00472" enable-background="new 0 0 410.99528 57.00472"
	version="1.1" xmlns="http://www.w3.org/2000/svg" xmlns:xlink="http://www.w3.org/1999/xlink" >
	<g id="Other">
		<clipPath id="SVG_CP_1">
			<path d="M0,57.00472L0,0L410.99528,0L410.99528,57.00472L0,57.00472z"/>
		</clipPath>
		<g font-family="'Arial'" font-size="1" kerning="0" font-weight="400" fill="#FFFFFF" clip-path="url(#SVG_CP_1)" >
			<text text-anchor="start" transform="matrix(12.00516 0 0 11.97749 20.16867 49.34725)" >
				<tspan direction="ltr" unicode-bidi="embed" x="0 ">-</tspan>
				<tspan direction="ltr" unicode-bidi="embed" x="0.31926 ">5</tspan>
				<tspan direction="ltr" unicode-bidi="embed" x="0.87797 ">0</tspan>
			</text>
		</g>
		<g font-family="'Arial'" font-size="1" kerning="0" font-weight="400" fill="#FFFFFF" clip-path="url(#SVG_CP_1)" >
			<text text-anchor="start" transform="matrix(12.00516 0 0 11.97749 43.69878 49.34725)" >
				<tspan direction="ltr" unicode-bidi="embed" x="0 ">-</tspan>
				<tspan direction="ltr" unicode-bidi="embed" x="0.31926 ">4</tspan>
				<tspan direction="ltr" unicode-bidi="embed" x="0.87797 ">0</tspan>
			</text>
		</g>
		<g font-family="'Arial'" font-size="1" kerning="0" font-weight="400" fill="#FFFFFF" clip-path="url(#SVG_CP_1)" >
			<text text-anchor="start" transform="matrix(12.00516 0 0 11.97749 68.66951 49.34725)" >
				<tspan direction="ltr" unicode-bidi="embed" x="0 ">-</tspan>
				<tspan direction="ltr" unicode-bidi="embed" x="0.31926 ">3</tspan>
				<tspan direction="ltr" unicode-bidi="embed" x="0.87797 ">0</tspan>
			</text>
		</g>
		<g font-family="'Arial'" font-size="1" kerning="0" font-weight="400" fill="#FFFFFF" clip-path="url(#SVG_CP_1)" >
			<text text-anchor="start" transform="matrix(12.00516 0 0 11.97749 94.12045 49.34725)" >
				<tspan direction="ltr" unicode-bidi="embed" x="0 ">-</tspan>
				<tspan direction="ltr" unicode-bidi="embed" x="0.31926 ">2</tspan>
				<tspan direction="ltr" unicode-bidi="embed" x="0.87797 ">0</tspan>
			</text>
		</g>
		<g font-family="'Arial'" font-size="1" kerning="0" font-weight="400" fill="#FFFFFF" clip-path="url(#SVG_CP_1)" >
			<text text-anchor="start" transform="matrix(12.00516 0 0 11.97749 120.05159 49.34725)" >
				<tspan direction="ltr" unicode-bidi="embed" x="0 ">-</tspan>
				<tspan direction="ltr" unicode-bidi="embed" x="0.31926 ">1</tspan>
				<tspan direction="ltr" unicode-bidi="embed" x="0.87797 ">0</tspan>
			</text>
		</g>
		<g font-family="'Arial'" font-size="1" kerning="0" font-weight="400" fill="#FFFFFF" clip-path="url(#SVG_CP_1)" >
			<text text-anchor="start" transform="matrix(12.00516 0 0 11.97749 153.18583 49.34725)" >
				<tspan direction="ltr" unicode-bidi="embed" x="0 ">0</tspan>
			</text>
		</g>
		<g font-family="'Arial'" font-size="1" kerning="0" font-weight="400" fill="#FFFFFF" clip-path="url(#SVG_CP_1)" >
			<text text-anchor="start" transform="matrix(12.00516 0 0 11.97749 174.31491 49.34725)" >
				<tspan direction="ltr" unicode-bidi="embed" x="0 ">1</tspan>
				<tspan direction="ltr" unicode-bidi="embed" x="0.55871 ">0</tspan>
			</text>
		</g>
		<g font-family="'Arial'" font-size="1" kerning="0" font-weight="400" fill="#FFFFFF" clip-path="url(#SVG_CP_1)" >
			<text text-anchor="start" transform="matrix(12.00516 0 0 11.97749 199.76585 49.34725)" >
				<tspan direction="ltr" unicode-bidi="embed" x="0 ">2</tspan>
				<tspan direction="ltr" unicode-bidi="embed" x="0.55871 ">0</tspan>
			</text>
		</g>
		<g font-family="'Arial'" font-size="1" kerning="0" font-weight="400" fill="#FFFFFF" clip-path="url(#SVG_CP_1)" >
			<text text-anchor="start" transform="matrix(12.00516 0 0 11.97749 223.77617 49.34725)" >
				<tspan direction="ltr" unicode-bidi="embed" x="0 ">3</tspan>
				<tspan direction="ltr" unicode-bidi="embed" x="0.55871 ">0</tspan>
			</text>
		</g>
		<g font-family="'Arial'" font-size="1" kerning="0" font-weight="400" fill="#FFFFFF" clip-path="url(#SVG_CP_1)" >
			<text text-anchor="start" transform="matrix(12.00516 0 0 11.97749 249.2271 49.34725)" >
				<tspan direction="ltr" unicode-bidi="embed" x="0 ">4</tspan>
				<tspan direction="ltr" unicode-bidi="embed" x="0.55871 ">0</tspan>
			</text>
		</g>
		<g font-family="'Arial'" font-size="1" kerning="0" font-weight="400" fill="#FFFFFF" clip-path="url(#SVG_CP_1)" >
			<text text-anchor="start" transform="matrix(12.00516 0 0 11.97749 275.15825 49.34725)" >
				<tspan direction="ltr" unicode-bidi="embed" x="0 ">5</tspan>
				<tspan direction="ltr" unicode-bidi="embed" x="0.55871 ">0</tspan>
			</text>
		</g>
		<g font-family="'Arial'" font-size="1" kerning="0" font-weight="400" fill="#FFFFFF" clip-path="url(#SVG_CP_1)" >
			<text text-anchor="start" transform="matrix(12.00516 0 0 11.97749 300.60918 49.34725)" >
				<tspan direction="ltr" unicode-bidi="embed" x="0 ">6</tspan>
				<tspan direction="ltr" unicode-bidi="embed" x="0.55871 ">0</tspan>
			</text>
		</g>
		<g font-family="'Arial'" font-size="1" kerning="0" font-weight="400" fill="#FFFFFF" clip-path="url(#SVG_CP_1)" >
			<text text-anchor="start" transform="matrix(12.00516 0 0 11.97749 325.09971 49.82635)" >
				<tspan direction="ltr" unicode-bidi="embed" x="0 ">8</tspan>
				<tspan direction="ltr" unicode-bidi="embed" x="0.55871 ">0</tspan>
			</text>
		</g>
		<g font-family="'Arial'" font-size="1" kerning="0" font-weight="400" fill="#FFFFFF" clip-path="url(#SVG_CP_1)" >
			<text text-anchor="start" transform="matrix(12.00516 0 0 11.97749 345.74858 49.34725)" >
				<tspan direction="ltr" unicode-bidi="embed" x="0 ">1</tspan>
				<tspan direction="ltr" unicode-bidi="embed" x="0.55871 ">0</tspan>
				<tspan direction="ltr" unicode-bidi="embed" x="1.11742 ">0</tspan>
			</text>
		</g>
		<g font-family="'Arial'" font-size="1" kerning="0" font-weight="400" fill="#FFFFFF" clip-path="url(#SVG_CP_1)" >
			<text text-anchor="start" transform="matrix(12.00516 0 0 11.97749 371.19952 49.34725)" >
				<tspan direction="ltr" unicode-bidi="embed" x="0 ">1</tspan>
				<tspan direction="ltr" unicode-bidi="embed" x="0.55871 ">2</tspan>
				<tspan direction="ltr" unicode-bidi="embed" x="1.11742 ">0</tspan>
			</text>
		</g>
		<path clip-path="url(#SVG_CP_1)" fill="#378237" fill-rule="evenodd" stroke="#CCCCCC" stroke-width="0.48021" stroke-miterlimit="10" stroke-linecap="round" stroke-linejoin="round" d="
			M5.28227,34.97427L5.28227,8.62379L30.253,8.62379L30.253,34.97427L5.28227,34.97427z"/>
		<path clip-path="url(#SVG_CP_1)" fill="#469641" fill-rule="evenodd" stroke="#CCCCCC" stroke-width="0.48021" stroke-miterlimit="10" stroke-linecap="round" stroke-linejoin="round" d="
			M30.253,34.97427L30.253,8.62379L55.22373,8.62379L55.22373,34.97427L30.253,34.97427z"/>
		<path clip-path="url(#SVG_CP_1)" fill="#73BE56" fill-rule="evenodd" stroke="#CCCCCC" stroke-width="0.48021" stroke-miterlimit="10" stroke-linecap="round" stroke-linejoin="round" d="
			M55.22373,34.97427L55.22373,8.62379L80.67467,8.62379L80.67467,34.97427L55.22373,34.97427z"/>
		<path clip-path="url(#SVG_CP_1)" fill="#82D360" fill-rule="evenodd" stroke="#CCCCCC" stroke-width="0.48021" stroke-miterlimit="10" stroke-linecap="round" stroke-linejoin="round" d="
			M80.67467,34.97427L80.67467,8.62379L105.6454,8.62379L105.6454,34.97427L80.67467,34.97427z"/>
		<path clip-path="url(#SVG_CP_1)" fill="#A7F27E" fill-rule="evenodd" stroke="#CCCCCC" stroke-width="0.48021" stroke-miterlimit="10" stroke-linecap="round" stroke-linejoin="round" d="
			M105.6454,34.97427L105.6454,8.62379L130.61613,8.62379L130.61613,34.97427L105.6454,34.97427z"/>
		<path clip-path="url(#SVG_CP_1)" fill="#CBFEAB" fill-rule="evenodd" stroke="#CCCCCC" stroke-width="0.48021" stroke-miterlimit="10" stroke-linecap="round" stroke-linejoin="round" d="
			M130.61613,34.97427L130.61613,8.62379L155.58686,8.62379L155.58686,34.97427L130.61613,34.97427z"/>
		<path clip-path="url(#SVG_CP_1)" fill="#FFF9CF" fill-rule="evenodd" stroke="#CCCCCC" stroke-width="0.48021" stroke-miterlimit="10" stroke-linecap="round" stroke-linejoin="round" d="
			M155.58686,34.97427L155.58686,8.62379L180.55759,8.62379L180.55759,34.97427L155.58686,34.97427z"/>
		<path clip-path="url(#SVG_CP_1)" fill="#FFF9B4" fill-rule="evenodd" stroke="#CCCCCC" stroke-width="0.48021" stroke-miterlimit="10" stroke-linecap="round" stroke-linejoin="round" d="
			M180.55759,34.97427L180.55759,8.62379L205.52832,8.62379L205.52832,34.97427L180.55759,34.97427z"/>
		<path clip-path="url(#SVG_CP_1)" fill="#FFF29E" fill-rule="evenodd" stroke="#CCCCCC" stroke-width="0.48021" stroke-miterlimit="10" stroke-linecap="round" stroke-linejoin="round" d="
			M205.52832,34.97427L205.52832,8.62379L230.49905,8.62379L230.49905,34.97427L205.52832,34.97427z"/>
		<path clip-path="url(#SVG_CP_1)" fill="#FFDC8C" fill-rule="evenodd" stroke="#CCCCCC" stroke-width="0.48021" stroke-miterlimit="10" stroke-linecap="round" stroke-linejoin="round" d="
			M230.49905,34.97427L230.49905,8.62379L255.46979,8.62379L255.46979,34.97427L230.49905,34.97427z"/>
		<path clip-path="url(#SVG_CP_1)" fill="#FFCC86" fill-rule="evenodd" stroke="#CCCCCC" stroke-width="0.48021" stroke-miterlimit="10" stroke-linecap="round" stroke-linejoin="round" d="
			M255.46979,34.97427L255.46979,8.62379L280.92072,8.62379L280.92072,34.97427L255.46979,34.97427z"/>
		<path clip-path="url(#SVG_CP_1)" fill="#FF9A4D" fill-rule="evenodd" stroke="#CCCCCC" stroke-width="0.48021" stroke-miterlimit="10" stroke-linecap="round" stroke-linejoin="round" d="
			M280.92072,34.97427L280.92072,8.62379L305.89145,8.62379L305.89145,34.97427L280.92072,34.97427z"/>
		<path clip-path="url(#SVG_CP_1)" fill="#FF802B" fill-rule="evenodd" stroke="#CCCCCC" stroke-width="0.48021" stroke-miterlimit="10" stroke-linecap="round" stroke-linejoin="round" d="
			M305.89145,34.97427L305.89145,8.62379L330.86218,8.62379L330.86218,34.97427L305.89145,34.97427z"/>
		<path clip-path="url(#SVG_CP_1)" fill="#FF6923" fill-rule="evenodd" stroke="#CCCCCC" stroke-width="0.48021" stroke-miterlimit="10" stroke-linecap="round" stroke-linejoin="round" d="
			M330.86218,34.97427L330.86218,8.62379L355.83291,8.62379L355.83291,34.97427L330.86218,34.97427z"/>
		<path clip-path="url(#SVG_CP_1)" fill="#F75127" fill-rule="evenodd" stroke="#CCCCCC" stroke-width="0.48021" stroke-miterlimit="10" stroke-linecap="round" stroke-linejoin="round" d="
			M355.83291,34.97427L355.83291,8.62379L380.80365,8.62379L380.80365,34.97427L355.83291,34.97427z"/>
		<path clip-path="url(#SVG_CP_1)" fill="#F73019" fill-rule="evenodd" stroke="#CCCCCC" stroke-width="0.48021" stroke-miterlimit="10" stroke-linecap="round" stroke-linejoin="round" d="
			M380.80365,34.97427L380.80365,8.62379L405.77438,8.62379L405.77438,34.97427L380.80365,34.97427z"/>
	</g>
</svg>
