<?xml version="1.0" encoding="utf-8" standalone="no"?>
<!-- Creator: Esri ArcMap 10.5.0.6491 -->
<!DOCTYPE svg PUBLIC "-//W3C//DTD SVG 1.1//EN"  "http://www.w3.org/Graphics/SVG/1.1/DTD/svg11.dtd">
<svg width="410.99528pt" height="57.00472pt" viewBox="0 0 410.99528 57.00472" enable-background="new 0 0 410.99528 57.00472"
	version="1.1" xmlns="http://www.w3.org/2000/svg" xmlns:xlink="http://www.w3.org/1999/xlink" >
	<g id="Other">
		<clipPath id="SVG_CP_1">
			<path d="M0,57.00472L0,0L410.99528,0L410.99528,57.00472L0,57.00472z"/>
		</clipPath>
		<g font-family="'Arial'" font-size="1" kerning="0" font-weight="400" fill="#FFFFFF" clip-path="url(#SVG_CP_1)" >
			<text text-anchor="start" transform="matrix(9.60413 0 0 9.58199 36.97589 49.34725)" >
				<tspan direction="ltr" unicode-bidi="embed" x="0 ">-</tspan>
				<tspan direction="ltr" unicode-bidi="embed" x="0.34919 ">4</tspan>
				<tspan direction="ltr" unicode-bidi="embed" x="0.89793 ">0</tspan>
				<tspan direction="ltr" unicode-bidi="embed" x="1.49654 ">0</tspan>
			</text>
		</g>
		<g font-family="'Arial'" font-size="1" kerning="0" font-weight="400" fill="#FFFFFF" clip-path="url(#SVG_CP_1)" >
			<text text-anchor="start" transform="matrix(9.60413 0 0 9.58199 83.55591 49.34725)" >
				<tspan direction="ltr" unicode-bidi="embed" x="0 ">-</tspan>
				<tspan direction="ltr" unicode-bidi="embed" x="0.34919 ">2</tspan>
				<tspan direction="ltr" unicode-bidi="embed" x="0.89793 ">0</tspan>
				<tspan direction="ltr" unicode-bidi="embed" x="1.49654 ">0</tspan>
			</text>
		</g>
		<g font-family="'Arial'" font-size="1" kerning="0" font-weight="400" fill="#FFFFFF" clip-path="url(#SVG_CP_1)" >
			<text text-anchor="start" transform="matrix(9.60413 0 0 9.58199 148.38377 48.38905)" >
				<tspan direction="ltr" unicode-bidi="embed" x="0 ">0</tspan>
			</text>
		</g>
		<g font-family="'Arial'" font-size="1" kerning="0" font-weight="400" fill="#FFFFFF" clip-path="url(#SVG_CP_1)" >
			<text text-anchor="start" transform="matrix(9.60413 0 0 9.58199 198.80543 48.86815)" >
				<tspan direction="ltr" unicode-bidi="embed" x="0 ">2</tspan>
				<tspan direction="ltr" unicode-bidi="embed" x="0.54873 ">0</tspan>
				<tspan direction="ltr" unicode-bidi="embed" x="1.14735 ">0</tspan>
			</text>
		</g>
		<g font-family="'Arial'" font-size="1" kerning="0" font-weight="400" fill="#FFFFFF" clip-path="url(#SVG_CP_1)" >
			<text text-anchor="start" transform="matrix(9.60413 0 0 9.58199 242.98442 49.34725)" >
				<tspan direction="ltr" unicode-bidi="embed" x="0 ">4</tspan>
				<tspan direction="ltr" unicode-bidi="embed" x="0.54873 ">0</tspan>
				<tspan direction="ltr" unicode-bidi="embed" x="1.14735 ">0</tspan>
			</text>
		</g>
		<g font-family="'Arial'" font-size="1" kerning="0" font-weight="400" fill="#FFFFFF" clip-path="url(#SVG_CP_1)" >
			<text text-anchor="start" transform="matrix(9.60413 0 0 9.58199 285.72279 49.34725)" >
				<tspan direction="ltr" unicode-bidi="embed" x="0 ">1</tspan>
				<tspan direction="ltr" unicode-bidi="embed" x="0.54873 ">0</tspan>
				<tspan direction="ltr" unicode-bidi="embed" x="1.14735 ">0</tspan>
				<tspan direction="ltr" unicode-bidi="embed" x="1.74597 ">0</tspan>
			</text>
		</g>
		<g font-family="'Arial'" font-size="1" kerning="0" font-weight="400" fill="#FFFFFF" clip-path="url(#SVG_CP_1)" >
			<text text-anchor="start" transform="matrix(9.60413 0 0 9.58199 329.42156 49.34725)" >
				<tspan direction="ltr" unicode-bidi="embed" x="0 ">2</tspan>
				<tspan direction="ltr" unicode-bidi="embed" x="0.54873 ">0</tspan>
				<tspan direction="ltr" unicode-bidi="embed" x="1.14735 ">0</tspan>
				<tspan direction="ltr" unicode-bidi="embed" x="1.74597 ">0</tspan>
			</text>
		</g>
		<g font-family="'Arial'" font-size="1" kerning="0" font-weight="400" fill="#FFFFFF" clip-path="url(#SVG_CP_1)" >
			<text text-anchor="start" transform="matrix(9.60413 0 0 9.58199 376.00158 49.34725)" >
				<tspan direction="ltr" unicode-bidi="embed" x="0 ">3</tspan>
				<tspan direction="ltr" unicode-bidi="embed" x="0.54873 ">0</tspan>
				<tspan direction="ltr" unicode-bidi="embed" x="1.14735 ">0</tspan>
				<tspan direction="ltr" unicode-bidi="embed" x="1.74597 ">0</tspan>
			</text>
		</g>
		<g font-family="'Arial'" font-size="1" kerning="0" font-weight="400" fill="#FFFFFF" clip-path="url(#SVG_CP_1)" >
			<text text-anchor="start" transform="matrix(9.60413 0 0 9.58199 14.40619 49.34725)" >
				<tspan direction="ltr" unicode-bidi="embed" x="0 ">-</tspan>
				<tspan direction="ltr" unicode-bidi="embed" x="0.34919 ">5</tspan>
				<tspan direction="ltr" unicode-bidi="embed" x="0.89793 ">0</tspan>
				<tspan direction="ltr" unicode-bidi="embed" x="1.49654 ">0</tspan>
			</text>
		</g>
		<g font-family="'Arial'" font-size="1" kerning="0" font-weight="400" fill="#FFFFFF" clip-path="url(#SVG_CP_1)" >
			<text text-anchor="start" transform="matrix(9.60413 0 0 9.58199 60.98621 49.34725)" >
				<tspan direction="ltr" unicode-bidi="embed" x="0 ">-</tspan>
				<tspan direction="ltr" unicode-bidi="embed" x="0.34919 ">3</tspan>
				<tspan direction="ltr" unicode-bidi="embed" x="0.89793 ">0</tspan>
				<tspan direction="ltr" unicode-bidi="embed" x="1.49654 ">0</tspan>
			</text>
		</g>
		<g font-family="'Arial'" font-size="1" kerning="0" font-weight="400" fill="#FFFFFF" clip-path="url(#SVG_CP_1)" >
			<text text-anchor="start" transform="matrix(9.60413 0 0 9.58199 108.04643 49.34725)" >
				<tspan direction="ltr" unicode-bidi="embed" x="0 ">-</tspan>
				<tspan direction="ltr" unicode-bidi="embed" x="0.34919 ">1</tspan>
				<tspan direction="ltr" unicode-bidi="embed" x="0.89793 ">0</tspan>
				<tspan direction="ltr" unicode-bidi="embed" x="1.49654 ">0</tspan>
			</text>
		</g>
		<g font-family="'Arial'" font-size="1" kerning="0" font-weight="400" fill="#FFFFFF" clip-path="url(#SVG_CP_1)" >
			<text text-anchor="start" transform="matrix(9.60413 0 0 9.58199 176.23574 49.34725)" >
				<tspan direction="ltr" unicode-bidi="embed" x="0 ">1</tspan>
				<tspan direction="ltr" unicode-bidi="embed" x="0.54873 ">0</tspan>
				<tspan direction="ltr" unicode-bidi="embed" x="1.14735 ">0</tspan>
			</text>
		</g>
		<g font-family="'Arial'" font-size="1" kerning="0" font-weight="400" fill="#FFFFFF" clip-path="url(#SVG_CP_1)" >
			<text text-anchor="start" transform="matrix(9.60413 0 0 9.58199 220.89493 49.34725)" >
				<tspan direction="ltr" unicode-bidi="embed" x="0 ">3</tspan>
				<tspan direction="ltr" unicode-bidi="embed" x="0.54873 ">0</tspan>
				<tspan direction="ltr" unicode-bidi="embed" x="1.14735 ">0</tspan>
			</text>
		</g>
		<g font-family="'Arial'" font-size="1" kerning="0" font-weight="400" fill="#FFFFFF" clip-path="url(#SVG_CP_1)" >
			<text text-anchor="start" transform="matrix(9.60413 0 0 9.58199 265.55412 49.34725)" >
				<tspan direction="ltr" unicode-bidi="embed" x="0 ">5</tspan>
				<tspan direction="ltr" unicode-bidi="embed" x="0.54873 ">0</tspan>
				<tspan direction="ltr" unicode-bidi="embed" x="1.14735 ">0</tspan>
			</text>
		</g>
		<path clip-path="url(#SVG_CP_1)" fill="#064B8E" fill-rule="evenodd" stroke="#CCCCCC" stroke-width="0.48021" stroke-miterlimit="10" stroke-linecap="round" stroke-linejoin="round" d="
			M7.6833,34.97427L7.6833,5.7492L29.77279,5.7492L29.77279,34.97427L7.6833,34.97427z"/>
		<path clip-path="url(#SVG_CP_1)" fill="#1764AB" fill-rule="evenodd" stroke="#CCCCCC" stroke-width="0.48021" stroke-miterlimit="10" stroke-linecap="round" stroke-linejoin="round" d="
			M29.77279,34.97427L29.77279,5.7492L51.86229,5.7492L51.86229,34.97427L29.77279,34.97427z"/>
		<path clip-path="url(#SVG_CP_1)" fill="#3A90CD" fill-rule="evenodd" stroke="#CCCCCC" stroke-width="0.48021" stroke-miterlimit="10" stroke-linecap="round" stroke-linejoin="round" d="
			M51.86229,34.97427L51.86229,5.7492L73.95178,5.7492L73.95178,34.97427L51.86229,34.97427z"/>
		<path clip-path="url(#SVG_CP_1)" fill="#74BAE2" fill-rule="evenodd" stroke="#CCCCCC" stroke-width="0.48021" stroke-miterlimit="10" stroke-linecap="round" stroke-linejoin="round" d="
			M73.95178,34.97427L73.95178,5.7492L96.04127,5.7492L96.04127,34.97427L73.95178,34.97427z"/>
		<path clip-path="url(#SVG_CP_1)" fill="#9BD9F5" fill-rule="evenodd" stroke="#CCCCCC" stroke-width="0.48021" stroke-miterlimit="10" stroke-linecap="round" stroke-linejoin="round" d="
			M96.04127,34.97427L96.04127,5.7492L118.13077,5.7492L118.13077,34.97427L96.04127,34.97427z"/>
		<path clip-path="url(#SVG_CP_1)" fill="#C2EEFB" fill-rule="evenodd" stroke="#CCCCCC" stroke-width="0.48021" stroke-miterlimit="10" stroke-linecap="round" stroke-linejoin="round" d="
			M118.13077,34.97427L118.13077,5.7492L140.22026,5.7492L140.22026,34.97427L118.13077,34.97427z"/>
		<path clip-path="url(#SVG_CP_1)" fill="#FFFFFF" fill-rule="evenodd" stroke="#CCCCCC" stroke-width="0.48021" stroke-miterlimit="10" stroke-linecap="round" stroke-linejoin="round" d="
			M140.22026,34.97427L140.22026,5.7492L162.30975,5.7492L162.30975,34.97427L140.22026,34.97427z"/>
		<path clip-path="url(#SVG_CP_1)" fill="#FEEEBC" fill-rule="evenodd" stroke="#CCCCCC" stroke-width="0.48021" stroke-miterlimit="10" stroke-linecap="round" stroke-linejoin="round" d="
			M162.30975,34.97427L162.30975,5.7492L184.39924,5.7492L184.39924,34.97427L162.30975,34.97427z"/>
		<path clip-path="url(#SVG_CP_1)" fill="#FED6A9" fill-rule="evenodd" stroke="#CCCCCC" stroke-width="0.48021" stroke-miterlimit="10" stroke-linecap="round" stroke-linejoin="round" d="
			M184.39924,34.97427L184.39924,5.7492L206.48874,5.7492L206.48874,34.97427L184.39924,34.97427z"/>
		<path clip-path="url(#SVG_CP_1)" fill="#FDB87F" fill-rule="evenodd" stroke="#CCCCCC" stroke-width="0.48021" stroke-miterlimit="10" stroke-linecap="round" stroke-linejoin="round" d="
			M206.48874,34.97427L206.48874,5.7492L229.05844,5.7492L229.05844,34.97427L206.48874,34.97427z"/>
		<path clip-path="url(#SVG_CP_1)" fill="#FD9A6E" fill-rule="evenodd" stroke="#CCCCCC" stroke-width="0.48021" stroke-miterlimit="10" stroke-linecap="round" stroke-linejoin="round" d="
			M229.05844,34.97427L229.05844,5.7492L251.14793,5.7492L251.14793,34.97427L229.05844,34.97427z"/>
		<path clip-path="url(#SVG_CP_1)" fill="#F98653" fill-rule="evenodd" stroke="#CCCCCC" stroke-width="0.48021" stroke-miterlimit="10" stroke-linecap="round" stroke-linejoin="round" d="
			M251.14793,34.97427L251.14793,5.7492L273.23742,5.7492L273.23742,34.97427L251.14793,34.97427z"/>
		<path clip-path="url(#SVG_CP_1)" fill="#F16E46" fill-rule="evenodd" stroke="#CCCCCC" stroke-width="0.48021" stroke-miterlimit="10" stroke-linecap="round" stroke-linejoin="round" d="
			M273.23742,34.97427L273.23742,5.7492L295.32691,5.7492L295.32691,34.97427L273.23742,34.97427z"/>
		<path clip-path="url(#SVG_CP_1)" fill="#E9593C" fill-rule="evenodd" stroke="#CCCCCC" stroke-width="0.48021" stroke-miterlimit="10" stroke-linecap="round" stroke-linejoin="round" d="
			M295.32691,34.97427L295.32691,5.7492L317.41641,5.7492L317.41641,34.97427L295.32691,34.97427z"/>
		<path clip-path="url(#SVG_CP_1)" fill="#E0442F" fill-rule="evenodd" stroke="#CCCCCC" stroke-width="0.48021" stroke-miterlimit="10" stroke-linecap="round" stroke-linejoin="round" d="
			M317.41641,34.97427L317.41641,5.7492L339.5059,5.7492L339.5059,34.97427L317.41641,34.97427z"/>
		<path clip-path="url(#SVG_CP_1)" fill="#D12114" fill-rule="evenodd" stroke="#CCCCCC" stroke-width="0.48021" stroke-miterlimit="10" stroke-linecap="round" stroke-linejoin="round" d="
			M339.5059,34.97427L339.5059,5.7492L361.59539,5.7492L361.59539,34.97427L339.5059,34.97427z"/>
		<path clip-path="url(#SVG_CP_1)" fill="#B30000" fill-rule="evenodd" stroke="#CCCCCC" stroke-width="0.48021" stroke-miterlimit="10" stroke-linecap="round" stroke-linejoin="round" d="
			M361.59539,34.97427L361.59539,5.7492L383.68488,5.7492L383.68488,34.97427L361.59539,34.97427z"/>
		<path clip-path="url(#SVG_CP_1)" fill="#960000" fill-rule="evenodd" stroke="#CCCCCC" stroke-width="0.48021" stroke-miterlimit="10" stroke-linecap="round" stroke-linejoin="round" d="
			M383.68488,34.97427L383.68488,5.7492L405.77438,5.7492L405.77438,34.97427L383.68488,34.97427z"/>
	</g>
</svg>
