<?xml version="1.0" encoding="utf-8" standalone="no"?>
<!-- Creator: Esri ArcMap 10.5.0.6491 -->
<!DOCTYPE svg PUBLIC "-//W3C//DTD SVG 1.1//EN"  "http://www.w3.org/Graphics/SVG/1.1/DTD/svg11.dtd">
<svg width="410.99528pt" height="57.00472pt" viewBox="0 0 410.99528 57.00472" enable-background="new 0 0 410.99528 57.00472"
	version="1.1" xmlns="http://www.w3.org/2000/svg" xmlns:xlink="http://www.w3.org/1999/xlink" >
	<g id="Other">
		<clipPath id="SVG_CP_1">
			<path d="M0,57.00472L0,0L410.99528,0L410.99528,57.00472L0,57.00472z"/>
		</clipPath>
		<g font-family="'Arial'" font-size="1" kerning="0" font-weight="400" fill="#FFFFFF" clip-path="url(#SVG_CP_1)" >
			<text text-anchor="start" transform="matrix(12.00516 0 0 11.97749 21.12908 47.90996)" >
				<tspan direction="ltr" unicode-bidi="embed" x="0 ">1</tspan>
				<tspan direction="ltr" unicode-bidi="embed" x="0.55871 ">0</tspan>
				<tspan direction="ltr" unicode-bidi="embed" x="1.11742 ">0</tspan>
				<tspan direction="ltr" unicode-bidi="embed" x="1.67613 ">0</tspan>
			</text>
		</g>
		<g font-family="'Arial'" font-size="1" kerning="0" font-weight="400" fill="#FFFFFF" clip-path="url(#SVG_CP_1)" >
			<text text-anchor="start" transform="matrix(12.00516 0 0 11.97749 70.59034 47.90996)" >
				<tspan direction="ltr" unicode-bidi="embed" x="0 ">2</tspan>
				<tspan direction="ltr" unicode-bidi="embed" x="0.55871 ">0</tspan>
				<tspan direction="ltr" unicode-bidi="embed" x="1.11742 ">0</tspan>
				<tspan direction="ltr" unicode-bidi="embed" x="1.67613 ">0</tspan>
			</text>
		</g>
		<g font-family="'Arial'" font-size="1" kerning="0" font-weight="400" fill="#FFFFFF" clip-path="url(#SVG_CP_1)" >
			<text text-anchor="start" transform="matrix(12.00516 0 0 11.97749 120.5318 47.90996)" >
				<tspan direction="ltr" unicode-bidi="embed" x="0 ">3</tspan>
				<tspan direction="ltr" unicode-bidi="embed" x="0.55871 ">0</tspan>
				<tspan direction="ltr" unicode-bidi="embed" x="1.11742 ">0</tspan>
				<tspan direction="ltr" unicode-bidi="embed" x="1.67613 ">0</tspan>
			</text>
		</g>
		<g font-family="'Arial'" font-size="1" kerning="0" font-weight="400" fill="#FFFFFF" clip-path="url(#SVG_CP_1)" >
			<text text-anchor="start" transform="matrix(12.00516 0 0 11.97749 169.99305 47.90996)" >
				<tspan direction="ltr" unicode-bidi="embed" x="0 ">4</tspan>
				<tspan direction="ltr" unicode-bidi="embed" x="0.55871 ">0</tspan>
				<tspan direction="ltr" unicode-bidi="embed" x="1.11742 ">0</tspan>
				<tspan direction="ltr" unicode-bidi="embed" x="1.67613 ">0</tspan>
			</text>
		</g>
		<g font-family="'Arial'" font-size="1" kerning="0" font-weight="400" fill="#FFFFFF" clip-path="url(#SVG_CP_1)" >
			<text text-anchor="start" transform="matrix(12.00516 0 0 11.97749 219.93451 47.90996)" >
				<tspan direction="ltr" unicode-bidi="embed" x="0 ">5</tspan>
				<tspan direction="ltr" unicode-bidi="embed" x="0.55871 ">0</tspan>
				<tspan direction="ltr" unicode-bidi="embed" x="1.11742 ">0</tspan>
				<tspan direction="ltr" unicode-bidi="embed" x="1.67613 ">0</tspan>
			</text>
		</g>
		<g font-family="'Arial'" font-size="1" kerning="0" font-weight="400" fill="#FFFFFF" clip-path="url(#SVG_CP_1)" >
			<text text-anchor="start" transform="matrix(12.00516 0 0 11.97749 269.39577 47.90996)" >
				<tspan direction="ltr" unicode-bidi="embed" x="0 ">6</tspan>
				<tspan direction="ltr" unicode-bidi="embed" x="0.55871 ">0</tspan>
				<tspan direction="ltr" unicode-bidi="embed" x="1.11742 ">0</tspan>
				<tspan direction="ltr" unicode-bidi="embed" x="1.67613 ">0</tspan>
			</text>
		</g>
		<g font-family="'Arial'" font-size="1" kerning="0" font-weight="400" fill="#FFFFFF" clip-path="url(#SVG_CP_1)" >
			<text text-anchor="start" transform="matrix(12.00516 0 0 11.97749 318.85702 47.90996)" >
				<tspan direction="ltr" unicode-bidi="embed" x="0 ">8</tspan>
				<tspan direction="ltr" unicode-bidi="embed" x="0.55871 ">0</tspan>
				<tspan direction="ltr" unicode-bidi="embed" x="1.11742 ">0</tspan>
				<tspan direction="ltr" unicode-bidi="embed" x="1.67613 ">0</tspan>
			</text>
		</g>
		<g font-family="'Arial'" font-size="1" kerning="0" font-weight="400" fill="#FFFFFF" clip-path="url(#SVG_CP_1)" >
			<text text-anchor="start" transform="matrix(12.00516 0 0 11.97749 363.03601 47.90996)" >
				<tspan direction="ltr" unicode-bidi="embed" x="0 ">1</tspan>
				<tspan direction="ltr" unicode-bidi="embed" x="0.55871 ">0</tspan>
				<tspan direction="ltr" unicode-bidi="embed" x="1.11742 ">0</tspan>
				<tspan direction="ltr" unicode-bidi="embed" x="1.67613 ">0</tspan>
				<tspan direction="ltr" unicode-bidi="embed" x="2.23484 ">0</tspan>
			</text>
		</g>
		<path clip-path="url(#SVG_CP_1)" fill="#FFF5F0" fill-rule="evenodd" stroke="#CCCCCC" stroke-width="0.48021" stroke-miterlimit="10" stroke-linecap="round" stroke-linejoin="round" d="
			M8.64372,31.14147L8.64372,5.7492L33.61445,5.7492L33.61445,31.14147L8.64372,31.14147z"/>
		<path clip-path="url(#SVG_CP_1)" fill="#FFEBE1" fill-rule="evenodd" stroke="#CCCCCC" stroke-width="0.48021" stroke-miterlimit="10" stroke-linecap="round" stroke-linejoin="round" d="
			M33.61445,31.14147L33.61445,5.7492L58.10497,5.7492L58.10497,31.14147L33.61445,31.14147z"/>
		<path clip-path="url(#SVG_CP_1)" fill="#FEDFD1" fill-rule="evenodd" stroke="#CCCCCC" stroke-width="0.48021" stroke-miterlimit="10" stroke-linecap="round" stroke-linejoin="round" d="
			M58.10497,31.14147L58.10497,5.7492L83.0757,5.7492L83.0757,31.14147L58.10497,31.14147z"/>
		<path clip-path="url(#SVG_CP_1)" fill="#FDCCB8" fill-rule="evenodd" stroke="#CCCCCC" stroke-width="0.48021" stroke-miterlimit="10" stroke-linecap="round" stroke-linejoin="round" d="
			M83.0757,31.14147L83.0757,5.7492L108.04643,5.7492L108.04643,31.14147L83.0757,31.14147z"/>
		<path clip-path="url(#SVG_CP_1)" fill="#FCB99F" fill-rule="evenodd" stroke="#CCCCCC" stroke-width="0.48021" stroke-miterlimit="10" stroke-linecap="round" stroke-linejoin="round" d="
			M108.04643,31.14147L108.04643,5.7492L132.53696,5.7492L132.53696,31.14147L108.04643,31.14147z"/>
		<path clip-path="url(#SVG_CP_1)" fill="#FCA487" fill-rule="evenodd" stroke="#CCCCCC" stroke-width="0.48021" stroke-miterlimit="10" stroke-linecap="round" stroke-linejoin="round" d="
			M132.53696,31.14147L132.53696,5.7492L157.50769,5.7492L157.50769,31.14147L132.53696,31.14147z"/>
		<path clip-path="url(#SVG_CP_1)" fill="#FC8F6F" fill-rule="evenodd" stroke="#CCCCCC" stroke-width="0.48021" stroke-miterlimit="10" stroke-linecap="round" stroke-linejoin="round" d="
			M157.50769,31.14147L157.50769,5.7492L182.47842,5.7492L182.47842,31.14147L157.50769,31.14147z"/>
		<path clip-path="url(#SVG_CP_1)" fill="#FC7A5A" fill-rule="evenodd" stroke="#CCCCCC" stroke-width="0.48021" stroke-miterlimit="10" stroke-linecap="round" stroke-linejoin="round" d="
			M182.47842,31.14147L182.47842,5.7492L207.44915,5.7492L207.44915,31.14147L182.47842,31.14147z"/>
		<path clip-path="url(#SVG_CP_1)" fill="#FA6547" fill-rule="evenodd" stroke="#CCCCCC" stroke-width="0.48021" stroke-miterlimit="10" stroke-linecap="round" stroke-linejoin="round" d="
			M207.44915,31.14147L207.44915,5.7492L231.93967,5.7492L231.93967,31.14147L207.44915,31.14147z"/>
		<path clip-path="url(#SVG_CP_1)" fill="#F44D37" fill-rule="evenodd" stroke="#CCCCCC" stroke-width="0.48021" stroke-miterlimit="10" stroke-linecap="round" stroke-linejoin="round" d="
			M231.93967,31.14147L231.93967,5.7492L256.9104,5.7492L256.9104,31.14147L231.93967,31.14147z"/>
		<path clip-path="url(#SVG_CP_1)" fill="#EB362A" fill-rule="evenodd" stroke="#CCCCCC" stroke-width="0.48021" stroke-miterlimit="10" stroke-linecap="round" stroke-linejoin="round" d="
			M256.9104,31.14147L256.9104,5.7492L281.88113,5.7492L281.88113,31.14147L256.9104,31.14147z"/>
		<path clip-path="url(#SVG_CP_1)" fill="#D82422" fill-rule="evenodd" stroke="#CCCCCC" stroke-width="0.48021" stroke-miterlimit="10" stroke-linecap="round" stroke-linejoin="round" d="
			M281.88113,31.14147L281.88113,5.7492L306.37166,5.7492L306.37166,31.14147L281.88113,31.14147z"/>
		<path clip-path="url(#SVG_CP_1)" fill="#C5161B" fill-rule="evenodd" stroke="#CCCCCC" stroke-width="0.48021" stroke-miterlimit="10" stroke-linecap="round" stroke-linejoin="round" d="
			M306.37166,31.14147L306.37166,5.7492L331.34239,5.7492L331.34239,31.14147L306.37166,31.14147z"/>
		<path clip-path="url(#SVG_CP_1)" fill="#B01117" fill-rule="evenodd" stroke="#CCCCCC" stroke-width="0.48021" stroke-miterlimit="10" stroke-linecap="round" stroke-linejoin="round" d="
			M331.34239,31.14147L331.34239,5.7492L356.31312,5.7492L356.31312,31.14147L331.34239,31.14147z"/>
		<path clip-path="url(#SVG_CP_1)" fill="#900A12" fill-rule="evenodd" stroke="#CCCCCC" stroke-width="0.48021" stroke-miterlimit="10" stroke-linecap="round" stroke-linejoin="round" d="
			M356.31312,31.14147L356.31312,5.7492L380.80365,5.7492L380.80365,31.14147L356.31312,31.14147z"/>
		<path clip-path="url(#SVG_CP_1)" fill="#67000D" fill-rule="evenodd" stroke="#CCCCCC" stroke-width="0.48021" stroke-miterlimit="10" stroke-linecap="round" stroke-linejoin="round" d="
			M380.80365,31.14147L380.80365,5.7492L405.77438,5.7492L405.77438,31.14147L380.80365,31.14147z"/>
	</g>
</svg>
