<?xml version="1.0" encoding="utf-8" standalone="no"?>
<!-- Creator: Esri ArcMap 10.5.0.6491 -->
<!DOCTYPE svg PUBLIC "-//W3C//DTD SVG 1.1//EN"  "http://www.w3.org/Graphics/SVG/1.1/DTD/svg11.dtd">
<svg width="410.99528pt" height="57.00472pt" viewBox="0 0 410.99528 57.00472" enable-background="new 0 0 410.99528 57.00472"
	version="1.1" xmlns="http://www.w3.org/2000/svg" xmlns:xlink="http://www.w3.org/1999/xlink" >
	<g id="Other">
		<clipPath id="SVG_CP_1">
			<path d="M0,57.00472L0,0L410.99528,0L410.99528,57.00472L0,57.00472z"/>
		</clipPath>
		<path clip-path="url(#SVG_CP_1)" fill="#4D4D4D" fill-rule="evenodd" stroke="none" d="M20.64488,32.07078L20.64488,8.61603
			L28.08664,8.61603L28.08664,32.07078L20.64488,32.07078z"/>
		<g font-family="'Arial'" font-size="1" kerning="0" font-weight="400" fill="#FFFFFF" clip-path="url(#SVG_CP_1)" >
			<text text-anchor="start" transform="matrix(12.00284 0 0 11.96671 6.00142 47.38817)" >
				<tspan direction="ltr" unicode-bidi="embed" x="0 ">-</tspan>
				<tspan direction="ltr" unicode-bidi="embed" x="0.31904 ">5</tspan>
				<tspan direction="ltr" unicode-bidi="embed" x="0.87735 ">0</tspan>
			</text>
		</g>
		<path clip-path="url(#SVG_CP_1)" fill="#616161" fill-rule="evenodd" stroke="none" d="M28.08664,32.07078L28.08664,8.61603
			L35.76846,8.61603L35.76846,32.07078L28.08664,32.07078z"/>
		<path clip-path="url(#SVG_CP_1)" fill="#757575" fill-rule="evenodd" stroke="none" d="M35.76846,32.07078L35.76846,8.61603
			L43.21022,8.61603L43.21022,32.07078L35.76846,32.07078z"/>
		<path clip-path="url(#SVG_CP_1)" fill="#8A8A8A" fill-rule="evenodd" stroke="none" d="M43.21022,32.07078L43.21022,8.61603
			L50.65197,8.61603L50.65197,32.07078L43.21022,32.07078z"/>
		<path clip-path="url(#SVG_CP_1)" fill="#9E9E9E" fill-rule="evenodd" stroke="none" d="M50.65197,32.07078L50.65197,8.61603
			L58.33379,8.61603L58.33379,32.07078L50.65197,32.07078z"/>
		<path clip-path="url(#SVG_CP_1)" fill="#4D0073" fill-rule="evenodd" stroke="none" d="M58.33379,32.07078L58.33379,8.61603
			L65.77555,8.61603L65.77555,32.07078L58.33379,32.07078z"/>
		<clipPath id="SVG_CP_2">
			<path d="M0,57.00472L0,0L410.99528,0L410.99528,57.00472L0,57.00472z"/>
		</clipPath>
		<g font-family="'Arial'" font-size="1" kerning="0" font-weight="400" fill="#FFFFFF" clip-path="url(#SVG_CP_2)" >
			<text text-anchor="start" transform="matrix(12.00284 0 0 11.96671 43.93039 47.38817)" >
				<tspan direction="ltr" unicode-bidi="embed" x="0 ">-</tspan>
				<tspan direction="ltr" unicode-bidi="embed" x="0.31904 ">4</tspan>
				<tspan direction="ltr" unicode-bidi="embed" x="0.87735 ">0</tspan>
			</text>
		</g>
		<path clip-path="url(#SVG_CP_2)" fill="#630091" fill-rule="evenodd" stroke="none" d="M65.77555,32.07078L65.77555,8.61603
			L73.45737,8.61603L73.45737,32.07078L65.77555,32.07078z"/>
		<path clip-path="url(#SVG_CP_2)" fill="#7900AD" fill-rule="evenodd" stroke="none" d="M73.45737,32.07078L73.45737,8.61603
			L80.89912,8.61603L80.89912,32.07078L73.45737,32.07078z"/>
		<path clip-path="url(#SVG_CP_2)" fill="#9200CC" fill-rule="evenodd" stroke="none" d="M80.89912,32.07078L80.89912,8.61603
			L88.58094,8.61603L88.58094,32.07078L80.89912,32.07078z"/>
		<path clip-path="url(#SVG_CP_2)" fill="#AE00E8" fill-rule="evenodd" stroke="none" d="M88.58094,32.07078L88.58094,8.61603
			L96.0227,8.61603L96.0227,32.07078L88.58094,32.07078z"/>
		<path clip-path="url(#SVG_CP_2)" fill="#290D85" fill-rule="evenodd" stroke="none" d="M96.0227,32.07078L96.0227,8.61603L103.70452,8.61603
			L103.70452,32.07078L96.0227,32.07078z"/>
		<g font-family="'Arial'" font-size="1" kerning="0" font-weight="400" fill="#FFFFFF" clip-path="url(#SVG_CP_2)" >
			<text text-anchor="start" transform="matrix(12.00284 0 0 11.96671 81.61929 47.38817)" >
				<tspan direction="ltr" unicode-bidi="embed" x="0 ">-</tspan>
				<tspan direction="ltr" unicode-bidi="embed" x="0.31904 ">3</tspan>
				<tspan direction="ltr" unicode-bidi="embed" x="0.87735 ">0</tspan>
			</text>
		</g>
		<path clip-path="url(#SVG_CP_2)" fill="#240C9C" fill-rule="evenodd" stroke="none" d="M103.70452,32.07078L103.70452,8.61603
			L111.14627,8.61603L111.14627,32.07078L103.70452,32.07078z"/>
		<path clip-path="url(#SVG_CP_2)" fill="#1B0BB3" fill-rule="evenodd" stroke="none" d="M111.14627,32.07078L111.14627,8.61603
			L118.58803,8.61603L118.58803,32.07078L111.14627,32.07078z"/>
		<path clip-path="url(#SVG_CP_2)" fill="#0F08CC" fill-rule="evenodd" stroke="none" d="M118.58803,32.07078L118.58803,8.61603
			L126.26985,8.61603L126.26985,32.07078L118.58803,32.07078z"/>
		<path clip-path="url(#SVG_CP_2)" fill="#050CE3" fill-rule="evenodd" stroke="none" d="M126.26985,32.07078L126.26985,8.61603
			L133.71161,8.61603L133.71161,32.07078L126.26985,32.07078z"/>
		<path clip-path="url(#SVG_CP_2)" fill="#082DFF" fill-rule="evenodd" stroke="none" d="M133.71161,32.07078L133.71161,8.61603
			L141.39343,8.61603L141.39343,32.07078L133.71161,32.07078z"/>
		<g font-family="'Arial'" font-size="1" kerning="0" font-weight="400" fill="#FFFFFF" clip-path="url(#SVG_CP_2)" >
			<text text-anchor="start" transform="matrix(12.00284 0 0 11.96671 119.3082 47.38817)" >
				<tspan direction="ltr" unicode-bidi="embed" x="0 ">-</tspan>
				<tspan direction="ltr" unicode-bidi="embed" x="0.31904 ">2</tspan>
				<tspan direction="ltr" unicode-bidi="embed" x="0.87735 ">0</tspan>
			</text>
		</g>
		<path clip-path="url(#SVG_CP_2)" fill="#1F4FFF" fill-rule="evenodd" stroke="none" d="M141.39343,32.07078L141.39343,8.61603
			L148.83518,8.61603L148.83518,32.07078L141.39343,32.07078z"/>
		<path clip-path="url(#SVG_CP_2)" fill="#366FFF" fill-rule="evenodd" stroke="none" d="M148.83518,32.07078L148.83518,8.61603
			L156.517,8.61603L156.517,32.07078L148.83518,32.07078z"/>
		<path clip-path="url(#SVG_CP_2)" fill="#4D8BFF" fill-rule="evenodd" stroke="none" d="M156.517,32.07078L156.517,8.61603L163.95876,8.61603
			L163.95876,32.07078L156.517,32.07078z"/>
		<path clip-path="url(#SVG_CP_2)" fill="#66A6FF" fill-rule="evenodd" stroke="none" d="M163.95876,32.07078L163.95876,8.61603
			L171.64058,8.61603L171.64058,32.07078L163.95876,32.07078z"/>
		<path clip-path="url(#SVG_CP_2)" fill="#0BAFE6" fill-rule="evenodd" stroke="none" d="M171.64058,32.07078L171.64058,8.61603
			L179.08233,8.61603L179.08233,32.07078L171.64058,32.07078z"/>
		<g font-family="'Arial'" font-size="1" kerning="0" font-weight="400" fill="#FFFFFF" clip-path="url(#SVG_CP_2)" >
			<text text-anchor="start" transform="matrix(12.00284 0 0 11.96671 156.99711 47.38817)" >
				<tspan direction="ltr" unicode-bidi="embed" x="0 ">-</tspan>
				<tspan direction="ltr" unicode-bidi="embed" x="0.31904 ">1</tspan>
				<tspan direction="ltr" unicode-bidi="embed" x="0.87735 ">0</tspan>
			</text>
		</g>
		<path clip-path="url(#SVG_CP_2)" fill="#2FBCEB" fill-rule="evenodd" stroke="none" d="M179.08233,32.07078L179.08233,8.61603
			L186.52409,8.61603L186.52409,32.07078L179.08233,32.07078z"/>
		<path clip-path="url(#SVG_CP_2)" fill="#51C8F0" fill-rule="evenodd" stroke="none" d="M186.52409,32.07078L186.52409,8.61603
			L194.20591,8.61603L194.20591,32.07078L186.52409,32.07078z"/>
		<path clip-path="url(#SVG_CP_2)" fill="#78D8F5" fill-rule="evenodd" stroke="none" d="M194.20591,32.07078L194.20591,8.61603
			L201.64767,8.61603L201.64767,32.07078L194.20591,32.07078z"/>
		<path clip-path="url(#SVG_CP_2)" fill="#9DE4FA" fill-rule="evenodd" stroke="none" d="M201.64767,32.07078L201.64767,8.61603
			L209.32948,8.61603L209.32948,32.07078L201.64767,32.07078z"/>
		<path clip-path="url(#SVG_CP_2)" fill="#E2FCAE" fill-rule="evenodd" stroke="none" d="M209.32948,32.07078L209.32948,8.61603
			L216.77124,8.61603L216.77124,32.07078L209.32948,32.07078z"/>
		<g font-family="'Arial'" font-size="1" kerning="0" font-weight="400" fill="#FFFFFF" clip-path="url(#SVG_CP_2)" >
			<text text-anchor="start" transform="matrix(12.00284 0 0 11.96671 205.48858 47.38817)" >
				<tspan direction="ltr" unicode-bidi="embed" x="0 ">0</tspan>
			</text>
		</g>
		<path clip-path="url(#SVG_CP_2)" fill="#CEF582" fill-rule="evenodd" stroke="none" d="M216.77124,32.07078L216.77124,8.61603
			L224.45306,8.61603L224.45306,32.07078L216.77124,32.07078z"/>
		<path clip-path="url(#SVG_CP_2)" fill="#BEF05B" fill-rule="evenodd" stroke="none" d="M224.45306,32.07078L224.45306,8.61603
			L231.89482,8.61603L231.89482,32.07078L224.45306,32.07078z"/>
		<path clip-path="url(#SVG_CP_2)" fill="#AEEB34" fill-rule="evenodd" stroke="none" d="M231.89482,32.07078L231.89482,8.61603
			L239.57663,8.61603L239.57663,32.07078L231.89482,32.07078z"/>
		<path clip-path="url(#SVG_CP_2)" fill="#9EE610" fill-rule="evenodd" stroke="none" d="M239.57663,32.07078L239.57663,8.61603
			L247.01839,8.61603L247.01839,32.07078L239.57663,32.07078z"/>
		<path clip-path="url(#SVG_CP_2)" fill="#FFFFB8" fill-rule="evenodd" stroke="none" d="M247.01839,32.07078L247.01839,8.61603
			L254.46015,8.61603L254.46015,32.07078L247.01839,32.07078z"/>
		<path clip-path="url(#SVG_CP_2)" fill="#FFFF8C" fill-rule="evenodd" stroke="none" d="M254.46015,32.07078L254.46015,8.61603
			L262.14197,8.61603L262.14197,32.07078L254.46015,32.07078z"/>
		<g font-family="'Arial'" font-size="1" kerning="0" font-weight="400" fill="#FFFFFF" clip-path="url(#SVG_CP_2)" >
			<text text-anchor="start" transform="matrix(12.00284 0 0 11.96671 244.13771 47.38817)" >
				<tspan direction="ltr" unicode-bidi="embed" x="0 ">1</tspan>
				<tspan direction="ltr" unicode-bidi="embed" x="0.53838 ">0</tspan>
			</text>
		</g>
		<path clip-path="url(#SVG_CP_2)" fill="#FFFF61" fill-rule="evenodd" stroke="none" d="M262.14197,32.07078L262.14197,8.61603
			L269.58373,8.61603L269.58373,32.07078L262.14197,32.07078z"/>
		<path clip-path="url(#SVG_CP_2)" fill="#FFFF38" fill-rule="evenodd" stroke="none" d="M269.58373,32.07078L269.58373,8.61603
			L277.26554,8.61603L277.26554,32.07078L269.58373,32.07078z"/>
		<path clip-path="url(#SVG_CP_2)" fill="#FFFF0D" fill-rule="evenodd" stroke="none" d="M277.26554,32.07078L277.26554,8.61603
			L284.7073,8.61603L284.7073,32.07078L277.26554,32.07078z"/>
		<path clip-path="url(#SVG_CP_2)" fill="#FFD9A6" fill-rule="evenodd" stroke="none" d="M284.7073,32.07078L284.7073,8.61603
			L292.38912,8.61603L292.38912,32.07078L284.7073,32.07078z"/>
		<path clip-path="url(#SVG_CP_2)" fill="#FFCC8C" fill-rule="evenodd" stroke="none" d="M292.38912,32.07078L292.38912,8.61603
			L299.83088,8.61603L299.83088,32.07078L292.38912,32.07078z"/>
		<g font-family="'Arial'" font-size="1" kerning="0" font-weight="400" fill="#FFFFFF" clip-path="url(#SVG_CP_2)" >
			<text text-anchor="start" transform="matrix(12.00284 0 0 11.96671 281.82662 47.38817)" >
				<tspan direction="ltr" unicode-bidi="embed" x="0 ">2</tspan>
				<tspan direction="ltr" unicode-bidi="embed" x="0.53838 ">0</tspan>
			</text>
		</g>
		<path clip-path="url(#SVG_CP_2)" fill="#FF9A4D" fill-rule="evenodd" stroke="none" d="M299.83088,32.07078L299.83088,8.61603
			L307.27264,8.61603L307.27264,32.07078L299.83088,32.07078z"/>
		<path clip-path="url(#SVG_CP_2)" fill="#FF802B" fill-rule="evenodd" stroke="none" d="M307.27264,32.07078L307.27264,8.61603
			L314.95445,8.61603L314.95445,32.07078L307.27264,32.07078z"/>
		<path clip-path="url(#SVG_CP_2)" fill="#FF5E08" fill-rule="evenodd" stroke="none" d="M314.95445,32.07078L314.95445,8.61603
			L322.39621,8.61603L322.39621,32.07078L314.95445,32.07078z"/>
		<path clip-path="url(#SVG_CP_2)" fill="#FF5E08" fill-rule="evenodd" stroke="none" d="M322.39621,32.07078L322.39621,8.61603
			L330.07803,8.61603L330.07803,32.07078L322.39621,32.07078z"/>
		<path clip-path="url(#SVG_CP_2)" fill="#FFA3A3" fill-rule="evenodd" stroke="none" d="M330.07803,32.07078L330.07803,8.61603
			L337.51979,8.61603L337.51979,32.07078L330.07803,32.07078z"/>
		<g font-family="'Arial'" font-size="1" kerning="0" font-weight="400" fill="#FFFFFF" clip-path="url(#SVG_CP_2)" >
			<text text-anchor="start" transform="matrix(12.00284 0 0 11.96671 319.51553 47.38817)" >
				<tspan direction="ltr" unicode-bidi="embed" x="0 ">3</tspan>
				<tspan direction="ltr" unicode-bidi="embed" x="0.53838 ">0</tspan>
			</text>
		</g>
		<path clip-path="url(#SVG_CP_2)" fill="#FF7D7D" fill-rule="evenodd" stroke="none" d="M337.51979,32.07078L337.51979,8.61603
			L345.2016,8.61603L345.2016,32.07078L337.51979,32.07078z"/>
		<path clip-path="url(#SVG_CP_2)" fill="#FF5454" fill-rule="evenodd" stroke="none" d="M345.2016,32.07078L345.2016,8.61603
			L352.64336,8.61603L352.64336,32.07078L345.2016,32.07078z"/>
		<path clip-path="url(#SVG_CP_2)" fill="#FF2E2E" fill-rule="evenodd" stroke="none" d="M352.64336,32.07078L352.64336,8.61603
			L360.32518,8.61603L360.32518,32.07078L352.64336,32.07078z"/>
		<path clip-path="url(#SVG_CP_2)" fill="#FF0505" fill-rule="evenodd" stroke="none" d="M360.32518,32.07078L360.32518,8.61603
			L367.76694,8.61603L367.76694,32.07078L360.32518,32.07078z"/>
		<path clip-path="url(#SVG_CP_2)" fill="#E69191" fill-rule="evenodd" stroke="none" d="M367.76694,32.07078L367.76694,8.61603
			L375.2087,8.61603L375.2087,32.07078L367.76694,32.07078z"/>
		<g font-family="'Arial'" font-size="1" kerning="0" font-weight="400" fill="#FFFFFF" clip-path="url(#SVG_CP_2)" >
			<text text-anchor="start" transform="matrix(12.00284 0 0 11.96671 357.4445 47.38817)" >
				<tspan direction="ltr" unicode-bidi="embed" x="0 ">4</tspan>
				<tspan direction="ltr" unicode-bidi="embed" x="0.53838 ">0</tspan>
			</text>
		</g>
		<path clip-path="url(#SVG_CP_2)" fill="#C95F5F" fill-rule="evenodd" stroke="none" d="M375.2087,32.07078L375.2087,8.61603
			L382.89051,8.61603L382.89051,32.07078L375.2087,32.07078z"/>
		<path clip-path="url(#SVG_CP_2)" fill="#AB3737" fill-rule="evenodd" stroke="none" d="M382.89051,32.07078L382.89051,8.61603
			L390.33227,8.61603L390.33227,32.07078L382.89051,32.07078z"/>
		<path clip-path="url(#SVG_CP_2)" fill="#8F1717" fill-rule="evenodd" stroke="none" d="M390.33227,32.07078L390.33227,8.61603
			L398.01409,8.61603L398.01409,32.07078L390.33227,32.07078z"/>
		<path clip-path="url(#SVG_CP_2)" fill="#730101" fill-rule="evenodd" stroke="none" d="M398.01409,32.07078L398.01409,8.61603
			L405.45585,8.61603L405.45585,32.07078L398.01409,32.07078z"/>
		<g font-family="'Arial'" font-size="1" kerning="0" font-weight="400" fill="#FFFFFF" clip-path="url(#SVG_CP_2)" >
			<text text-anchor="start" transform="matrix(12.00284 0 0 11.96671 387.45159 47.38817)" >
				<tspan direction="ltr" unicode-bidi="embed" x="0 ">5</tspan>
				<tspan direction="ltr" unicode-bidi="embed" x="0.53838 ">0</tspan>
			</text>
		</g>
	</g>
</svg>
