<?xml version="1.0" encoding="utf-8" standalone="no"?>
<!-- Creator: Esri ArcMap 10.5.0.6491 -->
<!DOCTYPE svg PUBLIC "-//W3C//DTD SVG 1.1//EN"  "http://www.w3.org/Graphics/SVG/1.1/DTD/svg11.dtd">
<svg width="426.92598pt" height="47.25354pt" viewBox="0 0 426.92598 47.25354" enable-background="new 0 0 426.92598 47.25354"
	version="1.1" xmlns="http://www.w3.org/2000/svg" xmlns:xlink="http://www.w3.org/1999/xlink" >
	<g id="Other">
		<clipPath id="SVG_CP_1">
			<path d="M0,47.25354L0,0L426.89028,0L426.89028,47.25354L0,47.25354z"/>
		</clipPath>
		<path clip-path="url(#SVG_CP_1)" fill="#4D4D4D" fill-rule="evenodd" stroke="none" d="M10.07835,26.13377L10.07835,6.23374
			L18.23702,6.23374L18.23702,26.13377L10.07835,26.13377z"/>
		<g font-family="'Arial'" font-size="1" kerning="0" font-weight="400" fill="#000000" clip-path="url(#SVG_CP_1)" >
			<text text-anchor="start" transform="matrix(11.99804 0 0 11.98797 4.07933 40.27957)" >
				<tspan direction="ltr" unicode-bidi="embed" x="0 ">-</tspan>
				<tspan direction="ltr" unicode-bidi="embed" x="0.31973 ">5</tspan>
				<tspan direction="ltr" unicode-bidi="embed" x="0.87926 ">0</tspan>
			</text>
		</g>
		<path clip-path="url(#SVG_CP_1)" fill="#616161" fill-rule="evenodd" stroke="none" d="M18.23702,26.13377L18.23702,6.23374
			L26.15573,6.23374L26.15573,26.13377L18.23702,26.13377z"/>
		<path clip-path="url(#SVG_CP_1)" fill="#757575" fill-rule="evenodd" stroke="none" d="M26.15573,26.13377L26.15573,6.23374
			L34.07444,6.23374L34.07444,26.13377L26.15573,26.13377z"/>
		<path clip-path="url(#SVG_CP_1)" fill="#8A8A8A" fill-rule="evenodd" stroke="none" d="M34.07444,26.13377L34.07444,6.23374
			L42.2331,6.23374L42.2331,26.13377L34.07444,26.13377z"/>
		<path clip-path="url(#SVG_CP_1)" fill="#9E9E9E" fill-rule="evenodd" stroke="none" d="M42.2331,26.13377L42.2331,6.23374L50.15181,6.23374
			L50.15181,26.13377L42.2331,26.13377z"/>
		<path clip-path="url(#SVG_CP_1)" fill="#4D0073" fill-rule="evenodd" stroke="none" d="M50.15181,26.13377L50.15181,6.23374
			L58.07052,6.23374L58.07052,26.13377L50.15181,26.13377z"/>
		<clipPath id="SVG_CP_2">
			<path d="M0,47.25354L0,0L426.89028,0L426.89028,47.25354L0,47.25354z"/>
		</clipPath>
		<g font-family="'Arial'" font-size="1" kerning="0" font-weight="400" fill="#000000" clip-path="url(#SVG_CP_2)" >
			<text text-anchor="start" transform="matrix(11.99804 0 0 11.98797 44.15279 40.27957)" >
				<tspan direction="ltr" unicode-bidi="embed" x="0 ">-</tspan>
				<tspan direction="ltr" unicode-bidi="embed" x="0.31973 ">4</tspan>
				<tspan direction="ltr" unicode-bidi="embed" x="0.87926 ">0</tspan>
			</text>
		</g>
		<path clip-path="url(#SVG_CP_2)" fill="#630091" fill-rule="evenodd" stroke="none" d="M58.07052,26.13377L58.07052,6.23374
			L66.22918,6.23374L66.22918,26.13377L58.07052,26.13377z"/>
		<path clip-path="url(#SVG_CP_2)" fill="#7900AD" fill-rule="evenodd" stroke="none" d="M66.22918,26.13377L66.22918,6.23374
			L74.14789,6.23374L74.14789,26.13377L66.22918,26.13377z"/>
		<path clip-path="url(#SVG_CP_2)" fill="#9200CC" fill-rule="evenodd" stroke="none" d="M74.14789,26.13377L74.14789,6.23374
			L82.0666,6.23374L82.0666,26.13377L74.14789,26.13377z"/>
		<path clip-path="url(#SVG_CP_2)" fill="#AE00E8" fill-rule="evenodd" stroke="none" d="M82.0666,26.13377L82.0666,6.23374L90.22526,6.23374
			L90.22526,26.13377L82.0666,26.13377z"/>
		<path clip-path="url(#SVG_CP_2)" fill="#290D85" fill-rule="evenodd" stroke="none" d="M90.22526,26.13377L90.22526,6.23374
			L98.14397,6.23374L98.14397,26.13377L90.22526,26.13377z"/>
		<g font-family="'Arial'" font-size="1" kerning="0" font-weight="400" fill="#000000" clip-path="url(#SVG_CP_2)" >
			<text text-anchor="start" transform="matrix(11.99804 0 0 11.98797 84.22624 40.27957)" >
				<tspan direction="ltr" unicode-bidi="embed" x="0 ">-</tspan>
				<tspan direction="ltr" unicode-bidi="embed" x="0.31973 ">3</tspan>
				<tspan direction="ltr" unicode-bidi="embed" x="0.87926 ">0</tspan>
			</text>
		</g>
		<path clip-path="url(#SVG_CP_2)" fill="#240C9C" fill-rule="evenodd" stroke="none" d="M98.14397,26.13377L98.14397,6.23374
			L106.06268,6.23374L106.06268,26.13377L98.14397,26.13377z"/>
		<path clip-path="url(#SVG_CP_2)" fill="#1B0BB3" fill-rule="evenodd" stroke="none" d="M106.06268,26.13377L106.06268,6.23374
			L114.22134,6.23374L114.22134,26.13377L106.06268,26.13377z"/>
		<path clip-path="url(#SVG_CP_2)" fill="#0F08CC" fill-rule="evenodd" stroke="none" d="M114.22134,26.13377L114.22134,6.23374
			L122.14005,6.23374L122.14005,26.13377L114.22134,26.13377z"/>
		<path clip-path="url(#SVG_CP_2)" fill="#050CE3" fill-rule="evenodd" stroke="none" d="M122.14005,26.13377L122.14005,6.23374
			L130.05876,6.23374L130.05876,26.13377L122.14005,26.13377z"/>
		<path clip-path="url(#SVG_CP_2)" fill="#082DFF" fill-rule="evenodd" stroke="none" d="M130.05876,26.13377L130.05876,6.23374
			L138.21743,6.23374L138.21743,26.13377L130.05876,26.13377z"/>
		<g font-family="'Arial'" font-size="1" kerning="0" font-weight="400" fill="#000000" clip-path="url(#SVG_CP_2)" >
			<text text-anchor="start" transform="matrix(11.99804 0 0 11.98797 124.05974 40.27957)" >
				<tspan direction="ltr" unicode-bidi="embed" x="0 ">-</tspan>
				<tspan direction="ltr" unicode-bidi="embed" x="0.31973 ">2</tspan>
				<tspan direction="ltr" unicode-bidi="embed" x="0.87926 ">0</tspan>
			</text>
		</g>
		<path clip-path="url(#SVG_CP_2)" fill="#1F4FFF" fill-rule="evenodd" stroke="none" d="M138.21743,26.13377L138.21743,6.23374
			L146.13613,6.23374L146.13613,26.13377L138.21743,26.13377z"/>
		<path clip-path="url(#SVG_CP_2)" fill="#366FFF" fill-rule="evenodd" stroke="none" d="M146.13613,26.13377L146.13613,6.23374
			L154.05484,6.23374L154.05484,26.13377L146.13613,26.13377z"/>
		<path clip-path="url(#SVG_CP_2)" fill="#4D8BFF" fill-rule="evenodd" stroke="none" d="M154.05484,26.13377L154.05484,6.23374
			L162.21351,6.23374L162.21351,26.13377L154.05484,26.13377z"/>
		<path clip-path="url(#SVG_CP_2)" fill="#66A6FF" fill-rule="evenodd" stroke="none" d="M162.21351,26.13377L162.21351,6.23374
			L170.13221,6.23374L170.13221,26.13377L162.21351,26.13377z"/>
		<path clip-path="url(#SVG_CP_2)" fill="#0BAFE6" fill-rule="evenodd" stroke="none" d="M170.13221,26.13377L170.13221,6.23374
			L178.05092,6.23374L178.05092,26.13377L170.13221,26.13377z"/>
		<g font-family="'Arial'" font-size="1" kerning="0" font-weight="400" fill="#000000" clip-path="url(#SVG_CP_2)" >
			<text text-anchor="start" transform="matrix(11.99804 0 0 11.98797 164.13319 40.27957)" >
				<tspan direction="ltr" unicode-bidi="embed" x="0 ">-</tspan>
				<tspan direction="ltr" unicode-bidi="embed" x="0.31973 ">1</tspan>
				<tspan direction="ltr" unicode-bidi="embed" x="0.87926 ">0</tspan>
			</text>
		</g>
		<path clip-path="url(#SVG_CP_2)" fill="#2FBCEB" fill-rule="evenodd" stroke="none" d="M178.05092,26.13377L178.05092,6.23374
			L186.20959,6.23374L186.20959,26.13377L178.05092,26.13377z"/>
		<path clip-path="url(#SVG_CP_2)" fill="#51C8F0" fill-rule="evenodd" stroke="none" d="M186.20959,26.13377L186.20959,6.23374
			L194.12829,6.23374L194.12829,26.13377L186.20959,26.13377z"/>
		<path clip-path="url(#SVG_CP_2)" fill="#78D8F5" fill-rule="evenodd" stroke="none" d="M194.12829,26.13377L194.12829,6.23374
			L202.047,6.23374L202.047,26.13377L194.12829,26.13377z"/>
		<path clip-path="url(#SVG_CP_2)" fill="#9DE4FA" fill-rule="evenodd" stroke="none" d="M202.047,26.13377L202.047,6.23374L210.20567,6.23374
			L210.20567,26.13377L202.047,26.13377z"/>
		<path clip-path="url(#SVG_CP_2)" fill="#E2FCAE" fill-rule="evenodd" stroke="none" d="M210.20567,26.13377L210.20567,6.23374
			L218.12437,6.23374L218.12437,26.13377L210.20567,26.13377z"/>
		<g font-family="'Arial'" font-size="1" kerning="0" font-weight="400" fill="#000000" clip-path="url(#SVG_CP_2)" >
			<text text-anchor="start" transform="matrix(11.99804 0 0 11.98797 215.00488 40.27957)" >
				<tspan direction="ltr" unicode-bidi="embed" x="0 ">0</tspan>
			</text>
		</g>
		<path clip-path="url(#SVG_CP_2)" fill="#CEF582" fill-rule="evenodd" stroke="none" d="M218.12437,26.13377L218.12437,6.23374
			L226.04308,6.23374L226.04308,26.13377L218.12437,26.13377z"/>
		<path clip-path="url(#SVG_CP_2)" fill="#BEF05B" fill-rule="evenodd" stroke="none" d="M226.04308,26.13377L226.04308,6.23374
			L234.20175,6.23374L234.20175,26.13377L226.04308,26.13377z"/>
		<path clip-path="url(#SVG_CP_2)" fill="#AEEB34" fill-rule="evenodd" stroke="none" d="M234.20175,26.13377L234.20175,6.23374
			L242.12045,6.23374L242.12045,26.13377L234.20175,26.13377z"/>
		<path clip-path="url(#SVG_CP_2)" fill="#9EE610" fill-rule="evenodd" stroke="none" d="M242.12045,26.13377L242.12045,6.23374
			L250.03916,6.23374L250.03916,26.13377L242.12045,26.13377z"/>
		<path clip-path="url(#SVG_CP_2)" fill="#FFFFB8" fill-rule="evenodd" stroke="none" d="M250.03916,26.13377L250.03916,6.23374
			L258.19783,6.23374L258.19783,26.13377L250.03916,26.13377z"/>
		<path clip-path="url(#SVG_CP_2)" fill="#FFFF8C" fill-rule="evenodd" stroke="none" d="M258.19783,26.13377L258.19783,6.23374
			L266.11654,6.23374L266.11654,26.13377L258.19783,26.13377z"/>
		<g font-family="'Arial'" font-size="1" kerning="0" font-weight="400" fill="#000000" clip-path="url(#SVG_CP_2)" >
			<text text-anchor="start" transform="matrix(11.99804 0 0 11.98797 256.27814 40.27957)" >
				<tspan direction="ltr" unicode-bidi="embed" x="0 ">1</tspan>
				<tspan direction="ltr" unicode-bidi="embed" x="0.53955 ">0</tspan>
			</text>
		</g>
		<path clip-path="url(#SVG_CP_2)" fill="#FFFF61" fill-rule="evenodd" stroke="none" d="M266.11654,26.13377L266.11654,6.23374
			L274.03524,6.23374L274.03524,26.13377L266.11654,26.13377z"/>
		<path clip-path="url(#SVG_CP_2)" fill="#FFFF38" fill-rule="evenodd" stroke="none" d="M274.03524,26.13377L274.03524,6.23374
			L282.19391,6.23374L282.19391,26.13377L274.03524,26.13377z"/>
		<path clip-path="url(#SVG_CP_2)" fill="#FFFF0D" fill-rule="evenodd" stroke="none" d="M282.19391,26.13377L282.19391,6.23374
			L290.11262,6.23374L290.11262,26.13377L282.19391,26.13377z"/>
		<path clip-path="url(#SVG_CP_2)" fill="#FFD9A6" fill-rule="evenodd" stroke="none" d="M290.11262,26.13377L290.11262,6.23374
			L298.03132,6.23374L298.03132,26.13377L290.11262,26.13377z"/>
		<path clip-path="url(#SVG_CP_2)" fill="#FFCC8C" fill-rule="evenodd" stroke="none" d="M298.03132,26.13377L298.03132,6.23374
			L306.18999,6.23374L306.18999,26.13377L298.03132,26.13377z"/>
		<g font-family="'Arial'" font-size="1" kerning="0" font-weight="400" fill="#000000" clip-path="url(#SVG_CP_2)" >
			<text text-anchor="start" transform="matrix(11.99804 0 0 11.98797 296.11164 40.27957)" >
				<tspan direction="ltr" unicode-bidi="embed" x="0 ">2</tspan>
				<tspan direction="ltr" unicode-bidi="embed" x="0.53955 ">0</tspan>
			</text>
		</g>
		<path clip-path="url(#SVG_CP_2)" fill="#FF9A4D" fill-rule="evenodd" stroke="none" d="M306.18999,26.13377L306.18999,6.23374
			L314.1087,6.23374L314.1087,26.13377L306.18999,26.13377z"/>
		<path clip-path="url(#SVG_CP_2)" fill="#FF802B" fill-rule="evenodd" stroke="none" d="M314.1087,26.13377L314.1087,6.23374
			L322.0274,6.23374L322.0274,26.13377L314.1087,26.13377z"/>
		<path clip-path="url(#SVG_CP_2)" fill="#FF5E08" fill-rule="evenodd" stroke="none" d="M322.0274,26.13377L322.0274,6.23374
			L330.18607,6.23374L330.18607,26.13377L322.0274,26.13377z"/>
		<path clip-path="url(#SVG_CP_2)" fill="#FF5E08" fill-rule="evenodd" stroke="none" d="M330.18607,26.13377L330.18607,6.23374
			L338.10478,6.23374L338.10478,26.13377L330.18607,26.13377z"/>
		<path clip-path="url(#SVG_CP_2)" fill="#FFA3A3" fill-rule="evenodd" stroke="none" d="M338.10478,26.13377L338.10478,6.23374
			L346.02348,6.23374L346.02348,26.13377L338.10478,26.13377z"/>
		<g font-family="'Arial'" font-size="1" kerning="0" font-weight="400" fill="#000000" clip-path="url(#SVG_CP_2)" >
			<text text-anchor="start" transform="matrix(11.99804 0 0 11.98797 336.18509 40.27957)" >
				<tspan direction="ltr" unicode-bidi="embed" x="0 ">3</tspan>
				<tspan direction="ltr" unicode-bidi="embed" x="0.53955 ">0</tspan>
			</text>
		</g>
		<path clip-path="url(#SVG_CP_2)" fill="#FF7D7D" fill-rule="evenodd" stroke="none" d="M346.02348,26.13377L346.02348,6.23374
			L354.18215,6.23374L354.18215,26.13377L346.02348,26.13377z"/>
		<path clip-path="url(#SVG_CP_2)" fill="#FF5454" fill-rule="evenodd" stroke="none" d="M354.18215,26.13377L354.18215,6.23374
			L362.10086,6.23374L362.10086,26.13377L354.18215,26.13377z"/>
		<path clip-path="url(#SVG_CP_2)" fill="#FF2E2E" fill-rule="evenodd" stroke="none" d="M362.10086,26.13377L362.10086,6.23374
			L370.01956,6.23374L370.01956,26.13377L362.10086,26.13377z"/>
		<path clip-path="url(#SVG_CP_2)" fill="#FF0505" fill-rule="evenodd" stroke="none" d="M370.01956,26.13377L370.01956,6.23374
			L378.17823,6.23374L378.17823,26.13377L370.01956,26.13377z"/>
		<path clip-path="url(#SVG_CP_2)" fill="#E69191" fill-rule="evenodd" stroke="none" d="M378.17823,26.13377L378.17823,6.23374
			L386.09694,6.23374L386.09694,26.13377L378.17823,26.13377z"/>
		<g font-family="'Arial'" font-size="1" kerning="0" font-weight="400" fill="#000000" clip-path="url(#SVG_CP_2)" >
			<text text-anchor="start" transform="matrix(11.99804 0 0 11.98797 376.25855 40.27957)" >
				<tspan direction="ltr" unicode-bidi="embed" x="0 ">4</tspan>
				<tspan direction="ltr" unicode-bidi="embed" x="0.53955 ">0</tspan>
			</text>
		</g>
		<path clip-path="url(#SVG_CP_2)" fill="#C95F5F" fill-rule="evenodd" stroke="none" d="M386.09694,26.13377L386.09694,6.23374
			L394.01565,6.23374L394.01565,26.13377L386.09694,26.13377z"/>
		<path clip-path="url(#SVG_CP_2)" fill="#AB3737" fill-rule="evenodd" stroke="none" d="M394.01565,26.13377L394.01565,6.23374
			L402.17431,6.23374L402.17431,26.13377L394.01565,26.13377z"/>
		<path clip-path="url(#SVG_CP_2)" fill="#8F1717" fill-rule="evenodd" stroke="none" d="M402.17431,26.13377L402.17431,6.23374
			L410.09302,6.23374L410.09302,26.13377L402.17431,26.13377z"/>
		<path clip-path="url(#SVG_CP_2)" fill="#730101" fill-rule="evenodd" stroke="none" d="M410.09302,26.13377L410.09302,6.23374
			L418.01173,6.23374L418.01173,26.13377L410.09302,26.13377z"/>
		<g font-family="'Arial'" font-size="1" kerning="0" font-weight="400" fill="#000000" clip-path="url(#SVG_CP_2)" >
			<text text-anchor="start" transform="matrix(11.99804 0 0 11.98797 408.17333 40.27957)" >
				<tspan direction="ltr" unicode-bidi="embed" x="0 ">5</tspan>
				<tspan direction="ltr" unicode-bidi="embed" x="0.53955 ">0</tspan>
			</text>
		</g>
	</g>
</svg>
