<?xml version="1.0"?>
<svg xmlns="http://www.w3.org/2000/svg" id="Capa_1" enable-background="new 0 0 512.089 512.089" height="512px" viewBox="0 0 512.089 512.089" width="512px" class=""><g><path d="m434.17 140.249c-4.549-15.224-10.877-29.439-18.695-42.474-42.65-71.174-129.521-107.275-212.666-82.431-39.821 11.899-72.674 35.944-95.738 66.884-33.932 45.502-46.667 105.912-29.167 164.477 17.806 59.589 62.833 103.606 117.437 122.512 5.659 1.96 11.422 3.647 17.268 5.055 6.844 1.648 11.633 7.821 11.633 14.86v13.307c0 11.357 9.207 20.564 20.564 20.564 11.357 0 20.564-9.207 20.564-20.564v-9.228c0-7.777 5.838-14.249 13.555-15.213 9.054-1.132 18.134-2.945 27.178-5.478 1.056-.289 2.107-.594 3.163-.91 98.376-29.396 154.3-132.983 124.904-231.361z" fill="#80b4fb" data-original="#80B4FB" class=""/><path d="m434.17 140.249c-4.549-15.224-10.877-29.439-18.695-42.474-23.328-38.931-59.887-67.368-101.829-81.078 31.545 15.547 58.644 39.96 77.291 71.078 7.817 13.035 14.145 27.25 18.695 42.474 29.396 98.377-26.528 201.964-124.905 231.36-1.057.316-2.108.621-3.163.91-9.044 2.533-18.123 4.346-27.178 5.478-7.717.965-13.555 7.436-13.555 15.213v9.228c0 9.144-5.972 16.884-14.226 19.558 3.442 6.541 10.295 11.006 18.199 11.006 11.357 0 20.564-9.207 20.564-20.564v-9.228c0-7.777 5.838-14.249 13.555-15.213 9.054-1.132 18.134-2.945 27.178-5.478 1.056-.289 2.107-.594 3.163-.91 98.378-29.395 154.302-132.982 124.906-231.36z" fill="#61a2f9" data-original="#61A2F9"/><path d="m232.05 68.229c-13.341 2.242-24.461 11.476-28.96 24.234-4.715 13.37-8.867 31.064-6.263 47.748 5.125 32.832 39.185 18.749 48.265 38.684 9.081 19.935 67.246-15.408 54.805-75.34-10.668-51.386-31.703-41.399-67.847-35.326z" fill="#9bd069" data-original="#9BD069" class=""/><path d="m299.897 103.556c-8.202-39.51-22.535-42.736-45.15-39.357 11.402 2.98 19.505 13.238 24.928 39.357 8.194 39.472-14.238 68.274-33.104 77.646 12.587 14.466 65.22-20.35 53.326-77.646z" fill="#7dbe3b" data-original="#7DBE3B" class=""/><path d="m434.17 140.249c-4.549-15.224-10.877-29.439-18.695-42.474 0 0-35.018 14.607-61.079 84.763-21.874 58.864 7.274 90.954-31.104 120.511-26.963 20.763-29.8 50.678-17.19 69.471 8.633-2.363 16.973-5.328 24.983-8.839 12.896-5.652 27.355 3.706 27.355 17.786v102.544c0 11.357 9.207 20.564 20.564 20.564 11.357 0 20.564-9.207 20.564-20.564v-157.605c0-9.108 2.859-17.972 8.118-25.408 31.611-44.698 43.683-103.188 26.484-160.749z" fill="#9bd069" data-original="#9BD069" class=""/><path d="m434.17 140.249c-4.549-15.224-10.877-29.439-18.695-42.474 0 0-5.926 2.476-14.713 10.265 5.229 10.132 9.598 20.89 12.98 32.209 17.2 57.561 5.127 116.05-26.485 160.748-5.259 7.436-8.118 16.301-8.118 25.408v157.606c0 7.636-4.171 14.284-10.35 17.832 3.011 1.729 6.492 2.732 10.214 2.732 11.357 0 20.564-9.207 20.564-20.564v-157.605c0-9.108 2.859-17.972 8.119-25.408 31.611-44.698 43.683-103.188 26.484-160.749z" fill="#7dbe3b" data-original="#7DBE3B" class=""/><path d="m150.293 209.155c-16.037-38.469-5.474-53.463-9.084-86.553-3.612-33.097-34.137-40.374-34.137-40.374-33.933 45.502-46.668 105.912-29.168 164.477 6.581 22.023 16.882 41.917 30.01 59.204 4.992 6.574 7.758 14.566 7.758 22.82v79.41c0 11.15 8.671 20.647 19.814 21.043 11.699.416 21.313-8.944 21.313-20.55v-33.955c0-10.432 10.844-17.318 20.286-12.884 5.944 2.791 12.037 5.271 18.256 7.424 8.739-13.422 16.041-28.159 19.82-43.455 14.534-58.743-53.886-90.254-64.868-116.607z" fill="#9bd069" data-original="#9BD069" class=""/><path d="m157.745 362.156c-9.442-4.435-20.286 2.452-20.286 12.884v33.955c0 7.692-4.226 14.395-10.481 17.921 2.566 1.336 5.437 2.156 8.507 2.265 11.699.416 21.313-8.944 21.313-20.55v-33.955c0-4.407 1.94-8.176 4.887-10.732-1.319-.583-2.635-1.174-3.94-1.788z" fill="#7dbe3b" data-original="#7DBE3B" class=""/><path d="m150.293 209.155c-16.037-38.469-5.474-53.463-9.084-86.553-3.612-33.097-34.137-40.374-34.137-40.374-1.742 2.337-3.414 4.722-5.044 7.135 8.475 5.8 17.929 16.082 19.841 33.603 3.61 33.089-6.953 48.084 9.084 86.553 10.982 26.353 79.402 57.865 64.868 116.607-3.182 12.881-8.868 25.361-15.801 36.998 5.012 2.249 10.12 4.292 15.321 6.093 8.739-13.422 16.041-28.159 19.82-43.455 14.534-58.743-53.886-90.254-64.868-116.607z" fill="#7dbe3b" data-original="#7DBE3B" class=""/><path d="m245.889 504.575c-11.357 0-20.564-9.207-20.564-20.564v-16.548c0-11.357 9.207-20.564 20.564-20.564 11.357 0 20.564 9.207 20.564 20.564v16.548c-.001 11.357-9.207 20.564-20.564 20.564z" fill="#80b4fb" data-original="#80B4FB" class=""/><path d="m245.889 446.9c-2.691 0-5.253.531-7.609 1.471 7.587 3.027 12.955 10.426 12.955 19.092v16.548c0 8.666-5.368 16.066-12.955 19.092 2.355.94 4.918 1.471 7.609 1.471 11.357 0 20.564-9.207 20.564-20.564v-16.548c-.001-11.356-9.207-20.562-20.564-20.562z" fill="#61a2f9" data-original="#61A2F9"/><path d="m245.897 439.414c-15.474 0-28.063 12.589-28.063 28.063v16.548c0 15.475 12.589 28.064 28.063 28.064 15.475 0 28.063-12.589 28.063-28.064v-16.548c.001-15.474-12.588-28.063-28.063-28.063zm13.064 44.611c0 7.203-5.86 13.063-13.063 13.063s-13.063-5.86-13.063-13.063v-16.548c0-7.203 5.86-13.063 13.063-13.063s13.063 5.86 13.063 13.063z" data-original="#000000" class="active-path" data-old_color="#000000" style="fill:#FFFDFD"/><path d="m189.846 392.681c-4.142 0-7.5 3.357-7.5 7.5v46.733c0 4.143 3.358 7.5 7.5 7.5s7.5-3.357 7.5-7.5v-46.733c0-4.143-3.358-7.5-7.5-7.5z" data-original="#000000" class="active-path" data-old_color="#000000" style="fill:#FFFDFD"/><path d="m83.738 327.947c-4.142 0-7.5 3.357-7.5 7.5v55.733c0 4.143 3.358 7.5 7.5 7.5s7.5-3.357 7.5-7.5v-55.733c0-4.142-3.358-7.5-7.5-7.5z" data-original="#000000" class="active-path" data-old_color="#000000" style="fill:#FFFDFD"/><path d="m433.605 325.556c-4.143 0-7.5 3.357-7.5 7.5v15.866c0 4.143 3.357 7.5 7.5 7.5s7.5-3.357 7.5-7.5v-15.866c0-4.143-3.357-7.5-7.5-7.5z" data-original="#000000" class="active-path" data-old_color="#000000" style="fill:#FFFDFD"/><path d="m325.395 413.775c-4.143 0-7.5 3.357-7.5 7.5v15.866c0 4.143 3.357 7.5 7.5 7.5s7.5-3.357 7.5-7.5v-15.866c0-4.142-3.357-7.5-7.5-7.5z" data-original="#000000" class="active-path" data-old_color="#000000" style="fill:#FFFDFD"/><path d="m83.738 414.775c-4.142 0-7.5 3.357-7.5 7.5v15.866c0 4.143 3.358 7.5 7.5 7.5s7.5-3.357 7.5-7.5v-15.866c0-4.142-3.358-7.5-7.5-7.5z" data-original="#000000" class="active-path" data-old_color="#000000" style="fill:#FFFDFD"/><path d="m433.605 370.059c-4.143 0-7.5 3.357-7.5 7.5v55.422c0 4.143 3.357 7.5 7.5 7.5s7.5-3.357 7.5-7.5v-55.422c0-4.143-3.357-7.5-7.5-7.5z" data-original="#000000" class="active-path" data-old_color="#000000" style="fill:#FFFDFD"/><path d="m233.301 75.639c3.749-.63 7.29-1.292 10.713-1.933 13.677-2.558 24.481-4.577 31.736-1.31 4.747 2.138 11.653 7.854 16.811 32.697.932 4.488 1.454 9.018 1.553 13.465.092 4.141 3.545 7.451 7.664 7.332 4.142-.092 7.424-3.523 7.332-7.665-.119-5.357-.745-10.801-1.861-16.18-5.055-24.347-12.868-37.708-25.337-43.325-11.549-5.202-25.038-2.678-40.655.242-3.357.627-6.829 1.277-10.441 1.884-16.075 2.701-29.406 13.866-34.791 29.137-6.726 19.073-8.946 36.366-6.6 51.398 3.685 23.608 20.396 28.188 32.598 31.531 8.575 2.35 13.948 4.047 16.252 9.105 2.895 6.354 8.904 9.977 16.521 9.977.115 0 .231-.001.347-.002 7.978-.114 17.521-4.272 26.182-11.409 6.45-5.314 15.428-14.71 21.572-29.293 1.608-3.817-.182-8.215-3.999-9.824-3.816-1.606-8.216.182-9.823 4-8.586 20.375-25.348 31.402-34.147 31.528-2.455.059-2.807-.765-3.003-1.194-5.333-11.708-16.28-14.708-25.938-17.354-12.488-3.422-19.655-6.009-21.742-19.378-2.44-15.636 1.875-32.61 5.926-44.097 3.572-10.127 12.434-17.535 23.13-19.332z" data-original="#000000" class="active-path" data-old_color="#000000" style="fill:#FFFDFD"/><path d="m441.364 138.116c-30.554-102.248-138.047-160.617-240.694-129.944-10.666 3.187-21.117 7.315-31.063 12.269-3.708 1.847-5.216 6.35-3.37 10.057 1.847 3.707 6.349 5.216 10.057 3.37 9.179-4.572 18.825-8.382 28.67-11.324 75.811-22.651 156.952 7.179 200.053 72.683-12.452 8.458-37.754 31.169-57.644 84.713-9.894 26.623-9.848 48.302-9.811 65.721.047 22.215.078 36.891-18.84 51.46-14.065 10.831-23.13 24.641-26.212 39.935-2.138 10.612-1.22 21.147 2.548 30.528-5.648 1.27-11.356 2.274-17.059 2.986-11.473 1.435-20.124 11.174-20.124 22.655v9.229c0 7.203-5.86 13.063-13.063 13.063s-13.063-5.86-13.063-13.063v-13.308c0-10.579-7.146-19.688-17.376-22.15-2.54-.612-5.076-1.291-7.598-2.017 7.421-12.754 12.685-25.301 15.674-37.401 10.951-44.258-20.543-74.382-43.539-96.377-9.665-9.244-18.793-17.976-21.686-24.917v-.001c-9.737-23.357-9.022-37.211-8.194-53.252.481-9.333.979-18.982-.357-31.229-2.73-25.011-18.562-37.258-29.444-42.8 9.516-11.395 20.375-21.558 32.429-30.251 3.359-2.423 4.119-7.111 1.696-10.47-2.422-3.359-7.109-4.119-10.47-1.696-41.484 29.917-68.225 74.272-77.048 121.623-5.658 30.363-4.012 60.865 4.89 90.658 6.694 22.403 17.199 43.125 31.223 61.591 4.018 5.292 6.231 11.786 6.231 18.285v79.409c0 15.206 12.133 28.009 27.048 28.539.345.013.688.019 1.03.019 7.31 0 14.192-2.773 19.473-7.87 5.53-5.338 8.576-12.51 8.576-20.194v-33.955c0-3.342 2.184-5.089 3.123-5.686s3.45-1.832 6.475-.409c11.574 5.433 23.918 9.841 36.957 12.982 3.467.834 5.888 3.946 5.888 7.567v13.308c0 15.475 12.589 28.063 28.063 28.063 15.475 0 28.063-12.589 28.063-28.063v-9.229c0-3.933 3.003-7.272 6.985-7.771 18.306-2.289 37.366-7.493 54.241-14.891 3.813-1.671 7.985-1.329 11.451.936 3.428 2.24 5.394 5.879 5.394 9.982v102.544c0 15.475 12.589 28.064 28.063 28.064s28.063-12.589 28.063-28.064v-22.272c0-4.143-3.357-7.5-7.5-7.5s-7.5 3.357-7.5 7.5v22.272c0 7.203-5.86 13.063-13.063 13.063s-13.063-5.86-13.063-13.063v-102.542c0-9.125-4.557-17.551-12.188-22.539-7.669-5.011-17.271-5.803-25.679-2.117-5.966 2.615-12.124 4.909-18.373 6.846-7.213-15.605-3.519-37.967 18.167-54.665 24.781-19.085 24.737-39.61 24.688-63.376-.036-17.055-.077-36.385 8.871-60.465 12.759-34.346 27.623-54.426 37.847-65.223 5.389-5.691 10.08-9.462 13.464-11.828 5.896 10.847 10.678 22.353 14.247 34.297 15.796 52.863 6.53 109.092-25.423 154.271-6.211 8.783-9.494 19.067-9.494 29.739v105.347c0 4.143 3.357 7.5 7.5 7.5s7.5-3.357 7.5-7.5v-105.348c0-7.553 2.331-14.842 6.741-21.078 34.632-48.966 44.673-109.917 27.549-167.226zm-281.975 218.227c-6.313 4.009-10.081 10.868-10.081 18.348v33.954c0 3.577-1.418 6.916-3.993 9.401-2.573 2.483-5.959 3.794-9.554 3.654-6.937-.247-12.581-6.325-12.581-13.549v-79.409c0-9.755-3.297-19.471-9.285-27.356-12.931-17.028-22.62-36.143-28.796-56.814-8.213-27.486-9.732-55.619-4.516-83.616 4.645-24.927 14.741-48.941 29.303-69.788 7.453 3.241 21.665 12.006 23.876 32.262 1.205 11.048.739 20.087.288 28.828-.883 17.123-1.718 33.296 9.33 59.797 4.101 9.839 13.862 19.176 25.163 29.986 22.597 21.614 48.209 46.112 39.345 81.937-2.853 11.55-8.113 23.681-15.661 36.131-4.042-1.553-8.041-3.256-11.945-5.089-6.77-3.182-14.581-2.686-20.893 1.323z" data-original="#000000" class="active-path" data-old_color="#000000" style="fill:#FFFDFD"/></g> </svg>
