<svg id="Слой_1" data-name="Слой 1" xmlns="http://www.w3.org/2000/svg" viewBox="0 0 136.6 58.11"><defs><style>.cls-1{fill:#3f5d71;}.cls-2{fill:#fff;}.cls-3{fill:#b4d3e4;}.cls-4,.cls-5{fill:#4b76b9;}.cls-4{stroke:#fff;stroke-miterlimit:10;stroke-width:3px;}</style></defs><title>ESnow</title><path class="cls-1" d="M3,51.69l.15.19,0,0,.2.23C8.66,57.63,21.8,52.77,30,55c6,1.61,8.63,5.45,15.25,6.61,8.44,1.49,13.29-5.13,21-5.91a13.64,13.64,0,0,1,7.53,1.38c2.1,1,5.26,1.86,8,.87s4.1-2,7.23-2.56,5,.27,8,.7c2.55.37,4.8.72,6.45,1.92.91.66,1.21,1.57,2.13,2.19a13.15,13.15,0,0,0,3.5,1.43c2.47.17,4.51-1.55,6.34-2.54A17.38,17.38,0,0,1,123,57.44a11.07,11.07,0,0,1,3.67.16c1.36.44,1.43,1.49,2.44,2.17,1.33.89,4.52.85,6.44.28l.52-.18.15-.07.29-.13.15-.08.22-.13.13-.1.17-.14.1-.11.13-.14.08-.11.09-.15.05-.12a1.39,1.39,0,0,0,.05-.16l0-.12a1.48,1.48,0,0,0,0-.18,1.07,1.07,0,0,0,0-.11,1.78,1.78,0,0,0,0-.19v-.11c0-.07,0-.14-.05-.21l0-.09a2.53,2.53,0,0,0-.09-.24l0-.07q-.07-.15-.16-.3h0a6.71,6.71,0,0,0-1.06-1.33h0A16.28,16.28,0,0,0,130.84,52a24.12,24.12,0,0,0-6.53-.84,15.69,15.69,0,0,1-7.94-2.41,12.31,12.31,0,0,0-7.79-1.9c-3.41.09-6.2.74-9.44,1.09a27.57,27.57,0,0,1-9.49-.62c-2-.5-3.84-1.13-5.67-1.6a29.79,29.79,0,0,0-13,.08c-2.48.49-4.43,1.57-6.8,2.18-3.42.87-4.42.13-7.41-.63a13.15,13.15,0,0,0-4.56-.18c-2.34.26-4.11.79-6.72.72a18.47,18.47,0,0,1-3.92-.45c-1-.28-1.53-1-2.51-1.21-1.91-.5-6.09.06-7.93.46-2.45.53-4.65,1.41-7,2.1-.92,0-1.83,0-2.75,0C17.06,48.92,0,47.52,3,51.68Z" transform="translate(-1.15 -3.69)"/><path class="cls-2" d="M129.34,50.51a24.11,24.11,0,0,0-6.53-.84,15.69,15.69,0,0,1-7.94-2.41,12.31,12.31,0,0,0-7.79-1.9c-3.41.09-6.2.74-9.44,1.09a27.57,27.57,0,0,1-9.49-.62c-2-.5-3.84-1.13-5.67-1.6a29.79,29.79,0,0,0-13,.08c-2.48.49-4.43,1.57-6.8,2.18-3.42.87-4.42.13-7.41-.63a13.15,13.15,0,0,0-4.56-.18c-2.34.26-4.11.79-6.72.72a18.47,18.47,0,0,1-3.92-.45c-1-.28-1.53-1-2.51-1.21-1.91-.5-6.09.06-7.93.46-2.45.53-4.65,1.41-7,2.1-.92,0-1.83,0-2.75,0-4.56.11-22.63-1.39-18.1,3.32,5.29,5.5,18.44.64,26.6,2.84,6,1.61,8.63,5.45,15.25,6.61C52.16,61.58,57,55,64.7,54.18a13.64,13.64,0,0,1,7.53,1.38c2.1,1,5.26,1.86,8,.87s4.1-2,7.23-2.56,5,.27,8,.7c2.55.37,4.8.72,6.45,1.92.91.66,1.21,1.57,2.13,2.19a13.15,13.15,0,0,0,3.5,1.43c2.47.17,4.51-1.55,6.34-2.54a17.38,17.38,0,0,1,7.74-1.62,11.07,11.07,0,0,1,3.67.16c1.36.44,1.43,1.49,2.44,2.17,1.33.89,4.52.85,6.44.28C139.82,56.85,132.77,51.68,129.34,50.51Z" transform="translate(-1.15 -3.69)"/><path class="cls-3" d="M125.88,53.46c-2.46-1-4.63-.92-7.42-.92-1.3,0-2.6,0-3.89,0a11.6,11.6,0,0,0-3.59.72,14.11,14.11,0,0,1-7.2-.4c-2.45-.67-5.16-1-7.72-1.78a24.82,24.82,0,0,0-7.54-1c-3.15,0-5.5,0-8.06,1.11-2.34,1.05-4.1,1.7-6.69.91s-4.68-1.78-8.07-1.27c-3,.45-4,2.64-7.2,2.76-3.57.13-3.58-1.58-7.09-.15a15.12,15.12,0,0,1-8.33,1.13C37.91,53.53,33.71,48,28,49.13c-1.61.33-2.61,1.11-4.4,1.17a18.47,18.47,0,0,1-4.16-.55c-1.7-.31-3.87-.78-5.68-.34-1.19.29-1.5,1-2.9,1.08s-2.75-.59-4.16-.74a37.25,37.25,0,0,0-3.9,0l-1.52,0a3,3,0,0,0,.61.85c5.29,5.5,18.44.64,26.6,2.84,6,1.61,8.63,5.45,15.25,6.61C52.16,61.58,57,55,64.7,54.18a13.64,13.64,0,0,1,7.53,1.38c2.1,1,5.26,1.86,8,.87s4.1-2,7.23-2.56,5,.27,8,.7c2.55.37,4.8.72,6.45,1.92.91.66,1.21,1.57,2.13,2.19a13.15,13.15,0,0,0,3.5,1.43c2.47.17,4.51-1.55,6.34-2.54a17.38,17.38,0,0,1,7.74-1.62,11.07,11.07,0,0,1,3.67.16c1.36.44,1.43,1.49,2.44,2.17,1.33.89,4.52.85,6.44.28,3.08-.91,2.47-2.83.71-4.59a6.65,6.65,0,0,1-2.58,1.2C129.34,55.72,127.93,54.32,125.88,53.46Z" transform="translate(-1.15 -3.69)"/><path class="cls-4" d="M25.89,10.86a2.41,2.41,0,0,1-.68-.11,26.06,26.06,0,0,0-7.13-1,25.75,25.75,0,0,0-3.91.33,40.39,40.39,0,0,0-4.57,1,17.44,17.44,0,0,1,.2,2.27q0,3-.37,8.35L19,20.74q4.22-.44,5.18-.44a2.28,2.28,0,0,1,1.62.61,2.14,2.14,0,0,1,.66,1.64,2,2,0,0,1-2,2.23l-5.2.46-10.1.92Q9.06,27.71,9,29.1t-.05,2.59q0,4.83.7,5.68.52.61,3.43.61,1.36,0,4.08-.08t4.1-.08a8.54,8.54,0,0,0,1.29-.14,8.54,8.54,0,0,1,1.27-.14,2,2,0,0,1,2.32,2.27A2.06,2.06,0,0,1,24.27,42a57.84,57.84,0,0,1-8.9.42q-6.78,0-8.7-1.79-2.1-1.95-2.1-9,0-1.4.07-3.06T4.82,25A2.45,2.45,0,0,1,4.58,24,2.26,2.26,0,0,1,5,22.64q.44-6.32.44-9.33a18.68,18.68,0,0,0-.22-2.37A18.59,18.59,0,0,1,5,8.56Q5,6,7.18,6a2.19,2.19,0,0,1,1.57.63,45.56,45.56,0,0,1,5-1,29.62,29.62,0,0,1,4.38-.35,23.32,23.32,0,0,1,8.48,1.27A2.11,2.11,0,0,1,28,8.56a2.35,2.35,0,0,1-.57,1.55A2,2,0,0,1,25.89,10.86Z" transform="translate(-1.15 -3.69)"/><path class="cls-5" d="M25.89,10.86a2.41,2.41,0,0,1-.68-.11,26.06,26.06,0,0,0-7.13-1,25.75,25.75,0,0,0-3.91.33,40.39,40.39,0,0,0-4.57,1,17.44,17.44,0,0,1,.2,2.27q0,3-.37,8.35L19,20.74q4.22-.44,5.18-.44a2.28,2.28,0,0,1,1.62.61,2.14,2.14,0,0,1,.66,1.64,2,2,0,0,1-2,2.23l-5.2.46-10.1.92Q9.06,27.71,9,29.1t-.05,2.59q0,4.83.7,5.68.52.61,3.43.61,1.36,0,4.08-.08t4.1-.08a8.54,8.54,0,0,0,1.29-.14,8.54,8.54,0,0,1,1.27-.14,2,2,0,0,1,2.32,2.27A2.06,2.06,0,0,1,24.27,42a57.84,57.84,0,0,1-8.9.42q-6.78,0-8.7-1.79-2.1-1.95-2.1-9,0-1.4.07-3.06T4.82,25A2.45,2.45,0,0,1,4.58,24,2.26,2.26,0,0,1,5,22.64q.44-6.32.44-9.33a18.68,18.68,0,0,0-.22-2.37A18.59,18.59,0,0,1,5,8.56Q5,6,7.18,6a2.19,2.19,0,0,1,1.57.63,45.56,45.56,0,0,1,5-1,29.62,29.62,0,0,1,4.38-.35,23.32,23.32,0,0,1,8.48,1.27A2.11,2.11,0,0,1,28,8.56a2.35,2.35,0,0,1-.57,1.55A2,2,0,0,1,25.89,10.86Z" transform="translate(-1.15 -3.69)"/><path class="cls-2" d="M32.41,35.84a1.86,1.86,0,0,1,.62-1.5,2.2,2.2,0,0,1,3.46.64,8.38,8.38,0,0,0,2,2.25,9.83,9.83,0,0,0,5.4,1.22A13.8,13.8,0,0,0,50.18,37q3.72-1.88,3.72-5.22,0-2.75-3.13-4.35a15,15,0,0,0-6.54-1.49,12.75,12.75,0,0,1-5.88-1.51,5.56,5.56,0,0,1-3.1-5.07q0-3.89,4.42-7.1a14.75,14.75,0,0,1,8.72-3,18.54,18.54,0,0,1,4.79.72q3.54.94,3.54,2.4a1.72,1.72,0,0,1-2,1.92,17.17,17.17,0,0,1-3.06-.47,16,16,0,0,0-3.39-.45A10.21,10.21,0,0,0,42.51,15a4.89,4.89,0,0,0-2.45,4.09q0,1.81,3.24,2.56a35.08,35.08,0,0,0,4.66.52,12,12,0,0,1,7.83,3.15,8.35,8.35,0,0,1,2.58,6.19,9.48,9.48,0,0,1-4.81,8.31,17.49,17.49,0,0,1-9.68,2.69A17.3,17.3,0,0,1,36.54,41Q32.47,39.12,32.41,35.84Z" transform="translate(-1.15 -3.69)"/><path class="cls-2" d="M80.33,42.83q-1.88,0-2.12-2.05L77.59,36a40.29,40.29,0,0,1-.31-4.79q0-.61.08-2.08T77.44,27q0-4.72-1.75-4.72-2.45,0-4.68,2.91a19.81,19.81,0,0,0-3.15,6.69q0,.85-.2,2.14a17.76,17.76,0,0,0-.13,2.12q0,.66.13,2t.13,2a2.18,2.18,0,0,1-.6,1.6,2.26,2.26,0,0,1-3.09,0,2.2,2.2,0,0,1-.59-1.6q0-.66-.14-2t-.14-2q0-2.25.32-6.24t.32-6.24q0-.7-.08-2.08t-.08-2.08A2,2,0,0,1,64.33,18a2.13,2.13,0,0,1,1.54-.6q2,0,2.21,2.84l.06,2.56q3.67-4.9,7.54-4.9A4.92,4.92,0,0,1,80.57,21a16.07,16.07,0,0,1,1,6.08v2.21l0,2A30.27,30.27,0,0,0,82,36a30.25,30.25,0,0,1,.47,4.67,2.07,2.07,0,0,1-.62,1.56A2.16,2.16,0,0,1,80.33,42.83Z" transform="translate(-1.15 -3.69)"/><path class="cls-2" d="M95.19,42.57a8.52,8.52,0,0,1-6.32-2.71,11.62,11.62,0,0,1-3.1-8.11A14.14,14.14,0,0,1,88.26,23a9.78,9.78,0,0,1,8.53-4.44,7.19,7.19,0,0,1,6.62,4,15.37,15.37,0,0,1,1.73,7.78,14.15,14.15,0,0,1-2.54,8.29A8.7,8.7,0,0,1,95.19,42.57ZM96.5,23a5.5,5.5,0,0,0-5,3.06,11.1,11.1,0,0,0-1.42,5.64,6.78,6.78,0,0,0,1.73,4.94,4.61,4.61,0,0,0,3.39,1.46,5.31,5.31,0,0,0,3.91-1.66,7,7,0,0,0,2-5Q101.38,23.07,96.5,23Z" transform="translate(-1.15 -3.69)"/><path class="cls-2" d="M136.7,21.72q-1.71,7.13-4.46,16.11a15.47,15.47,0,0,1-2,4.09,2.32,2.32,0,0,1-2.08,1.14q-2.38,0-3.72-5.92-.44-1.88-.9-5.12l-.72-4.87L121,31.31l-3.32,9a2.69,2.69,0,0,1-.83,1.27,2.29,2.29,0,0,1-2.1,1.31q-1.66.07-3.21-6.51Q110.76,33,110,27.22l-.52-3.28a23.81,23.81,0,0,1-.28-3.3,2,2,0,0,1,.65-1.52,2.21,2.21,0,0,1,1.56-.6,2,2,0,0,1,2.06,1.81,26.54,26.54,0,0,1,.46,3.19l.33,3.21,1.29,9.82q2.43-6.73,5-15.52.72-2.43,2.51-2.43t2.34,2.71q.57,2.56,1.42,7.87.87,5.51,1.55,8.59l1.6-5.95,2.82-11.91a1.7,1.7,0,0,1,1.88-1.33,2.28,2.28,0,0,1,1.6.62,2,2,0,0,1,.68,1.5A9.59,9.59,0,0,1,136.7,21.72Z" transform="translate(-1.15 -3.69)"/></svg>