<svg id="Слой_1" data-name="Слой 1" xmlns="http://www.w3.org/2000/svg" viewBox="0 0 162.25 62.25"><defs><style>.cls-1{fill:#3f5d71;}.cls-2{fill:#fff;}.cls-3{fill:#b4d3e4;}.cls-4{fill:#7f7e7c;stroke:#fff;stroke-miterlimit:10;stroke-width:3px;}.cls-5{fill:#4b76b9;}</style></defs><title>logo ESnow</title><path class="cls-1" d="M3.08,51.69l.16.19,0,0,.21.23C9,57.63,22.79,52.77,31.34,55c6.26,1.61,9,5.45,16,6.61,8.84,1.49,13.92-5.13,22-5.91a14.87,14.87,0,0,1,7.89,1.38c2.2,1,5.51,1.86,8.33.87s4.29-2,7.57-2.56,5.24.27,8.33.7c2.67.37,5,.72,6.75,1.92,1,.66,1.27,1.57,2.23,2.19a14.15,14.15,0,0,0,3.67,1.43c2.58.17,4.73-1.55,6.65-2.54a18.94,18.94,0,0,1,8.11-1.62,12.14,12.14,0,0,1,3.84.16c1.42.44,1.5,1.49,2.56,2.17,1.39.89,4.74.85,6.75.28l.54-.18.16-.07.31-.13.15-.08.23-.13.13-.1.18-.14.11-.11.13-.14.08-.11.09-.15.05-.12a1.35,1.35,0,0,0,.06-.16l0-.12a1.42,1.42,0,0,0,0-.18,1,1,0,0,0,0-.11,1.7,1.7,0,0,0,0-.19v-.11c0-.07,0-.14-.05-.21l0-.09a2.46,2.46,0,0,0-.1-.24l0-.07q-.07-.15-.16-.3h0a6.78,6.78,0,0,0-1.11-1.33h0A17.18,17.18,0,0,0,137,52a26.4,26.4,0,0,0-6.84-.84,17,17,0,0,1-8.32-2.41,13.37,13.37,0,0,0-8.16-1.9c-3.57.09-6.49.74-9.89,1.09a30.22,30.22,0,0,1-9.94-.62c-2.07-.5-4-1.13-5.94-1.6a32.66,32.66,0,0,0-13.57.08c-2.59.49-4.64,1.57-7.13,2.18-3.58.87-4.63.13-7.76-.63a14.42,14.42,0,0,0-4.78-.18c-2.45.26-4.3.79-7,.72a20.23,20.23,0,0,1-4.1-.45c-1.05-.28-1.61-1-2.63-1.21-2-.5-6.38.06-8.31.46-2.57.53-4.87,1.41-7.29,2.1-1,0-1.92,0-2.88,0C17.81,48.92,0,47.52,3.07,51.68Z"/><path class="cls-2" d="M135.44,50.51a26.39,26.39,0,0,0-6.84-.84,17,17,0,0,1-8.32-2.41,13.37,13.37,0,0,0-8.16-1.9c-3.57.09-6.49.74-9.89,1.09a30.21,30.21,0,0,1-9.94-.62c-2.07-.5-4-1.13-5.94-1.6a32.66,32.66,0,0,0-13.57.08c-2.59.49-4.64,1.57-7.13,2.18-3.58.87-4.63.13-7.76-.63a14.42,14.42,0,0,0-4.78-.18c-2.45.26-4.3.79-7,.72a20.23,20.23,0,0,1-4.1-.45c-1.05-.28-1.61-1-2.63-1.21-2-.5-6.38.06-8.31.46-2.57.53-4.87,1.41-7.29,2.1-1,0-1.92,0-2.88,0-4.78.11-23.71-1.39-19,3.32,5.54,5.5,19.31.64,27.87,2.84,6.26,1.61,9,5.45,16,6.61,8.84,1.49,13.92-5.13,22-5.91a14.87,14.87,0,0,1,7.89,1.38c2.2,1,5.51,1.86,8.33.87s4.29-2,7.57-2.56,5.24.27,8.33.7c2.67.37,5,.72,6.75,1.92,1,.66,1.27,1.57,2.23,2.19a14.15,14.15,0,0,0,3.67,1.43c2.59.17,4.73-1.55,6.65-2.54a18.94,18.94,0,0,1,8.11-1.62,12.13,12.13,0,0,1,3.84.16c1.42.44,1.5,1.49,2.56,2.17,1.39.89,4.74.85,6.75.28C146.41,56.85,139,51.68,135.44,50.51Z"/><path class="cls-3" d="M131.81,53.46c-2.58-1-4.85-.92-7.78-.92-1.36,0-2.72,0-4.08,0a12.66,12.66,0,0,0-3.77.72,15.45,15.45,0,0,1-7.54-.4c-2.57-.67-5.4-1-8.09-1.78a27.16,27.16,0,0,0-7.9-1c-3.3,0-5.77,0-8.44,1.11-2.45,1.05-4.29,1.7-7,.91-2.87-.84-4.9-1.78-8.46-1.27-3.12.45-4.17,2.64-7.54,2.76-3.74.13-3.75-1.58-7.43-.15a16.53,16.53,0,0,1-8.73,1.13c-5.4-1.06-9.8-6.63-15.8-5.47-1.68.33-2.74,1.11-4.61,1.17a20.22,20.22,0,0,1-4.36-.55c-1.79-.31-4.06-.78-6-.34-1.24.29-1.58,1-3,1.08s-2.88-.59-4.36-.74a40.88,40.88,0,0,0-4.09,0l-1.59,0a3,3,0,0,0,.64.85c5.54,5.5,19.31.64,27.87,2.84,6.26,1.61,9,5.45,16,6.61,8.84,1.49,13.92-5.13,22-5.91a14.87,14.87,0,0,1,7.89,1.38c2.2,1,5.51,1.86,8.33.87s4.29-2,7.57-2.56,5.24.27,8.33.7c2.67.37,5,.72,6.75,1.92,1,.66,1.27,1.57,2.23,2.19a14.15,14.15,0,0,0,3.67,1.43c2.59.17,4.73-1.55,6.65-2.54a18.94,18.94,0,0,1,8.11-1.62,12.13,12.13,0,0,1,3.84.16c1.42.44,1.5,1.49,2.56,2.17,1.39.89,4.74.85,6.75.28,3.22-.91,2.58-2.83.75-4.59a7.12,7.12,0,0,1-2.7,1.2C135.44,55.72,134,54.32,131.81,53.46Z"/><path class="cls-4" d="M25.89,10.86a2.41,2.41,0,0,1-.68-.11,26.06,26.06,0,0,0-7.13-1,25.75,25.75,0,0,0-3.91.33,40.39,40.39,0,0,0-4.57,1,17.44,17.44,0,0,1,.2,2.27q0,3-.37,8.35L19,20.74q4.22-.44,5.18-.44a2.28,2.28,0,0,1,1.62.61,2.14,2.14,0,0,1,.66,1.64,2,2,0,0,1-2,2.23l-5.2.46-10.1.92Q9.06,27.71,9,29.1t-.05,2.59q0,4.83.7,5.68.52.61,3.43.61,1.36,0,4.08-.08t4.1-.08a8.54,8.54,0,0,0,1.29-.14,8.54,8.54,0,0,1,1.27-.14,2,2,0,0,1,2.32,2.27A2.06,2.06,0,0,1,24.27,42a57.84,57.84,0,0,1-8.9.42q-6.78,0-8.7-1.79-2.1-1.95-2.1-9,0-1.4.07-3.06T4.82,25A2.45,2.45,0,0,1,4.58,24,2.26,2.26,0,0,1,5,22.64q.44-6.32.44-9.33a18.68,18.68,0,0,0-.22-2.37A18.59,18.59,0,0,1,5,8.56Q5,6,7.18,6a2.19,2.19,0,0,1,1.57.63,45.56,45.56,0,0,1,5-1,29.62,29.62,0,0,1,4.38-.35,23.32,23.32,0,0,1,8.48,1.27A2.11,2.11,0,0,1,28,8.56a2.35,2.35,0,0,1-.57,1.55A2,2,0,0,1,25.89,10.86Z"/><path class="cls-5" d="M25.89,10.86a2.41,2.41,0,0,1-.68-.11,26.06,26.06,0,0,0-7.13-1,25.75,25.75,0,0,0-3.91.33,40.39,40.39,0,0,0-4.57,1,17.44,17.44,0,0,1,.2,2.27q0,3-.37,8.35L19,20.74q4.22-.44,5.18-.44a2.28,2.28,0,0,1,1.62.61,2.14,2.14,0,0,1,.66,1.64,2,2,0,0,1-2,2.23l-5.2.46-10.1.92Q9.06,27.71,9,29.1t-.05,2.59q0,4.83.7,5.68.52.61,3.43.61,1.36,0,4.08-.08t4.1-.08a8.54,8.54,0,0,0,1.29-.14,8.54,8.54,0,0,1,1.27-.14,2,2,0,0,1,2.32,2.27A2.06,2.06,0,0,1,24.27,42a57.84,57.84,0,0,1-8.9.42q-6.78,0-8.7-1.79-2.1-1.95-2.1-9,0-1.4.07-3.06T4.82,25A2.45,2.45,0,0,1,4.58,24,2.26,2.26,0,0,1,5,22.64q.44-6.32.44-9.33a18.68,18.68,0,0,0-.22-2.37A18.59,18.59,0,0,1,5,8.56Q5,6,7.18,6a2.19,2.19,0,0,1,1.57.63,45.56,45.56,0,0,1,5-1,29.62,29.62,0,0,1,4.38-.35,23.32,23.32,0,0,1,8.48,1.27A2.11,2.11,0,0,1,28,8.56a2.35,2.35,0,0,1-.57,1.55A2,2,0,0,1,25.89,10.86Z"/><path class="cls-2" d="M32.41,35.84a1.86,1.86,0,0,1,.62-1.5,2.2,2.2,0,0,1,3.46.64,8.38,8.38,0,0,0,2,2.25,9.83,9.83,0,0,0,5.4,1.22A13.8,13.8,0,0,0,50.18,37q3.72-1.88,3.72-5.22,0-2.75-3.13-4.35a15,15,0,0,0-6.54-1.49,12.75,12.75,0,0,1-5.88-1.51,5.56,5.56,0,0,1-3.1-5.07q0-3.89,4.42-7.1a14.75,14.75,0,0,1,8.72-3,18.54,18.54,0,0,1,4.79.72q3.54.94,3.54,2.4a1.72,1.72,0,0,1-2,1.92,17.17,17.17,0,0,1-3.06-.47,16,16,0,0,0-3.39-.45A10.21,10.21,0,0,0,42.51,15a4.89,4.89,0,0,0-2.45,4.09q0,1.81,3.24,2.56a35.08,35.08,0,0,0,4.66.52,12,12,0,0,1,7.83,3.15,8.35,8.35,0,0,1,2.58,6.19,9.48,9.48,0,0,1-4.81,8.31,17.49,17.49,0,0,1-9.68,2.69A17.3,17.3,0,0,1,36.54,41Q32.47,39.12,32.41,35.84Z"/><path class="cls-2" d="M80.33,42.83q-1.88,0-2.12-2.05L77.59,36a40.29,40.29,0,0,1-.31-4.79q0-.61.08-2.08T77.44,27q0-4.72-1.75-4.72-2.45,0-4.68,2.91a19.81,19.81,0,0,0-3.15,6.69q0,.85-.2,2.14a17.76,17.76,0,0,0-.13,2.12q0,.66.13,2t.13,2a2.18,2.18,0,0,1-.6,1.6,2.26,2.26,0,0,1-3.09,0,2.2,2.2,0,0,1-.59-1.6q0-.66-.14-2t-.14-2q0-2.25.32-6.24t.32-6.24q0-.7-.08-2.08t-.08-2.08A2,2,0,0,1,64.33,18a2.13,2.13,0,0,1,1.54-.6q2,0,2.21,2.84l.06,2.56q3.67-4.9,7.54-4.9A4.92,4.92,0,0,1,80.57,21a16.07,16.07,0,0,1,1,6.08v2.21l0,2A30.27,30.27,0,0,0,82,36a30.25,30.25,0,0,1,.47,4.67,2.07,2.07,0,0,1-.62,1.56A2.16,2.16,0,0,1,80.33,42.83Z"/><path class="cls-2" d="M95.19,42.57a8.52,8.52,0,0,1-6.32-2.71,11.62,11.62,0,0,1-3.1-8.11A14.14,14.14,0,0,1,88.26,23a9.78,9.78,0,0,1,8.53-4.44,7.19,7.19,0,0,1,6.62,4,15.37,15.37,0,0,1,1.73,7.78,14.15,14.15,0,0,1-2.54,8.29A8.7,8.7,0,0,1,95.19,42.57ZM96.5,23a5.5,5.5,0,0,0-5,3.06,11.1,11.1,0,0,0-1.42,5.64,6.78,6.78,0,0,0,1.73,4.94,4.61,4.61,0,0,0,3.39,1.46,5.31,5.31,0,0,0,3.91-1.66,7,7,0,0,0,2-5Q101.38,23.07,96.5,23Z"/><path class="cls-2" d="M136.7,21.72q-1.71,7.13-4.46,16.11a15.47,15.47,0,0,1-2,4.09,2.32,2.32,0,0,1-2.08,1.14q-2.38,0-3.72-5.92-.44-1.88-.9-5.12l-.72-4.87L121,31.31l-3.32,9a2.69,2.69,0,0,1-.83,1.27,2.29,2.29,0,0,1-2.1,1.31q-1.66.07-3.21-6.51Q110.76,33,110,27.22l-.52-3.28a23.81,23.81,0,0,1-.28-3.3,2,2,0,0,1,.65-1.52,2.21,2.21,0,0,1,1.56-.6,2,2,0,0,1,2.06,1.81,26.54,26.54,0,0,1,.46,3.19l.33,3.21,1.29,9.82q2.43-6.73,5-15.52.72-2.43,2.51-2.43t2.34,2.71q.57,2.56,1.42,7.87.87,5.51,1.55,8.59l1.6-5.95,2.82-11.91a1.7,1.7,0,0,1,1.88-1.33,2.28,2.28,0,0,1,1.6.62,2,2,0,0,1,.68,1.5A9.59,9.59,0,0,1,136.7,21.72Z"/><circle class="cls-2" cx="157.96" cy="11.08" r="2.38" transform="translate(9.92 67.28) rotate(-24.8)"/><circle class="cls-2" cx="130.89" cy="7.14" r="1.97" transform="translate(9.08 55.56) rotate(-24.8)"/><circle class="cls-2" cx="107.5" cy="1.83" r="1.17" transform="translate(9.15 45.26) rotate(-24.8)"/><circle class="cls-2" cx="144.25" cy="23.05" r="1.17" transform="translate(3.64 62.63) rotate(-24.8)"/><circle class="cls-2" cx="154.83" cy="45.95" r="4.33" transform="translate(-5 69.18) rotate(-24.8)"/></svg>